<svg width="96" height="32" viewBox="0 0 96 32" fill="none" xmlns="http://www.w3.org/2000/svg">
<path d="M15.8995 31.9999C7.03237 31.9644 -0.0471182 24.7783 0.000236181 15.852C0.035752 7.0441 7.24546 -0.0353828 16.1481 0.000133047C24.8258 0.0356489 31.9408 7.29271 31.9053 16.0651C31.8579 24.8849 24.6837 32.0354 15.8995 31.9999ZM15.9468 31.0409C16.6453 30.2596 17.2728 29.5019 17.9476 28.7798C18.137 28.5785 18.4093 28.4128 18.6697 28.3536C26.0807 26.6962 30.7096 19.7588 29.3008 12.4188C28.2116 6.72445 23.7248 2.48624 17.7818 1.53915C12.4189 0.686772 6.7364 3.52803 4.04904 8.41738C-0.378598 16.4795 4.15558 26.341 13.2003 28.3417C13.4607 28.4009 13.7449 28.5667 13.9224 28.7561C14.6091 29.5019 15.2602 30.2596 15.9468 31.0409Z" fill="black"/>
<path d="M81.0237 9.54205C82.468 9.54205 83.8058 9.54205 85.2146 9.54205C85.2146 8.13325 85.2146 6.74814 85.2146 5.30383C86.4932 5.30383 87.7007 5.30383 88.9556 5.30383C88.9556 9.19873 88.9556 13.07 88.9556 16.9885C87.7717 16.9885 86.5642 16.9885 85.2738 16.9885C85.2738 15.5442 85.2738 14.0999 85.2738 12.5964C83.8295 12.5964 82.468 12.5964 81.0474 12.5964C81.0474 14.0526 81.0474 15.4969 81.0474 16.9885C79.7688 16.9885 78.5613 16.9885 77.3064 16.9885C77.3064 13.0936 77.3064 9.21057 77.3064 5.28015C78.5376 5.28015 79.7452 5.28015 81.0237 5.28015C81.0237 6.70078 81.0237 8.0859 81.0237 9.54205Z" fill="black"/>
<path d="M64.3667 13.0936C65.5387 13.0936 66.6752 13.0936 67.5749 13.0936C68.0011 13.6145 68.2379 14.1828 68.6404 14.3485C69.4454 14.6918 70.3452 14.68 71.1739 14.2893C71.6356 14.0762 71.6001 13.437 71.1265 13.2002C70.6885 12.9871 70.2031 12.8569 69.7296 12.7266C68.7588 12.4662 67.7644 12.2886 66.8173 11.9571C65.4558 11.4599 64.5679 10.5247 64.5087 8.98564C64.4495 7.44662 65.0652 6.28644 66.5095 5.68268C67.1606 5.41039 67.8591 5.19729 68.5457 5.11442C70.3215 4.88948 72.0618 4.99603 73.6245 6.00231C74.6071 6.6416 75.0925 7.65972 74.9622 8.79623C73.8257 8.79623 72.7011 8.79623 71.5645 8.79623C71.1975 7.63604 69.8006 7.1625 68.747 7.81362C68.2379 8.13327 68.2379 8.71335 68.7943 8.96196C69.2797 9.17506 69.8006 9.29344 70.3097 9.43551C71.2212 9.68412 72.1565 9.84986 73.0562 10.1577C74.2874 10.572 75.2108 11.3534 75.3292 12.7503C75.4476 14.2657 75.0333 15.5679 73.6481 16.3966C72.1683 17.2845 70.5228 17.32 68.889 17.1543C68.0603 17.0714 67.2079 16.882 66.4266 16.5742C64.9349 16.0178 64.2365 14.751 64.3667 13.0936Z" fill="black"/>
<path d="M37.6234 13.0818C38.7836 13.0818 39.9082 13.0818 40.8553 13.0818C41.2342 13.5672 41.4709 14.2302 41.8498 14.313C42.6193 14.4906 43.4717 14.4077 44.2767 14.3485C44.4306 14.3367 44.6792 14.0052 44.691 13.804C44.7029 13.6027 44.5371 13.2831 44.3596 13.2002C43.9215 12.9871 43.4361 12.8569 42.9626 12.7385C42.0155 12.478 41.0329 12.3005 40.1095 11.9927C38.1561 11.3297 37.2801 9.44736 37.9667 7.5295C38.2035 6.8547 38.6297 6.29829 39.2571 5.96681C41.6959 4.71191 44.182 4.66456 46.6326 5.89578C47.7691 6.46403 48.2781 7.48215 48.2426 8.80807C47.0943 8.80807 45.9578 8.80807 44.8213 8.80807C44.4779 7.51766 43.4598 7.3756 42.1694 7.76628C41.9445 7.83731 41.6604 8.15695 41.6485 8.38188C41.6367 8.59498 41.8971 8.95014 42.1221 9.03301C42.7258 9.26978 43.3651 9.38816 43.9926 9.5539C44.8686 9.79067 45.7565 9.98009 46.5971 10.3116C47.6744 10.7259 48.4439 11.4954 48.5386 12.703C48.6451 14.0999 48.361 15.4022 47.1061 16.2546C45.5671 17.2964 43.8031 17.3911 42.0392 17.178C41.175 17.0714 40.2871 16.8583 39.4821 16.515C38.1325 15.9349 37.4813 14.6445 37.6234 13.0818Z" fill="black"/>
<path d="M50.5509 5.28015C51.794 5.28015 53.0015 5.28015 54.2801 5.28015C54.2801 5.51692 54.2801 5.73002 54.2801 5.94311C54.2801 8.03854 54.2683 10.1221 54.2801 12.2176C54.2919 13.7447 55.1325 14.5143 56.636 14.4196C57.5475 14.3604 58.2223 13.7921 58.4118 12.8805C58.471 12.5727 58.4946 12.2531 58.4946 11.9453C58.5065 9.9564 58.4946 7.95567 58.4946 5.96679C58.4946 5.75369 58.4946 5.5406 58.4946 5.29199C59.7732 5.29199 60.9807 5.29199 62.212 5.29199C62.2238 5.44589 62.2593 5.58796 62.2593 5.71818C62.2593 7.94384 62.283 10.1813 62.2475 12.407C62.212 14.9168 60.9452 16.4676 58.4946 17.024C57.0266 17.3555 55.5587 17.3555 54.1025 16.9885C51.7821 16.4084 50.5509 14.8694 50.5154 12.4188C50.4799 10.1695 50.5036 7.92016 50.5036 5.67082C50.5036 5.5406 50.5273 5.42221 50.5509 5.28015Z" fill="black"/>
<path d="M42.5126 23.7839C42.927 22.2448 43.2821 20.8952 43.6491 19.522C44.6909 19.522 45.7327 19.522 46.7982 19.522C46.7982 21.9489 46.7982 24.3521 46.7982 26.7909C46.0642 26.7909 45.342 26.7909 44.5844 26.7909C44.5844 25.2519 44.5844 23.7128 44.5844 21.9962C44.1227 23.6892 43.6965 25.24 43.2703 26.7554C43.1992 26.7909 43.1637 26.8146 43.1282 26.8146C41.4235 26.8974 41.4353 26.8974 40.9854 25.2282C40.725 24.2574 40.4527 23.2866 40.1804 22.3277C40.1686 22.2922 40.133 22.2804 40.1212 22.2685C40.1212 23.7484 40.1212 25.24 40.1212 26.779C39.4819 26.779 38.8071 26.779 38.085 26.779C38.085 24.3876 38.085 21.9844 38.085 19.4983C39.1031 19.4983 40.1449 19.4865 41.1748 19.522C41.2814 19.522 41.4235 19.7824 41.4708 19.9482C41.7668 21.0136 42.0391 22.0791 42.3113 23.1446C42.3469 23.3103 42.4061 23.4761 42.5126 23.7839Z" fill="black"/>
<path d="M91.8086 5.26831C93.0398 5.26831 94.2355 5.26831 95.4786 5.26831C95.4786 9.16321 95.4786 13.0581 95.4786 16.9767C94.2592 16.9767 93.0516 16.9767 91.8086 16.9767C91.8086 13.0936 91.8086 9.2224 91.8086 5.26831Z" fill="black"/>
<path d="M84.8001 24.2219C84.3147 24.2219 83.8175 24.2219 83.2729 24.2219C83.2729 23.7247 83.2729 23.2748 83.2729 22.7776C84.5278 22.7776 85.7827 22.7776 87.0849 22.7776C87.0849 24.1153 87.0849 25.4413 87.0849 26.7672C86.0195 26.9448 85.984 26.9329 85.6643 26.1516C84.7883 26.8027 83.782 27.004 82.7047 26.9566C80.7868 26.8737 79.7095 25.9385 79.4372 24.0325C79.236 22.5763 79.3425 21.1557 80.6211 20.1612C81.9707 19.0958 84.6344 19.0839 86.0432 20.0902C86.7416 20.5874 87.0376 21.1439 87.0968 22.1146C86.4338 22.1146 85.7709 22.1265 85.1079 22.1028C85.0132 22.1028 84.9066 21.9607 84.8356 21.8542C84.4568 21.2267 83.8293 20.9781 83.0006 21.1439C82.314 21.2741 81.8878 21.7121 81.8049 22.4343C81.7576 22.8486 81.7457 23.263 81.7813 23.6773C81.8878 25.0032 83.2374 25.7017 84.3858 24.9914C84.6107 24.8493 84.7527 24.5889 84.9303 24.3876C84.8948 24.3166 84.8475 24.2692 84.8001 24.2219Z" fill="black"/>
<path d="M88.6714 19.522C90.7668 19.522 92.8386 19.522 94.9458 19.522C94.9458 20.0784 94.9458 20.5993 94.9458 21.2149C93.6436 21.2149 92.3295 21.2149 90.9917 21.2149C90.9917 21.5937 90.9917 21.8779 90.9917 22.2449C92.0927 22.2449 93.2056 22.2449 94.3539 22.2449C94.3539 22.8249 94.3539 23.334 94.3539 23.9141C93.2529 23.9141 92.1401 23.9141 91.0036 23.9141C91.0036 24.3284 91.0036 24.6481 91.0036 25.0506C92.3177 25.0506 93.6436 25.0506 95.0169 25.0506C95.0169 25.6662 95.0169 26.1989 95.0169 26.779C92.8859 26.779 90.8023 26.779 88.6714 26.779C88.6714 24.3758 88.6714 21.9726 88.6714 19.522Z" fill="black"/>
<path d="M55.7602 24.3877C56.4586 24.3877 57.169 24.3877 57.8674 24.3877C58.1516 25.2282 59.1223 25.5952 59.9155 25.1572C60.0339 25.098 60.176 24.9204 60.1641 24.8138C60.1523 24.6718 60.0221 24.4705 59.8918 24.4113C59.5722 24.2693 59.217 24.1864 58.8737 24.0917C58.3291 23.9378 57.7609 23.8312 57.2282 23.63C56.2929 23.2867 55.843 22.6119 55.8312 21.7121C55.8194 20.7414 56.2574 20.0784 57.1926 19.7114C58.4594 19.2023 59.7379 19.2023 61.0047 19.6877C61.9281 20.0429 62.3306 20.6585 62.3424 21.7121C61.7031 21.7121 61.0639 21.724 60.4246 21.7003C60.3417 21.7003 60.2352 21.5937 60.1878 21.5109C59.8326 20.9545 59.3709 20.7769 58.7435 21.0018C58.5541 21.0728 58.4238 21.2859 58.2581 21.4398C58.4002 21.5819 58.5067 21.8068 58.6843 21.866C59.1697 22.0318 59.6669 22.1265 60.1641 22.2567C60.4838 22.3396 60.8153 22.4224 61.1231 22.529C61.9162 22.8131 62.5082 23.2867 62.5792 24.1982C62.6502 25.1808 62.3779 26.0332 61.4427 26.4712C59.8682 27.2052 58.2581 27.1224 56.7073 26.3647C55.9969 26.0332 55.7128 25.3229 55.7602 24.3877Z" fill="black"/>
<path d="M70.0847 21.7239C69.4573 21.7239 68.8653 21.7358 68.2853 21.7121C68.155 21.7003 67.9774 21.5819 67.8946 21.4635C67.5513 20.9307 66.7936 20.7413 66.249 21.0846C66.1306 21.1557 65.9886 21.3333 66.0004 21.4398C66.0241 21.5819 66.1543 21.7831 66.2845 21.8305C66.7107 21.9844 67.1487 22.0791 67.5868 22.1975C68.084 22.3395 68.5812 22.4342 69.0548 22.6237C69.8124 22.9196 70.2978 23.4642 70.3215 24.3166C70.3452 25.169 70.0966 25.903 69.3389 26.4002C68.4747 26.9566 67.5039 26.9684 66.545 26.9211C66.0359 26.8974 65.5269 26.7908 65.0415 26.6606C63.9642 26.3647 63.4433 25.5596 63.5261 24.3995C64.2009 24.3995 64.8876 24.3995 65.5742 24.3995C65.9649 25.2282 66.6042 25.536 67.4447 25.24C67.6341 25.169 67.8472 24.9677 67.8827 24.7901C67.9064 24.6717 67.6815 24.4113 67.5157 24.3521C67.0304 24.1864 66.5331 24.0916 66.0359 23.9614C65.6334 23.8549 65.2309 23.7602 64.8521 23.5944C63.9997 23.2156 63.5498 22.5645 63.5853 21.5937C63.6208 20.6585 64.0944 20.0429 64.9468 19.7114C66.1543 19.2378 67.3737 19.226 68.5931 19.6285C69.6348 19.9837 70.1084 20.6585 70.0847 21.7239Z" fill="black"/>
<path d="M50.6575 21.2031C50.6575 21.6056 50.6575 21.8897 50.6575 22.2449C51.7703 22.2449 52.8713 22.2449 54.0197 22.2449C54.0197 22.8249 54.0197 23.3458 54.0197 23.9259C52.9069 23.9259 51.8059 23.9259 50.6694 23.9259C50.6694 24.3403 50.6694 24.6718 50.6694 25.0861C52.019 25.0861 53.333 25.0861 54.6826 25.0861C54.6826 25.6899 54.6826 26.2226 54.6826 26.7909C52.5635 26.7909 50.4681 26.7909 48.3372 26.7909C48.3372 24.364 48.3372 21.9607 48.3372 19.522C50.4208 19.522 52.4807 19.522 54.5998 19.522C54.5998 20.0547 54.5998 20.5993 54.5998 21.2031C53.3094 21.2031 52.019 21.2031 50.6575 21.2031Z" fill="black"/>
<path d="M70.8662 26.8264C71.3516 25.5005 71.8015 24.2456 72.2632 22.9907C72.6302 21.9726 73.009 20.9663 73.376 19.9363C73.4826 19.6167 73.6246 19.451 74.0034 19.4746C74.6309 19.5102 75.2583 19.4628 75.8976 19.4983C76.0634 19.5102 76.3238 19.6404 76.383 19.7824C77.2354 22.0673 78.0641 24.364 78.8928 26.6607C78.9046 26.6962 78.881 26.7317 78.881 26.8382C78.1825 26.8382 77.484 26.8738 76.7855 26.8146C76.6316 26.8027 76.4185 26.5068 76.3712 26.3055C76.2646 25.9148 76.0989 25.7373 75.6845 25.7846C75.3175 25.8201 74.9387 25.8201 74.5599 25.7846C73.9324 25.7254 73.4234 25.7846 73.3405 26.5778C73.3286 26.6725 73.1392 26.8264 73.0327 26.8264C72.3224 26.8382 71.6357 26.8264 70.8662 26.8264ZM75.6845 24.1746C75.4122 23.2511 75.1755 22.4461 74.9387 21.6411C74.8913 21.6529 74.844 21.6529 74.7966 21.6648C74.5599 22.4698 74.3231 23.263 74.0745 24.1154C74.2521 24.139 74.3586 24.1627 74.477 24.1746C74.844 24.1746 75.211 24.1746 75.6845 24.1746Z" fill="black"/>
<path d="M12.7213 20.552C12.7147 20.552 12.6555 20.714 12.5964 20.8598C12.3714 22.3514 12.1347 23.8904 11.8979 25.4887C10.4417 25.2282 9.47097 24.1864 8.31079 23.0381C8.44102 22.1502 8.51205 21.0018 8.79618 19.9127C9.23421 18.2434 9.71959 16.5742 10.347 14.9641C11.5072 11.9926 11.7203 8.99748 10.8798 5.93129C10.6312 5.01971 10.6312 5.00788 11.5072 4.62904C12.9042 4.02527 14.3485 3.72931 15.8757 3.72931C16.2782 3.72931 16.4676 3.84769 16.586 4.23837C17.5923 7.78995 17.4384 11.1995 15.4613 14.4314C14.7983 15.5206 14.3011 16.7163 13.7802 17.8883C13.5198 18.4684 13.1646 18.9774 13.0817 19.6641C12.7694 20.4336 12.7739 20.4336 12.7213 20.552Z" fill="#F77A00"/>
<path d="M18.942 4.03711C19.7825 4.40411 20.5165 4.70007 21.2387 5.04339C21.3808 5.11442 21.4991 5.292 21.5583 5.44591C22.5054 8.26349 22.6593 11.0929 21.4755 13.8868C19.9246 17.5686 19.013 21.3688 19.0959 25.3821C19.1077 25.7728 18.9657 25.9385 18.5868 26.0214C17.2609 26.3174 15.9468 26.4239 14.5972 26.2463C14.3013 26.2108 14.1237 26.1398 14.1474 25.7846C14.3131 23.4051 14.8103 21.0847 15.8285 18.9301C16.231 18.0777 16.4914 17.178 16.965 16.3611C17.4503 15.5205 17.9239 14.68 18.3264 13.804C19.6286 10.9272 19.747 7.94385 19.0959 4.88949C19.0604 4.73559 19.0249 4.58168 19.0012 4.42778C18.9657 4.35675 18.9657 4.29756 18.942 4.03711Z" fill="#F77A00"/>
<path d="M21.2742 24.9204C21.3215 24.0443 21.3334 23.263 21.4162 22.4934C21.7004 19.9718 22.3752 17.5449 23.3696 15.2127C24.3404 12.9634 24.7902 10.6312 24.4824 8.18058C24.4588 8.02667 24.4824 7.87277 24.4824 7.70703C29.0877 12.6201 27.8564 21.4753 21.2742 24.9204Z" fill="#F77A00"/>
<path d="M6.33386 20.7769C3.25582 17.6633 4.73565 8.57126 8.68974 6.47583C9.11593 7.95566 9.22248 9.44732 9.09226 10.9745C8.95019 12.6082 8.16884 14.0525 7.71898 15.6034C7.23359 17.2608 6.84292 18.9419 6.40489 20.623C6.38122 20.6703 6.35753 20.7177 6.33386 20.7769Z" fill="#F77A00"/>
</svg>
