<svg width="305" height="304" viewBox="0 0 305 304" fill="none" xmlns="http://www.w3.org/2000/svg">
<path d="M183.138 151.109H101.735C100.191 151.109 98.8848 149.862 98.8848 148.259V27.3719C98.8848 25.8281 100.132 24.5219 101.735 24.5219H183.138C184.682 24.5219 185.988 25.7687 185.988 27.3719V148.319C185.988 149.862 184.682 151.109 183.138 151.109Z" fill="white"/>
<path d="M183.078 151.466H101.735C99.9533 151.466 98.5283 150.041 98.5283 148.259V27.3719C98.5283 25.5906 99.9533 24.1656 101.735 24.1656H183.078C184.86 24.1656 186.285 25.5906 186.285 27.3719V148.259C186.285 149.981 184.86 151.466 183.078 151.466ZM101.735 24.8187C100.31 24.8187 99.1814 25.9469 99.1814 27.3719V148.259C99.1814 149.684 100.31 150.812 101.735 150.812H183.078C184.503 150.812 185.631 149.684 185.631 148.259V27.3719C185.631 25.9469 184.503 24.8187 183.078 24.8187H101.735Z" fill="#E0E0E0"/>
<path d="M179.872 137.334H107.375V140.303H179.872V137.334Z" fill="#E0E0E0"/>
<path d="M179.872 141.728H107.375V144.697H179.872V141.728Z" fill="#E0E0E0"/>
<path d="M179.872 75.05H107.375V127.478H179.872V75.05Z" fill="#F5F5F5"/>
<path d="M179.456 84.1938C179.456 84.2531 163.247 84.3719 143.297 84.3719C123.347 84.3719 107.138 84.3125 107.138 84.1938C107.138 84.1344 123.347 84.0156 143.297 84.0156C163.247 84.0156 179.456 84.075 179.456 84.1938Z" fill="#263238"/>
<path d="M116.875 127.538C116.816 127.538 116.697 115.9 116.697 101.472C116.697 87.1031 116.757 75.4062 116.875 75.4062C116.935 75.4062 117.054 87.0437 117.054 101.472C117.054 115.841 116.994 127.538 116.875 127.538Z" fill="#263238"/>
<path d="M149.472 128.131C149.413 128.131 149.294 116.316 149.294 101.769C149.294 87.2219 149.353 75.4062 149.472 75.4062C149.531 75.4062 149.65 87.2219 149.65 101.769C149.65 116.316 149.591 128.131 149.472 128.131Z" fill="#263238"/>
<path d="M165.8 128.131C165.741 128.131 165.622 116.316 165.622 101.769C165.622 87.2219 165.681 75.4062 165.8 75.4062C165.86 75.4062 165.978 87.2219 165.978 101.769C165.919 116.316 165.86 128.131 165.8 128.131Z" fill="#263238"/>
<path d="M114.085 78.4937H109.869V81.5812H114.085V78.4937Z" fill="#E0E0E0"/>
<path d="M114.085 89.5375H109.869V92.625H114.085V89.5375Z" fill="#E0E0E0"/>
<path d="M114.085 96.5438H109.869V99.6313H114.085V96.5438Z" fill="#E0E0E0"/>
<path d="M114.085 102.719H109.869V105.806H114.085V102.719Z" fill="#E0E0E0"/>
<path d="M162.059 78.4937H153.094V81.5812H162.059V78.4937Z" fill="#E0E0E0"/>
<path d="M160.694 87.1031H154.519V90.1906H160.694V87.1031Z" fill="#E0E0E0"/>
<path d="M160.694 96.4844H154.519V99.5719H160.694V96.4844Z" fill="#E0E0E0"/>
<path d="M176.31 96.4844H170.135V99.5719H176.31V96.4844Z" fill="#E0E0E0"/>
<path d="M160.694 102.719H154.519V105.806H160.694V102.719Z" fill="#E0E0E0"/>
<path d="M176.31 102.481H170.135V105.569H176.31V102.481Z" fill="#E0E0E0"/>
<path d="M176.31 87.2812H170.135V90.3687H176.31V87.2812Z" fill="#E0E0E0"/>
<path d="M176.309 78.4937H169.125V81.5812H176.309V78.4937Z" fill="#E0E0E0"/>
<path d="M144.425 78.4937H120.972V81.5812H144.425V78.4937Z" fill="#E0E0E0"/>
<path d="M134.925 88.8844H120.972V91.9719H134.925V88.8844Z" fill="#E0E0E0"/>
<path d="M144.425 96.2469H120.972V99.3344H144.425V96.2469Z" fill="#E0E0E0"/>
<path d="M133.382 102.481H120.972V105.569H133.382V102.481Z" fill="#E0E0E0"/>
<path d="M179.813 127.538H165.8V134.663H179.813V127.538Z" fill="#E0E0E0"/>
<path d="M176.369 37.8219H145.197V40.7906H176.369V37.8219Z" fill="#E0E0E0"/>
<path d="M116.756 47.025H109.156V49.9937H116.756V47.025Z" fill="#E0E0E0"/>
<path d="M129.285 52.0125H108.979V54.9812H129.285V52.0125Z" fill="#E0E0E0"/>
<path d="M169.61 49.9996H177.21V47.0308H169.61V49.9996Z" fill="#E0E0E0"/>
<path d="M157.156 54.9166H177.462V51.9478H157.156V54.9166Z" fill="#E0E0E0"/>
<path d="M129.285 61.0969H108.979V64.0656H129.285V61.0969Z" fill="#E0E0E0"/>
<path d="M160.872 66.2625H108.979V69.2312H160.872V66.2625Z" fill="#E0E0E0"/>
<path d="M109.691 36.3375H111.057V41.2062H109.691V36.3375Z" fill="#E0E0E0"/>
<path d="M116.697 36.3375V41.2062H115.569L113.432 38.5937V41.2062H112.066V36.3375H113.194L115.332 38.95V36.3375H116.697Z" fill="#E0E0E0"/>
<path d="M122.575 36.3375L120.497 41.2062H119.131L117.053 36.3375H118.538L119.844 39.5437L121.209 36.3375H122.575Z" fill="#E0E0E0"/>
<path d="M122.575 38.7719C122.575 37.2875 123.703 36.2188 125.306 36.2188C126.85 36.2188 128.038 37.2875 128.038 38.7719C128.038 40.2562 126.91 41.325 125.306 41.325C123.703 41.325 122.575 40.2562 122.575 38.7719ZM126.613 38.7719C126.613 37.9406 126.019 37.3469 125.306 37.3469C124.594 37.3469 124 37.8812 124 38.7719C124 39.6031 124.594 40.1375 125.306 40.1375C126.019 40.1969 126.613 39.6031 126.613 38.7719Z" fill="#E0E0E0"/>
<path d="M128.75 36.3375H130.116V41.2062H128.75V36.3375Z" fill="#E0E0E0"/>
<path d="M130.829 38.7719C130.829 37.2875 131.957 36.2188 133.5 36.2188C134.391 36.2188 135.104 36.575 135.579 37.1687L134.688 37.9406C134.391 37.5844 133.975 37.3469 133.56 37.3469C132.729 37.3469 132.194 37.8812 132.194 38.7719C132.194 39.6031 132.729 40.1375 133.56 40.1375C134.035 40.1375 134.391 39.9594 134.688 39.5437L135.579 40.3156C135.104 40.9094 134.391 41.2656 133.5 41.2656C131.957 41.325 130.829 40.2562 130.829 38.7719Z" fill="#E0E0E0"/>
<path d="M140.15 40.1375V41.2062H136.231V36.3375H140.091V37.4062H137.656V38.2375H139.853V39.2469H137.656V40.1375H140.15Z" fill="#E0E0E0"/>
<path d="M104.763 29.0344C104.763 29.7469 104.169 30.3406 103.457 30.3406C102.744 30.3406 102.15 29.7469 102.15 29.0344C102.15 28.3219 102.744 27.7281 103.457 27.7281C104.169 27.7281 104.763 28.3219 104.763 29.0344Z" fill="#E0E0E0"/>
<path d="M108.147 29.0344C108.147 29.7469 107.553 30.3406 106.841 30.3406C106.128 30.3406 105.535 29.7469 105.535 29.0344C105.535 28.3219 106.128 27.7281 106.841 27.7281C107.553 27.7281 108.147 28.3219 108.147 29.0344Z" fill="#E0E0E0"/>
<path d="M111.591 29.0344C111.591 29.7469 110.997 30.3406 110.285 30.3406C109.572 30.3406 108.979 29.7469 108.979 29.0344C108.979 28.3219 109.572 27.7281 110.285 27.7281C110.997 27.7281 111.591 28.3219 111.591 29.0344Z" fill="#E0E0E0"/>
<path d="M271.725 239.816H190.322C188.778 239.816 187.472 238.569 187.472 236.966V116.078C187.472 114.534 188.719 113.228 190.322 113.228H271.725C273.269 113.228 274.575 114.475 274.575 116.078V237.025C274.575 238.569 273.328 239.816 271.725 239.816Z" fill="white"/>
<path d="M271.725 240.172H190.381C188.6 240.172 187.175 238.747 187.175 236.966V116.078C187.175 114.297 188.6 112.872 190.381 112.872H271.725C273.506 112.872 274.931 114.297 274.931 116.078V236.966C274.872 238.688 273.447 240.172 271.725 240.172ZM190.381 113.525C188.956 113.525 187.828 114.653 187.828 116.078V236.966C187.828 238.391 188.956 239.519 190.381 239.519H271.725C273.15 239.519 274.278 238.391 274.278 236.966V116.078C274.278 114.653 273.15 113.525 271.725 113.525H190.381Z" fill="#E0E0E0"/>
<path d="M268.459 226.041H195.962V229.009H268.459V226.041Z" fill="#E0E0E0"/>
<path d="M268.459 230.434H195.962V233.403H268.459V230.434Z" fill="#E0E0E0"/>
<path d="M268.459 163.756H195.962V216.184H268.459V163.756Z" fill="#F5F5F5"/>
<path d="M268.043 172.841C268.043 172.9 251.834 173.019 231.884 173.019C211.934 173.019 195.725 172.959 195.725 172.841C195.725 172.781 211.934 172.662 231.884 172.662C251.893 172.722 268.043 172.781 268.043 172.841Z" fill="#E0E0E0"/>
<path d="M205.521 216.244C205.462 216.244 205.343 204.606 205.343 190.178C205.343 175.809 205.403 164.113 205.521 164.113C205.64 164.113 205.7 175.75 205.7 190.178C205.64 204.547 205.581 216.244 205.521 216.244Z" fill="#E0E0E0"/>
<path d="M238.119 216.838C238.059 216.838 237.94 205.022 237.94 190.475C237.94 175.928 238 164.113 238.119 164.113C238.178 164.113 238.297 175.928 238.297 190.475C238.237 205.022 238.178 216.838 238.119 216.838Z" fill="#E0E0E0"/>
<path d="M254.387 216.838C254.328 216.838 254.209 205.022 254.209 190.475C254.209 175.928 254.268 164.113 254.387 164.113C254.446 164.113 254.565 175.928 254.565 190.475C254.565 205.022 254.506 216.838 254.387 216.838Z" fill="#E0E0E0"/>
<path d="M202.731 167.2H198.515V170.287H202.731V167.2Z" fill="#E0E0E0"/>
<path d="M202.731 178.244H198.515V181.331H202.731V178.244Z" fill="#E0E0E0"/>
<path d="M202.731 185.25H198.515V188.338H202.731V185.25Z" fill="#E0E0E0"/>
<path d="M202.731 191.425H198.515V194.513H202.731V191.425Z" fill="#E0E0E0"/>
<path d="M250.706 167.2H241.74V170.287H250.706V167.2Z" fill="#E0E0E0"/>
<path d="M249.281 175.809H243.106V178.897H249.281V175.809Z" fill="#E0E0E0"/>
<path d="M249.281 185.191H243.106V188.278H249.281V185.191Z" fill="#E0E0E0"/>
<path d="M264.956 185.191H258.781V188.278H264.956V185.191Z" fill="#E0E0E0"/>
<path d="M249.281 191.425H243.106V194.513H249.281V191.425Z" fill="#E0E0E0"/>
<path d="M264.897 191.188H258.722V194.275H264.897V191.188Z" fill="#E0E0E0"/>
<path d="M264.897 175.988H258.722V179.075H264.897V175.988Z" fill="#E0E0E0"/>
<path d="M264.956 167.2H257.771V170.287H264.956V167.2Z" fill="#E0E0E0"/>
<path d="M233.071 167.2H209.618V170.287H233.071V167.2Z" fill="#E0E0E0"/>
<path d="M223.571 177.591H209.618V180.678H223.571V177.591Z" fill="#E0E0E0"/>
<path d="M233.071 184.953H209.618V188.041H233.071V184.953Z" fill="#E0E0E0"/>
<path d="M222.028 191.188H209.618V194.275H222.028V191.188Z" fill="#E0E0E0"/>
<path d="M268.4 216.244H254.387V223.369H268.4V216.244Z" fill="#E0E0E0"/>
<path d="M264.956 126.528H233.784V129.497H264.956V126.528Z" fill="#E0E0E0"/>
<path d="M205.403 135.731H197.803V138.7H205.403V135.731Z" fill="#E0E0E0"/>
<path d="M217.872 140.719H197.565V143.688H217.872V140.719Z" fill="#E0E0E0"/>
<path d="M258.244 138.702H265.844V135.734H258.244V138.702Z" fill="#E0E0E0"/>
<path d="M245.73 143.619H266.036V140.651H245.73V143.619Z" fill="#E0E0E0"/>
<path d="M217.872 149.803H197.565V152.772H217.872V149.803Z" fill="#E0E0E0"/>
<path d="M249.459 154.969H197.565V157.938H249.459V154.969Z" fill="#E0E0E0"/>
<path d="M198.278 125.044H199.643V129.913H198.278V125.044Z" fill="#E0E0E0"/>
<path d="M205.284 125.044V129.913H204.156L202.018 127.3V129.913H200.653V125.044H201.781L203.918 127.656V125.044H205.284Z" fill="#E0E0E0"/>
<path d="M211.222 125.044L209.143 129.913H207.778L205.7 125.044H207.184L208.49 128.25L209.856 125.044H211.222Z" fill="#E0E0E0"/>
<path d="M211.162 127.478C211.162 125.994 212.29 124.925 213.893 124.925C215.496 124.925 216.625 125.994 216.625 127.478C216.625 128.963 215.496 130.031 213.893 130.031C212.29 130.031 211.162 128.963 211.162 127.478ZM215.2 127.478C215.2 126.647 214.606 126.053 213.893 126.053C213.181 126.053 212.587 126.588 212.587 127.478C212.587 128.309 213.181 128.844 213.893 128.844C214.606 128.903 215.2 128.309 215.2 127.478Z" fill="#E0E0E0"/>
<path d="M217.337 125.044H218.703V129.913H217.337V125.044Z" fill="#E0E0E0"/>
<path d="M219.475 127.478C219.475 125.994 220.603 124.925 222.146 124.925C223.037 124.925 223.75 125.281 224.225 125.875L223.334 126.647C223.037 126.291 222.621 126.053 222.206 126.053C221.375 126.053 220.84 126.588 220.84 127.478C220.84 128.309 221.375 128.844 222.206 128.844C222.681 128.844 223.037 128.666 223.334 128.25L224.225 129.022C223.75 129.616 223.037 129.972 222.146 129.972C220.603 130.031 219.475 128.963 219.475 127.478Z" fill="#E0E0E0"/>
<path d="M228.797 128.844V129.913H224.878V125.044H228.737V126.113H226.303V126.944H228.5V127.953H226.303V128.844H228.797Z" fill="#E0E0E0"/>
<path d="M193.35 117.741C193.35 118.453 192.756 119.047 192.044 119.047C191.331 119.047 190.737 118.453 190.737 117.741C190.737 117.028 191.331 116.434 192.044 116.434C192.756 116.434 193.35 117.028 193.35 117.741Z" fill="#E0E0E0"/>
<path d="M196.794 117.741C196.794 118.453 196.2 119.047 195.487 119.047C194.775 119.047 194.181 118.453 194.181 117.741C194.181 117.028 194.775 116.434 195.487 116.434C196.2 116.434 196.794 117.028 196.794 117.741Z" fill="#E0E0E0"/>
<path d="M200.178 117.741C200.178 118.453 199.584 119.047 198.872 119.047C198.159 119.047 197.565 118.453 197.565 117.741C197.565 117.028 198.159 116.434 198.872 116.434C199.584 116.434 200.178 117.028 200.178 117.741Z" fill="#E0E0E0"/>
<path d="M220.484 23.5125C226.541 18.525 235.506 18.5844 241.562 23.5719C242.097 23.9875 242.869 24.1062 243.344 23.5719C243.819 23.0969 243.878 22.2062 243.344 21.7906C239.9 18.8812 235.566 17.2188 231.053 17.2188C226.541 17.2188 222.206 18.8812 218.703 21.7312C218.169 22.1469 218.228 23.0969 218.703 23.5125C219.237 24.0469 219.95 23.9875 220.484 23.5125Z" fill="#E0E0E0"/>
<path d="M224.76 28.025C228.381 25.0562 233.784 25.1156 237.347 28.025C237.881 28.4406 238.653 28.5594 239.128 28.025C239.603 27.55 239.663 26.6594 239.128 26.2437C236.813 24.3437 234.022 23.275 231.053 23.275C228.084 23.275 225.235 24.4031 222.919 26.2437C222.385 26.6594 222.444 27.6094 222.919 28.025C223.453 28.5594 224.225 28.4406 224.76 28.025Z" fill="#E0E0E0"/>
<path d="M234.2 31.825C234.2 33.5469 232.775 34.9719 231.053 34.9719C229.331 34.9719 227.906 33.5469 227.906 31.825C227.906 30.1031 229.331 28.6781 231.053 28.6781C232.775 28.6781 234.2 30.0438 234.2 31.825Z" fill="#E0E0E0"/>
<path d="M280.928 279.775C280.928 279.834 223.334 279.953 152.322 279.953C81.25 279.953 23.6562 279.894 23.6562 279.775C23.6562 279.656 81.25 279.597 152.322 279.597C223.334 279.656 280.928 279.716 280.928 279.775Z" fill="#263238"/>
<path d="M133.856 172.128H52.3939C50.8502 172.128 49.5439 170.881 49.5439 169.278V48.3906C49.5439 46.8469 50.7908 45.5406 52.3939 45.5406H133.797C135.341 45.5406 136.647 46.7875 136.647 48.3906V169.338C136.647 170.881 135.4 172.128 133.856 172.128Z" fill="white"/>
<path d="M133.797 172.484H52.4533C50.6721 172.484 49.2471 171.059 49.2471 169.278V48.3906C49.2471 46.6094 50.6721 45.1844 52.4533 45.1844H133.797C135.578 45.1844 137.003 46.6094 137.003 48.3906V169.278C137.003 171 135.578 172.484 133.797 172.484ZM52.4533 45.8375C51.0283 45.8375 49.9002 46.9656 49.9002 48.3906V169.278C49.9002 170.703 51.0283 171.831 52.4533 171.831H133.797C135.222 171.831 136.35 170.703 136.35 169.278V48.3906C136.35 46.9656 135.222 45.8375 133.797 45.8375H52.4533Z" fill="#263238"/>
<path d="M130.532 158.353H58.0347V161.322H130.532V158.353Z" fill="#E0E0E0"/>
<path d="M130.532 162.747H58.0347V165.716H130.532V162.747Z" fill="#E0E0E0"/>
<path d="M130.532 96.0688H58.0347V148.497H130.532V96.0688Z" fill="#F5F5F5"/>
<path d="M130.175 105.213C130.175 105.272 113.966 105.391 94.0158 105.391C74.0658 105.391 57.8564 105.331 57.8564 105.213C57.8564 105.153 74.0658 105.034 94.0158 105.034C113.966 105.034 130.175 105.094 130.175 105.213Z" fill="#263238"/>
<path d="M67.5941 148.556C67.5348 148.556 67.416 136.919 67.416 122.491C67.416 108.122 67.4754 96.425 67.5941 96.425C67.6535 96.425 67.7723 108.063 67.7723 122.491C67.7723 136.859 67.6535 148.556 67.5941 148.556Z" fill="#263238"/>
<path d="M100.191 149.15C100.131 149.15 100.013 137.334 100.013 122.788C100.013 108.241 100.072 96.425 100.191 96.425C100.31 96.425 100.369 108.241 100.369 122.788C100.369 137.334 100.25 149.15 100.191 149.15Z" fill="#263238"/>
<path d="M116.459 149.15C116.4 149.15 116.281 137.334 116.281 122.788C116.281 108.241 116.341 96.425 116.459 96.425C116.578 96.425 116.638 108.241 116.638 122.788C116.638 137.334 116.578 149.15 116.459 149.15Z" fill="#263238"/>
<path d="M64.8035 99.5125H60.5879V102.6H64.8035V99.5125Z" fill="#E0E0E0"/>
<path d="M64.8035 110.556H60.5879V113.644H64.8035V110.556Z" fill="#E0E0E0"/>
<path d="M64.8035 117.562H60.5879V120.65H64.8035V117.562Z" fill="#E0E0E0"/>
<path d="M64.8035 123.738H60.5879V126.825H64.8035V123.738Z" fill="#E0E0E0"/>
<path d="M112.778 99.5125H103.812V102.6H112.778V99.5125Z" fill="#E0E0E0"/>
<path d="M111.413 108.122H105.238V111.209H111.413V108.122Z" fill="#E0E0E0"/>
<path d="M111.413 117.503H105.238V120.591H111.413V117.503Z" fill="#E0E0E0"/>
<path d="M127.029 117.503H120.854V120.591H127.029V117.503Z" fill="#E0E0E0"/>
<path d="M111.413 123.738H105.238V126.825H111.413V123.738Z" fill="#E0E0E0"/>
<path d="M126.969 123.5H120.794V126.587H126.969V123.5Z" fill="#E0E0E0"/>
<path d="M126.969 108.3H120.794V111.388H126.969V108.3Z" fill="#E0E0E0"/>
<path d="M127.028 99.5125H119.844V102.6H127.028V99.5125Z" fill="#E0E0E0"/>
<path d="M95.144 99.5125H71.6909V102.6H95.144V99.5125Z" fill="#E0E0E0"/>
<path d="M85.644 109.903H71.6909V112.991H85.644V109.903Z" fill="#E0E0E0"/>
<path d="M95.144 117.266H71.6909V120.353H95.144V117.266Z" fill="#E0E0E0"/>
<path d="M84.1003 123.5H71.6909V126.587H84.1003V123.5Z" fill="#E0E0E0"/>
<path d="M130.472 148.556H116.459V155.681H130.472V148.556Z" fill="#039A38"/>
<path d="M127.028 58.8406H95.8564V61.8094H127.028V58.8406Z" fill="#E0E0E0"/>
<path d="M67.475 68.0437H59.875V71.0125H67.475V68.0437Z" fill="#E0E0E0"/>
<path d="M79.9439 73.0312H59.6377V76H79.9439V73.0312Z" fill="#E0E0E0"/>
<path d="M120.287 71.0181H127.887V68.0494H120.287V71.0181Z" fill="#E0E0E0"/>
<path d="M107.833 75.9352H128.14V72.9665H107.833V75.9352Z" fill="#E0E0E0"/>
<path d="M79.9439 82.1156H59.6377V85.0844H79.9439V82.1156Z" fill="#039A38"/>
<path d="M111.531 87.2812H59.6377V90.25H111.531V87.2812Z" fill="#E0E0E0"/>
<path d="M60.3501 57.3562H61.7157V62.225H60.3501V57.3562Z" fill="#263238"/>
<path d="M67.3563 57.3562V62.225H66.2282L64.0907 59.6125V62.225H62.7251V57.3562H63.8532L65.9907 59.9687V57.3562H67.3563Z" fill="#263238"/>
<path d="M73.2938 57.3562L71.2157 62.225H69.8501L67.772 57.3562H69.2563L70.5626 60.5625L71.9282 57.3562H73.2938Z" fill="#263238"/>
<path d="M73.2939 59.7906C73.2939 58.3063 74.4221 57.2375 76.0252 57.2375C77.6283 57.2375 78.7564 58.3063 78.7564 59.7906C78.7564 61.275 77.6283 62.3438 76.0252 62.3438C74.4221 62.3438 73.2939 61.275 73.2939 59.7906ZM77.3314 59.7906C77.3314 58.9594 76.7377 58.3656 76.0252 58.3656C75.3127 58.3656 74.7189 58.9 74.7189 59.7906C74.7189 60.6219 75.3127 61.1563 76.0252 61.1563C76.7377 61.2156 77.3314 60.6219 77.3314 59.7906Z" fill="#263238"/>
<path d="M79.4097 57.3562H80.7753V62.225H79.4097V57.3562Z" fill="#263238"/>
<path d="M81.5469 59.7906C81.5469 58.3063 82.675 57.2375 84.2188 57.2375C85.1094 57.2375 85.8219 57.5938 86.2969 58.1875L85.4062 58.9594C85.1094 58.6031 84.6937 58.3656 84.2781 58.3656C83.4469 58.3656 82.9125 58.9 82.9125 59.7906C82.9125 60.6219 83.4469 61.1563 84.2781 61.1563C84.7531 61.1563 85.1094 60.9781 85.4062 60.5625L86.2969 61.3344C85.8219 61.9281 85.1094 62.2844 84.2188 62.2844C82.675 62.3438 81.5469 61.275 81.5469 59.7906Z" fill="#263238"/>
<path d="M90.8689 61.1562V62.225H86.9502V57.3562H90.8096V58.425H88.3752V59.2562H90.5721V60.2656H88.3752V61.1562H90.8689Z" fill="#263238"/>
<path d="M55.4221 50.0531C55.4221 50.7656 54.8283 51.3594 54.1158 51.3594C53.4033 51.3594 52.8096 50.7656 52.8096 50.0531C52.8096 49.3406 53.4033 48.7469 54.1158 48.7469C54.8283 48.7469 55.4221 49.3406 55.4221 50.0531Z" fill="#E0E0E0"/>
<path d="M58.8659 50.0531C58.8659 50.7656 58.2722 51.3594 57.5597 51.3594C56.8472 51.3594 56.2534 50.7656 56.2534 50.0531C56.2534 49.3406 56.8472 48.7469 57.5597 48.7469C58.2722 48.7469 58.8659 49.3406 58.8659 50.0531Z" fill="#E0E0E0"/>
<path d="M62.2502 50.0531C62.2502 50.7656 61.6564 51.3594 60.9439 51.3594C60.2314 51.3594 59.6377 50.7656 59.6377 50.0531C59.6377 49.3406 60.2314 48.7469 60.9439 48.7469C61.6564 48.7469 62.2502 49.3406 62.2502 50.0531Z" fill="#E0E0E0"/>
<path d="M184.681 267.366L107.019 267.009C97.6969 266.95 90.1562 259.944 90.1562 251.394L90.9875 72.3188C91.0469 63.7094 98.6469 56.7625 107.969 56.8219L185.572 57.1188C194.894 57.1781 202.434 64.125 202.434 72.7344L201.603 251.809C201.603 260.419 194.062 267.366 184.681 267.366Z" fill="#263238"/>
<path d="M184.978 62.1063L169.956 62.0469L125.959 61.8688H120.675L107.494 61.8094C100.963 61.8094 95.6188 66.7375 95.6188 72.7938L94.7876 250.325C94.7876 256.441 100.013 261.428 106.603 261.428L184.088 261.784C190.619 261.784 195.963 256.856 195.963 250.741L196.794 73.2094C196.794 67.1531 191.509 62.1656 184.978 62.1063Z" fill="white"/>
<path d="M185.691 77.9C185.691 78.4344 185.275 78.85 184.741 78.85C184.207 78.85 183.791 78.4344 183.791 77.9C183.791 77.3656 184.207 76.95 184.741 76.95C185.275 76.95 185.691 77.3656 185.691 77.9Z" fill="#263238"/>
<path d="M185.691 81.4031C185.691 81.9375 185.275 82.3531 184.741 82.3531C184.207 82.3531 183.791 81.9375 183.791 81.4031C183.791 80.8688 184.207 80.4531 184.741 80.4531C185.216 80.4531 185.691 80.8688 185.691 81.4031Z" fill="#263238"/>
<path d="M185.691 84.9063C185.691 85.4406 185.275 85.8563 184.741 85.9156C184.206 85.9156 183.791 85.5 183.731 84.9656C183.731 84.4313 184.147 84.0156 184.681 83.9563C185.216 83.8969 185.691 84.3719 185.691 84.9063Z" fill="#263238"/>
<path d="M166.156 81.9969H122.635C121.744 81.9969 121.091 81.2844 121.091 80.4531C121.091 79.5625 121.803 78.9094 122.635 78.9094H166.156C167.047 78.9094 167.7 79.6219 167.7 80.4531C167.7 81.2844 166.988 81.9969 166.156 81.9969Z" fill="#E0E0E0"/>
<path d="M167.344 237.381H126.85C122.041 237.381 118.122 233.463 118.122 228.653V228.356C118.122 223.547 122.041 219.628 126.85 219.628H167.344C172.153 219.628 176.072 223.547 176.072 228.356V228.653C176.072 233.463 172.153 237.381 167.344 237.381Z" fill="#039A38"/>
<path d="M144.841 227.703C144.841 228.831 143.95 229.544 142.585 229.544H141.694V230.85H140.269V225.803H142.585C143.95 225.803 144.841 226.516 144.841 227.703ZM143.357 227.703C143.357 227.228 143.06 226.931 142.466 226.931H141.694V228.416H142.466C143.06 228.416 143.357 228.119 143.357 227.703Z" fill="white"/>
<path d="M148.641 229.9H146.504L146.088 230.909H144.604L146.86 225.862H148.285L150.541 230.909H149.057L148.641 229.9ZM148.225 228.831L147.572 227.228L146.919 228.831H148.225Z" fill="white"/>
<path d="M153.332 229.069V230.909H151.907V229.069L149.947 225.862H151.432L152.619 227.881L153.807 225.862H155.172L153.332 229.069Z" fill="white"/>
<path d="M181.119 113.822H106.188C105.653 113.822 105.297 113.406 105.297 112.931C105.297 112.397 105.713 112.041 106.188 112.041H181.119C181.653 112.041 182.009 112.456 182.009 112.931C182.069 113.406 181.653 113.822 181.119 113.822Z" fill="#263238"/>
<g opacity="0.3">
<path d="M187.175 188.278C184.8 181.747 183.672 174.8 183.672 167.794V130.684C183.672 118.334 173.815 112.872 173.815 112.872H106.128C106.128 112.872 115.984 118.334 115.984 130.684C115.984 143.034 115.984 174.266 115.984 174.266C115.984 174.266 116.459 201.875 130.115 204.666L195.606 204.547H202.078V200.272C198.1 197.303 189.253 193.919 187.175 188.278Z" fill="black"/>
</g>
<path d="M190.025 185.012C187.65 178.481 186.522 171.534 186.522 164.528V127.419C186.522 115.069 174.825 112.872 174.825 112.872H107.138C107.138 112.872 118.835 115.069 118.835 127.419C118.835 139.769 118.835 171 118.835 171C118.835 171 119.25 198.55 132.966 201.4L203.8 201.103C196.972 199.738 192.638 192.197 190.025 185.012Z" fill="white"/>
<path d="M190.025 185.012C190.025 185.012 190.203 185.487 190.559 186.378C190.916 187.269 191.45 188.575 192.281 190.237C193.113 191.9 194.3 193.919 196.022 195.997C196.913 197.006 197.981 198.075 199.228 198.966C200.475 199.856 202.019 200.628 203.741 200.984L204.453 201.162H203.681C187.591 201.222 162.772 201.4 132.847 201.519C129.997 200.925 127.503 199.144 125.722 196.769C123.881 194.453 122.634 191.662 121.625 188.812C120.616 185.962 119.963 182.934 119.488 179.847C119.013 176.759 118.656 173.612 118.656 170.406C118.656 157.641 118.656 144.222 118.656 130.387C118.656 129.378 118.656 128.428 118.656 127.419L118.597 125.934L118.538 125.222C118.478 124.984 118.478 124.747 118.419 124.509C118.122 122.609 117.409 120.769 116.341 119.166C115.272 117.562 113.847 116.197 112.303 115.187C110.7 114.119 108.919 113.347 107.138 112.931L105.772 112.634H107.138C131.897 112.634 154.875 112.634 174.825 112.634C176.309 112.931 177.675 113.525 178.922 114.237C180.228 114.95 181.416 115.781 182.366 116.791C184.444 118.75 185.691 121.362 186.225 124.034C186.759 126.706 186.522 129.319 186.581 131.872C186.581 134.425 186.581 136.859 186.581 139.234C186.581 148.794 186.581 157.106 186.522 163.934C186.463 170.763 187.472 176.106 188.363 179.609C188.778 181.391 189.253 182.697 189.491 183.588C189.669 184.003 189.728 184.359 189.847 184.597C189.966 184.894 190.025 185.012 190.025 185.012C190.025 185.012 189.847 184.537 189.55 183.647C189.253 182.756 188.838 181.45 188.363 179.669C187.472 176.166 186.403 170.822 186.463 163.934C186.463 157.106 186.463 148.794 186.403 139.234C186.403 136.859 186.403 134.366 186.403 131.872C186.344 129.319 186.581 126.706 186.047 124.094C185.513 121.481 184.325 118.928 182.247 117.028C181.238 116.019 180.109 115.187 178.863 114.534C177.616 113.881 176.25 113.287 174.825 112.991C154.875 112.991 131.838 112.991 107.138 112.991V112.694C109.038 113.109 110.819 113.881 112.422 114.95C114.025 116.019 115.509 117.384 116.578 119.047C117.647 120.709 118.419 122.55 118.716 124.509C118.775 124.747 118.834 124.984 118.834 125.222L118.894 125.934L118.953 127.419C118.953 128.428 118.953 129.378 118.953 130.387C118.953 144.163 118.953 157.581 118.953 170.406C119.013 173.612 119.309 176.759 119.784 179.787C120.259 182.875 120.972 185.844 121.922 188.694C122.872 191.544 124.178 194.275 125.959 196.591C127.741 198.906 130.175 200.628 132.906 201.222C162.891 201.103 187.65 201.044 203.741 200.984V201.162C201.959 200.806 200.416 200.034 199.169 199.144C197.863 198.194 196.853 197.184 195.963 196.116C194.241 193.978 193.053 191.959 192.222 190.297C191.391 188.634 190.856 187.269 190.5 186.378C190.203 185.487 190.025 185.012 190.025 185.012Z" fill="#263238"/>
<path d="M206.116 201.103C210.866 197.659 213.953 191.959 214.31 186.141L137.775 185.844C138.191 189.406 137.775 193.028 136.588 196.412C135.935 198.372 134.925 200.272 133.263 201.459L206.116 201.103Z" fill="#E0E0E0"/>
<path d="M206.116 201.103C206.116 201.103 205.997 201.103 205.759 201.103C205.522 201.103 205.166 201.103 204.691 201.103C203.741 201.103 202.375 201.103 200.594 201.162C197.031 201.162 191.806 201.222 185.334 201.281C172.331 201.341 154.103 201.459 133.263 201.578H132.788L133.203 201.281C134.272 200.509 135.103 199.381 135.697 198.194C136.291 196.947 136.706 195.641 137.063 194.275C137.716 191.544 137.953 188.694 137.656 185.844V185.666H137.834C138.547 185.666 139.319 185.666 140.091 185.666C170.728 185.844 197.863 185.962 214.428 186.022H214.547V186.141C214.369 188.931 213.597 191.366 212.706 193.325C211.756 195.284 210.688 196.828 209.678 197.956C208.669 199.084 207.838 199.856 207.184 200.391C206.472 200.925 206.116 201.103 206.116 201.103C206.116 201.103 206.175 201.044 206.353 200.925C206.531 200.806 206.769 200.628 207.066 200.391C207.659 199.856 208.491 199.084 209.5 197.956C210.45 196.828 211.519 195.284 212.469 193.325C213.359 191.366 214.131 188.931 214.309 186.141L214.428 186.259C197.863 186.2 170.728 186.141 140.091 186.022C139.319 186.022 138.547 186.022 137.834 186.022L138.013 185.844C138.309 188.753 138.131 191.662 137.419 194.394C137.063 195.759 136.647 197.125 136.053 198.372C135.459 199.619 134.569 200.806 133.441 201.578L133.381 201.281C154.222 201.222 172.391 201.163 185.394 201.103C191.866 201.103 197.091 201.103 200.713 201.103C202.494 201.103 203.859 201.103 204.809 201.103C205.284 201.103 205.641 201.103 205.878 201.103C205.997 201.103 206.116 201.103 206.116 201.103Z" fill="#263238"/>
<path d="M177.675 127.181C177.675 127.241 166.334 127.359 152.381 127.359C138.428 127.359 127.087 127.3 127.087 127.181C127.087 127.122 138.428 127.003 152.381 127.003C166.394 127.062 177.675 127.122 177.675 127.181Z" fill="#263238"/>
<path d="M177.675 137.987C177.675 138.047 166.334 138.166 152.381 138.166C138.428 138.166 127.087 138.106 127.087 137.987C127.087 137.928 138.428 137.809 152.381 137.809C166.394 137.809 177.675 137.869 177.675 137.987Z" fill="#263238"/>
<path d="M180.703 167.616C180.703 167.675 168.709 167.794 153.925 167.794C139.141 167.794 127.147 167.734 127.147 167.616C127.147 167.556 139.141 167.438 153.925 167.438C168.709 167.497 180.703 167.556 180.703 167.616Z" fill="#263238"/>
<path d="M146.444 122.728C146.444 123.619 145.731 124.094 144.366 124.094H141.634V119.047H144.247C145.553 119.047 146.206 119.581 146.206 120.353C146.206 120.828 145.969 121.244 145.553 121.481C146.087 121.659 146.444 122.075 146.444 122.728ZM143.059 120.056V121.006H144.069C144.544 121.006 144.781 120.828 144.781 120.531C144.781 120.234 144.544 120.056 144.069 120.056H143.059ZM145.019 122.55C145.019 122.194 144.781 122.016 144.247 122.016H143.059V123.025H144.247C144.722 123.084 145.019 122.906 145.019 122.55Z" fill="#263238"/>
<path d="M147.215 119.047H148.64V124.094H147.215V119.047Z" fill="#263238"/>
<path d="M149.65 119.047H151.075V122.966H153.509V124.094H149.65V119.047Z" fill="#263238"/>
<path d="M154.043 119.047H155.468V122.966H157.903V124.094H154.043V119.047Z" fill="#263238"/>
<path d="M153.45 131.1H127.8V134.959H153.45V131.1Z" fill="#E0E0E0"/>
<path d="M179.041 131.1H163.781V134.959H179.041V131.1Z" fill="#E0E0E0"/>
<path d="M152.381 142.678H127.8V146.537H152.381V142.678Z" fill="#E0E0E0"/>
<path d="M138.072 150.931H127.8V154.791H138.072V150.931Z" fill="#E0E0E0"/>
<path d="M144.484 158.531H127.8V162.391H144.484V158.531Z" fill="#E0E0E0"/>
<path d="M181.772 179.491H129.759V183.35H181.772V179.491Z" fill="#E0E0E0"/>
<path d="M179.397 142.678H171.916V146.537H179.397V142.678Z" fill="#039A38"/>
<path d="M179.397 150.041H171.916V153.9H179.397V150.041Z" fill="#039A38"/>
<path d="M179.397 158.234H171.916V162.094H179.397V158.234Z" fill="#039A38"/>
<path d="M179.278 171.059H168.947V174.919H179.278V171.059Z" fill="#039A38"/>
<g opacity="0.3">
<path d="M224.878 95L176.844 94.2875C174.231 94.2875 172.094 92.15 172.094 89.5375V57.0594H207.184C216.566 57.0594 225.056 63.0562 225.056 73.9812L224.878 95Z" fill="black"/>
</g>
<path d="M179.278 37.8812H256.525C257.891 37.8812 258.959 38.95 258.959 40.3156V87.5187C258.959 88.8844 257.891 89.9531 256.525 89.9531H179.278C177.913 89.9531 176.844 88.8844 176.844 87.5187V40.375C176.844 39.0094 177.913 37.8812 179.278 37.8812Z" fill="#039A38"/>
<path d="M190.322 49.8156C190.322 50.4687 189.787 50.8844 188.778 50.8844H186.759V47.025H188.659C189.609 47.025 190.144 47.4406 190.144 48.0344C190.144 48.3906 189.966 48.7469 189.609 48.8656C190.084 48.9844 190.381 49.3406 190.322 49.8156ZM187.709 47.6781V48.5687H188.6C189.016 48.5687 189.253 48.3906 189.253 48.0937C189.253 47.7969 189.016 47.6187 188.6 47.6187H187.709V47.6781ZM189.431 49.6969C189.431 49.4 189.194 49.2219 188.719 49.2219H187.65V50.1719H188.719C189.194 50.1719 189.431 50.0531 189.431 49.6969Z" fill="white"/>
<path d="M193.588 50.0531H191.806L191.45 50.8844H190.56L192.281 47.025H193.172L194.894 50.8844H193.944L193.588 50.0531ZM193.291 49.3406L192.697 47.8562L192.103 49.3406H193.291Z" fill="white"/>
<path d="M198.753 47.025V50.8844H198.041L196.141 48.5687V50.8844H195.25V47.025H195.962L197.862 49.3406V47.025H198.753Z" fill="white"/>
<path d="M201.069 49.3406L200.534 49.9344V50.8844H199.644V47.025H200.534V48.8062L202.256 47.025H203.265L201.662 48.7469L203.384 50.8844H202.315L201.069 49.3406Z" fill="white"/>
<path d="M189.609 65.8469H188.897V66.7969H188.54V65.8469H186.581V65.6094L188.481 63.2344H188.897L187.115 65.4906H188.659V64.7188H189.015V65.55H189.728V65.8469H189.609Z" fill="white"/>
<path d="M192.222 65.7875C192.222 66.3813 191.806 66.8562 190.916 66.8562C190.441 66.8562 189.966 66.7375 189.609 66.3813L189.787 66.0844C190.084 66.3813 190.5 66.5 190.856 66.5C191.45 66.5 191.747 66.2031 191.747 65.7875C191.747 65.3719 191.45 65.075 190.797 65.075H190.559V64.7781L191.569 63.5312H189.728V63.2344H191.984V63.4719L190.975 64.7188C191.866 64.8375 192.222 65.1938 192.222 65.7875Z" fill="white"/>
<path d="M195.072 65.7281C195.072 66.3219 194.656 66.7969 193.765 66.7969C193.29 66.7969 192.815 66.6781 192.519 66.3219L192.697 66.025C192.994 66.3219 193.35 66.4406 193.765 66.4406C194.359 66.4406 194.715 66.1437 194.715 65.7281C194.715 65.3125 194.419 65.0156 193.528 65.0156H192.756L192.934 63.2344H194.894V63.5312H193.29L193.172 64.6594H193.647C194.656 64.7188 195.072 65.1344 195.072 65.7281Z" fill="white"/>
<path d="M198.219 65.7281C198.219 66.3219 197.684 66.8562 197.091 66.7969C197.031 66.7969 197.031 66.7969 196.972 66.7969C196.022 66.7969 195.547 66.1437 195.547 65.0156C195.547 63.8281 196.2 63.175 197.15 63.175C197.447 63.175 197.744 63.2344 197.981 63.3531L197.862 63.65C197.684 63.5312 197.447 63.4719 197.15 63.4719C196.378 63.4719 195.903 63.9469 195.903 64.8969C195.903 64.9562 195.903 65.075 195.903 65.1937C196.141 64.7781 196.556 64.5406 196.972 64.6C197.566 64.5406 198.1 64.9562 198.159 65.55C198.219 65.6094 198.219 65.6687 198.219 65.7281ZM197.862 65.7281C197.862 65.2531 197.506 64.9562 196.972 64.9562C196.497 64.8969 196.141 65.2531 196.081 65.6687V65.7281C196.081 66.1437 196.378 66.5 197.031 66.5C197.447 66.5594 197.862 66.2625 197.922 65.8469C197.862 65.7875 197.862 65.7875 197.862 65.7281Z" fill="white"/>
<path d="M205.878 66.7969L205.047 65.6687L204.215 66.7969H203.8L204.869 65.4312L203.8 64.125H204.215L204.987 65.1344L205.759 64.125H206.175L205.165 65.4312L206.234 66.7969H205.878Z" fill="white"/>
<path d="M208.55 66.7969L207.659 65.6687L206.828 66.7969H206.413L207.481 65.4312L206.472 64.125H206.888L207.659 65.1344L208.431 64.125H208.847L207.838 65.4312L208.906 66.7969H208.55Z" fill="white"/>
<path d="M211.281 66.7969L210.45 65.6687L209.619 66.7969H209.144L210.212 65.4312L209.203 64.125H209.619L210.45 65.1344L211.222 64.125H211.637L210.628 65.4312L211.697 66.7969H211.281Z" fill="white"/>
<path d="M213.953 66.7969L213.122 65.6687L212.231 66.7969H211.815L212.884 65.4312L211.875 64.125H212.29L213.062 65.1344L213.894 64.125H214.309L213.3 65.4312L214.369 66.7969H213.953Z" fill="white"/>
<path d="M223.275 66.7969L222.444 65.6687L221.612 66.7969H221.197L222.266 65.4312L221.256 64.125H221.672L222.444 65.1344L223.216 64.125H223.631L222.622 65.4312L223.691 66.7969H223.275Z" fill="white"/>
<path d="M226.006 66.7969L225.175 65.6687L224.344 66.7969H223.928L224.997 65.4312L223.988 64.125H224.403L225.175 65.1344L225.947 64.125H226.363L225.353 65.4312L226.422 66.7969H226.006Z" fill="white"/>
<path d="M228.678 66.7969L227.847 65.6687L227.016 66.7969H226.6L227.669 65.4312L226.659 64.125H227.075L227.847 65.1344L228.619 64.125H229.034L228.025 65.4312L229.094 66.7969H228.678Z" fill="white"/>
<path d="M231.409 66.7969L230.578 65.6687L229.747 66.7969H229.331L230.4 65.4312L229.45 64.125H229.865L230.697 65.1344L231.469 64.125H231.884L230.875 65.4312L231.944 66.7969H231.409Z" fill="white"/>
<path d="M239.781 63.2344V66.7969H239.425V63.5906H238.594V63.2937H239.781V63.2344Z" fill="white"/>
<path d="M242.928 65.7875C242.928 66.3813 242.512 66.8562 241.622 66.8562C241.147 66.8562 240.672 66.7375 240.315 66.3813L240.494 66.0844C240.79 66.3813 241.206 66.5 241.562 66.5C242.156 66.5 242.453 66.2031 242.453 65.7875C242.453 65.3719 242.156 65.075 241.503 65.075H241.265V64.7781L242.275 63.5312H240.434V63.2344H242.69V63.4719L241.681 64.7188C242.572 64.8375 242.928 65.1938 242.928 65.7875Z" fill="white"/>
<path d="M246.491 65.8469H245.778V66.7969H245.422V65.8469H243.403V65.6094L245.303 63.2344H245.719L243.938 65.4906H245.481V64.7188H245.838V65.55H246.55V65.8469H246.491Z" fill="white"/>
<path d="M249.222 66.4406V66.7375H246.728V66.5L248.213 65.075C248.628 64.6594 248.688 64.4219 248.688 64.1844C248.688 63.7687 248.391 63.5312 247.856 63.5312C247.5 63.5312 247.144 63.65 246.906 63.9469L246.669 63.7094C246.966 63.3531 247.441 63.175 247.916 63.175C248.628 63.175 249.103 63.5312 249.103 64.125C249.103 64.5406 248.866 64.9562 248.51 65.2531L247.322 66.4406H249.222Z" fill="white"/>
<path d="M184.741 74.1C184.741 73.625 185.097 73.2094 185.572 73.2094H185.631C185.869 73.2094 186.166 73.3281 186.344 73.5062L186.106 73.7437C185.988 73.625 185.869 73.5656 185.691 73.5656C185.394 73.5656 185.156 73.8031 185.156 74.1C185.156 74.3969 185.394 74.6344 185.691 74.6344C185.869 74.6344 185.988 74.575 186.106 74.4562L186.344 74.6937C186.166 74.8719 185.928 74.9906 185.631 74.9906C185.156 75.05 184.741 74.6344 184.741 74.1C184.741 74.1594 184.741 74.1594 184.741 74.1Z" fill="white"/>
<path d="M187.709 74.6344H186.938L186.759 74.9906H186.344L187.116 73.2687H187.531L188.303 74.9906H187.888L187.709 74.6344ZM187.591 74.3375L187.294 73.6844L186.997 74.3375H187.591Z" fill="white"/>
<path d="M189.49 74.9906L189.134 74.5156H188.778V74.9906H188.362V73.2687H189.075C189.55 73.2687 189.787 73.5062 189.787 73.8625C189.787 74.1 189.669 74.2781 189.431 74.3969L189.787 74.9312L189.49 74.9906ZM189.134 73.625H188.837V74.2187H189.134C189.372 74.2187 189.49 74.1 189.49 73.9219C189.49 73.6844 189.372 73.625 189.134 73.625Z" fill="white"/>
<path d="M190.084 74.8125L190.203 74.5156C190.381 74.6344 190.559 74.6937 190.797 74.6937C191.034 74.6937 191.094 74.6344 191.094 74.5156C191.094 74.2187 190.084 74.3969 190.084 73.8031C190.084 73.5062 190.322 73.2687 190.797 73.2687C190.975 73.2687 191.213 73.3281 191.391 73.3875L191.272 73.6844C191.153 73.625 190.975 73.5656 190.797 73.5656C190.559 73.5656 190.5 73.625 190.5 73.7437C190.5 74.0406 191.509 73.8625 191.509 74.4562C191.509 74.7531 191.272 74.9906 190.797 74.9906C190.5 74.9906 190.263 74.9312 190.084 74.8125Z" fill="white"/>
<path d="M194.003 73.2687V74.9906H193.587V74.2781H192.816V74.9906H192.4V73.2687H192.816V73.9219H193.587V73.2687H194.003Z" fill="white"/>
<path d="M194.3 74.1C194.3 73.5656 194.656 73.15 195.19 73.15C195.725 73.15 196.14 73.5062 196.14 74.0406C196.14 74.575 195.784 74.9906 195.25 74.9906H195.19C194.715 75.05 194.3 74.6344 194.3 74.1C194.3 74.1594 194.3 74.1594 194.3 74.1ZM195.725 74.1C195.725 73.8031 195.487 73.5656 195.19 73.5656C194.894 73.5656 194.656 73.8031 194.656 74.1C194.656 74.3969 194.894 74.6344 195.19 74.6344C195.487 74.6937 195.725 74.4562 195.725 74.1C195.725 74.1594 195.725 74.1594 195.725 74.1Z" fill="white"/>
<path d="M196.438 73.2687H196.853V74.6344H197.684V74.9312H196.438V73.2687Z" fill="white"/>
<path d="M197.862 73.2687H198.634C199.109 73.2687 199.465 73.625 199.465 74.1C199.465 74.575 199.109 74.9312 198.634 74.9312H197.862V73.2687ZM198.634 74.6344C198.931 74.6344 199.169 74.3969 199.169 74.1C199.169 73.8031 198.931 73.5656 198.634 73.5656H198.278V74.6344H198.634Z" fill="white"/>
<path d="M201.188 74.6344V74.9312H199.881V73.2094H201.128V73.5062H200.238V73.8625H201.009V74.1594H200.238V74.575L201.188 74.6344Z" fill="white"/>
<path d="M202.553 74.9906L202.197 74.5156H201.84V74.9906H201.425V73.2687H202.137C202.612 73.2687 202.85 73.5062 202.85 73.8625C202.85 74.1 202.731 74.2781 202.494 74.3969L202.85 74.9312L202.553 74.9906ZM202.197 73.625H201.9V74.2187H202.197C202.434 74.2187 202.553 74.1 202.553 73.9219C202.553 73.6844 202.434 73.625 202.197 73.625Z" fill="white"/>
<path d="M185.275 79.1469H208.55C209.025 79.1469 209.441 79.5625 209.441 80.0375V80.3937C209.441 80.8687 209.025 81.2844 208.55 81.2844H185.275C184.8 81.2844 184.385 80.8687 184.385 80.3937V80.0375C184.325 79.5625 184.741 79.1469 185.275 79.1469Z" fill="white"/>
<path d="M237.822 79.1469H249.934C250.409 79.1469 250.825 79.5625 250.825 80.0375V80.3937C250.825 80.8687 250.409 81.2844 249.934 81.2844H237.822C237.347 81.2844 236.931 80.8687 236.931 80.3937V80.0375C236.931 79.5625 237.287 79.1469 237.822 79.1469Z" fill="white"/>
<g opacity="0.2">
<path d="M256.287 37.8812H179.575C178.091 37.8812 176.844 39.0687 176.844 40.6125V54.3875C181.713 57.7719 188.362 58.3656 194.241 57.1187C201.187 55.6937 207.481 52.0719 214.013 49.1625C220.484 46.2531 227.609 43.8781 234.616 45.125C241.206 46.2531 246.847 50.35 252.844 53.4375C254.803 54.4469 256.881 55.2781 258.959 55.9312V40.6125C258.959 39.1281 257.772 37.8812 256.287 37.8812Z" fill="white"/>
</g>
<path d="M240.969 45.125H245.006C246.016 45.125 246.788 45.9563 246.788 46.9062V50.9437C246.788 51.9531 245.956 52.725 245.006 52.725H240.969C239.959 52.725 239.188 51.8937 239.188 50.9437V46.9062C239.128 45.9563 239.959 45.125 240.969 45.125Z" fill="white"/>
</svg>
