<svg width="209" height="200" viewBox="0 0 209 200" fill="none" xmlns="http://www.w3.org/2000/svg">
<g clip-path="url(#clip0_555_1387)">
<path d="M31.8587 98.2127C-8.4451 121.492 -8.4451 159.249 31.8587 182.529C72.1626 205.809 137.533 205.809 177.882 182.529C218.186 159.249 218.186 121.492 177.882 98.2127C137.533 74.933 72.1626 74.933 31.8587 98.2127Z" fill="#F5F5F5"/>
<path d="M177.927 149.866L123.146 181.501C118.052 184.45 109.786 184.45 104.692 181.501L24.531 135.165C21.5372 133.423 21.5372 130.608 24.531 128.91L79.312 97.2743C84.4058 94.3252 92.6722 94.3252 97.766 97.2743L177.972 143.566C180.921 145.308 180.921 148.123 177.927 149.866Z" fill="#E0E0E0"/>
<path d="M29.0437 79.7587L33.8694 129.312L91.5102 100.715V43.6997L29.0437 79.7587ZM81.2778 59.2046C81.5459 58.9812 81.814 58.7578 82.1268 58.5791L83.7354 57.6407C84.0928 57.4173 84.4503 57.2833 84.7631 57.2386C84.8525 57.5067 84.8971 57.8195 84.8971 58.1769V63.3154C84.8971 63.6729 84.8525 64.075 84.7631 64.4325C84.4056 65.9964 83.2886 67.605 81.9928 68.3646L80.4736 69.2582C80.1161 69.4817 79.7586 69.6157 79.4458 69.6604C79.3565 69.3923 79.3118 69.0795 79.3118 68.7667L79.2671 63.6282C79.2224 62.0643 80.0714 60.3217 81.2778 59.2046ZM67.2475 67.2922C67.5156 67.0241 67.7836 66.8007 68.0964 66.6666L69.705 65.7283C70.0625 65.5049 70.4199 65.3708 70.7327 65.3262C70.8221 65.5943 70.8668 65.907 70.8668 66.2645V71.403C70.8668 71.7605 70.8221 72.1626 70.7327 72.5648C70.3306 74.1287 69.2582 75.7372 67.9624 76.4968L66.4432 77.3458C66.0857 77.5692 65.7282 77.7033 65.3708 77.748C65.2814 77.4799 65.2367 77.1671 65.2367 76.8096L65.192 71.6711C65.192 70.1519 66.041 68.4093 67.2475 67.2922ZM53.7086 75.067C53.9767 74.8436 54.2448 74.6202 54.5129 74.4861L56.1214 73.5478C56.5236 73.3244 56.8811 73.1903 57.1938 73.1456C57.2832 73.4137 57.3279 73.6818 57.3279 74.0393L57.4172 79.2225C57.4172 79.58 57.3726 79.9374 57.2832 80.2949C56.9257 81.8141 55.8534 83.4227 54.5576 84.1823L53.0383 85.0312C52.6362 85.2547 52.2787 85.3887 51.9213 85.4334C51.8319 85.1653 51.7872 84.8972 51.7872 84.5844L51.6085 79.4012C51.6532 77.9267 52.5021 76.1841 53.7086 75.067ZM38.4718 92.3592L38.2037 87.176C38.1143 85.7462 38.9633 83.9589 40.1697 82.8865C40.3931 82.6631 40.6612 82.4843 40.9293 82.3503L42.5379 81.4119C42.94 81.1885 43.3422 81.0545 43.6996 81.0098C43.789 81.2332 43.8337 81.5013 43.8337 81.8141L44.0571 86.9973C44.0571 87.3548 44.0571 87.6675 43.9677 88.025C43.655 89.5442 42.5826 91.1081 41.2868 91.8677L39.8122 92.7167C39.4101 92.9401 39.008 93.0741 38.6505 93.1188C38.5611 92.8954 38.5164 92.6273 38.4718 92.3592ZM47.7211 106.836L47.453 101.653C47.3636 100.223 48.2126 98.4361 49.419 97.3637C49.6425 97.1403 49.9105 96.9615 50.1786 96.8275L51.7872 95.8892C52.1894 95.6657 52.5915 95.5317 52.949 95.487C53.0383 95.7104 53.083 95.9785 53.083 96.2913L53.3064 101.475C53.3064 101.832 53.3064 102.189 53.2171 102.502C52.9043 104.021 51.8319 105.585 50.5361 106.345L49.0616 107.194C48.6594 107.417 48.2573 107.551 47.8998 107.596C47.7658 107.373 47.7211 107.105 47.7211 106.836ZM61.0812 99.0616L60.9472 93.8784C60.9025 92.4039 61.7515 90.6166 62.9579 89.5442C63.226 89.3208 63.4941 89.0974 63.7622 88.9633L65.3708 88.025C65.7729 87.8016 66.1304 87.6675 66.4432 87.6229C66.5325 87.8909 66.5772 88.159 66.5772 88.5165L66.6666 93.655C66.6666 94.0125 66.6219 94.3699 66.5325 94.7274C66.1751 96.2913 65.1027 97.8552 63.8069 98.6148L62.2877 99.4638C61.8855 99.6872 61.5281 99.8212 61.1706 99.8659C61.1259 99.6425 61.0812 99.3744 61.0812 99.0616ZM74.4861 91.2868L74.4414 86.1483C74.4414 84.6291 75.2904 82.8865 76.4521 81.7694C76.7202 81.5013 76.9883 81.3226 77.3011 81.1439L78.9097 80.2055C79.2671 79.9821 79.6246 79.8481 79.9374 79.8034C80.0267 80.0715 80.0714 80.3842 80.0714 80.7417V85.8802C80.0714 86.2377 80.0267 86.6398 79.9374 86.9973C79.5799 88.5612 78.4628 90.1698 77.167 90.9294L75.6478 91.7783C75.2904 92.0018 74.9329 92.1358 74.5754 92.1805C74.5307 91.9571 74.4861 91.6443 74.4861 91.2868Z" fill="#039A38"/>
<path opacity="0.6" d="M29.0437 79.7587L33.8694 129.312L91.5102 100.715V43.6997L29.0437 79.7587ZM81.2778 59.2046C81.5459 58.9812 81.814 58.7578 82.1268 58.5791L83.7354 57.6407C84.0928 57.4173 84.4503 57.2833 84.7631 57.2386C84.8525 57.5067 84.8971 57.8195 84.8971 58.1769V63.3154C84.8971 63.6729 84.8525 64.075 84.7631 64.4325C84.4056 65.9964 83.2886 67.605 81.9928 68.3646L80.4736 69.2582C80.1161 69.4817 79.7586 69.6157 79.4458 69.6604C79.3565 69.3923 79.3118 69.0795 79.3118 68.7667L79.2671 63.6282C79.2224 62.0643 80.0714 60.3217 81.2778 59.2046ZM67.2475 67.2922C67.5156 67.0241 67.7836 66.8007 68.0964 66.6666L69.705 65.7283C70.0625 65.5049 70.4199 65.3708 70.7327 65.3262C70.8221 65.5943 70.8668 65.907 70.8668 66.2645V71.403C70.8668 71.7605 70.8221 72.1626 70.7327 72.5648C70.3306 74.1287 69.2582 75.7372 67.9624 76.4968L66.4432 77.3458C66.0857 77.5692 65.7282 77.7033 65.3708 77.748C65.2814 77.4799 65.2367 77.1671 65.2367 76.8096L65.192 71.6711C65.192 70.1519 66.041 68.4093 67.2475 67.2922ZM53.7086 75.067C53.9767 74.8436 54.2448 74.6202 54.5129 74.4861L56.1214 73.5478C56.5236 73.3244 56.8811 73.1903 57.1938 73.1456C57.2832 73.4137 57.3279 73.6818 57.3279 74.0393L57.4172 79.2225C57.4172 79.58 57.3726 79.9374 57.2832 80.2949C56.9257 81.8141 55.8534 83.4227 54.5576 84.1823L53.0383 85.0312C52.6362 85.2547 52.2787 85.3887 51.9213 85.4334C51.8319 85.1653 51.7872 84.8972 51.7872 84.5844L51.6085 79.4012C51.6532 77.9267 52.5021 76.1841 53.7086 75.067ZM38.4718 92.3592L38.2037 87.176C38.1143 85.7462 38.9633 83.9589 40.1697 82.8865C40.3931 82.6631 40.6612 82.4843 40.9293 82.3503L42.5379 81.4119C42.94 81.1885 43.3422 81.0545 43.6996 81.0098C43.789 81.2332 43.8337 81.5013 43.8337 81.8141L44.0571 86.9973C44.0571 87.3548 44.0571 87.6675 43.9677 88.025C43.655 89.5442 42.5826 91.1081 41.2868 91.8677L39.8122 92.7167C39.4101 92.9401 39.008 93.0741 38.6505 93.1188C38.5611 92.8954 38.5164 92.6273 38.4718 92.3592ZM47.7211 106.836L47.453 101.653C47.3636 100.223 48.2126 98.4361 49.419 97.3637C49.6425 97.1403 49.9105 96.9615 50.1786 96.8275L51.7872 95.8892C52.1894 95.6657 52.5915 95.5317 52.949 95.487C53.0383 95.7104 53.083 95.9785 53.083 96.2913L53.3064 101.475C53.3064 101.832 53.3064 102.189 53.2171 102.502C52.9043 104.021 51.8319 105.585 50.5361 106.345L49.0616 107.194C48.6594 107.417 48.2573 107.551 47.8998 107.596C47.7658 107.373 47.7211 107.105 47.7211 106.836ZM61.0812 99.0616L60.9472 93.8784C60.9025 92.4039 61.7515 90.6166 62.9579 89.5442C63.226 89.3208 63.4941 89.0974 63.7622 88.9633L65.3708 88.025C65.7729 87.8016 66.1304 87.6675 66.4432 87.6229C66.5325 87.8909 66.5772 88.159 66.5772 88.5165L66.6666 93.655C66.6666 94.0125 66.6219 94.3699 66.5325 94.7274C66.1751 96.2913 65.1027 97.8552 63.8069 98.6148L62.2877 99.4638C61.8855 99.6872 61.5281 99.8212 61.1706 99.8659C61.1259 99.6425 61.0812 99.3744 61.0812 99.0616ZM74.4861 91.2868L74.4414 86.1483C74.4414 84.6291 75.2904 82.8865 76.4521 81.7694C76.7202 81.5013 76.9883 81.3226 77.3011 81.1439L78.9097 80.2055C79.2671 79.9821 79.6246 79.8481 79.9374 79.8034C80.0267 80.0715 80.0714 80.3842 80.0714 80.7417V85.8802C80.0714 86.2377 80.0267 86.6398 79.9374 86.9973C79.5799 88.5612 78.4628 90.1698 77.167 90.9294L75.6478 91.7783C75.2904 92.0018 74.9329 92.1358 74.5754 92.1805C74.5307 91.9571 74.4861 91.6443 74.4861 91.2868Z" fill="white"/>
<path d="M55.0489 102.547C55.0489 102.905 55.0489 103.262 54.9595 103.62C54.6468 105.139 53.5744 106.703 52.2786 107.462L50.804 108.311C49.4636 109.071 48.3018 108.758 47.855 107.596C48.2124 107.552 48.6146 107.418 49.0167 107.194L50.4913 106.345C51.7871 105.586 52.8594 104.022 53.1722 102.503C53.2616 102.145 53.2616 101.788 53.2616 101.475L53.0382 96.2917C53.0382 95.9789 52.9935 95.7108 52.9041 95.4874C53.9765 95.3534 54.7361 96.113 54.7808 97.4088L55.0489 102.547Z" fill="#039A38"/>
<path d="M45.8443 88.07C45.8443 88.4275 45.8443 88.7402 45.755 89.1424C45.4422 90.6616 44.3698 92.2255 43.074 92.9851L41.5548 93.8341C40.2143 94.5937 39.0079 94.2809 38.6057 93.1191C38.9632 93.0745 39.3653 92.9404 39.7675 92.717L41.242 91.868C42.5378 91.1084 43.6102 89.5445 43.923 88.0253C44.0123 87.6678 44.0123 87.3104 44.0123 86.9976L43.8783 81.7697C43.8783 81.4569 43.8336 81.1888 43.7442 80.9654C44.8166 80.8314 45.5762 81.591 45.6209 82.8868L45.8443 88.07Z" fill="#039A38"/>
<path d="M81.8587 81.8592V86.9977C81.8587 87.3551 81.814 87.7573 81.7247 88.1147C81.3672 89.6786 80.2501 91.2872 78.9543 92.0468L77.4351 92.9405C76.1393 93.7001 75.0223 93.3426 74.6201 92.1809C74.9329 92.1362 75.2904 92.0021 75.6925 91.7787L77.2117 90.9298C78.5075 90.1701 79.6246 88.5616 79.982 86.9977C80.0714 86.5955 80.1161 86.2381 80.1161 85.8806V80.7421C80.1161 80.3846 80.0714 80.0718 79.982 79.8038C81.0544 79.6697 81.8587 80.4293 81.8587 81.8592Z" fill="#039A38"/>
<path d="M86.6844 59.2942V64.4327C86.6844 64.7902 86.6397 65.1923 86.5504 65.5498C86.1929 67.1137 85.0758 68.7223 83.78 69.4819L82.2608 70.3755C80.965 71.1351 79.8479 70.7777 79.4458 69.6606C79.7586 69.6159 80.116 69.4819 80.4735 69.2585L81.9927 68.3648C83.2885 67.6052 84.4056 65.9966 84.763 64.4327C84.8524 64.0306 84.8971 63.6731 84.8971 63.3157V58.1771C84.8971 57.8197 84.8524 57.5069 84.763 57.2388C85.8801 57.1048 86.6844 57.8644 86.6844 59.2942Z" fill="#039A38"/>
<path d="M59.2491 80.34C59.2491 80.6974 59.2044 81.0549 59.1151 81.4124C58.7576 82.9316 57.6852 84.5402 56.3894 85.2998L54.8702 86.1487C53.5297 86.9083 52.4126 86.5956 52.0105 85.4338C52.368 85.3891 52.7254 85.2551 53.1276 85.0317L54.6468 84.1827C55.9426 83.4231 57.015 81.8592 57.3724 80.2953C57.4618 79.9378 57.5065 79.5357 57.5065 79.2229L57.4171 74.0397C57.4171 73.7269 57.3724 73.4142 57.2831 73.1461C58.3554 73.012 59.1597 73.7716 59.1597 75.1568L59.2491 80.34Z" fill="#039A38"/>
<path d="M68.4537 94.7723C68.4537 95.1298 68.409 95.4873 68.3196 95.8447C67.9622 97.4086 66.8898 98.9725 65.594 99.7321L64.0748 100.581C62.7343 101.341 61.6172 101.028 61.2151 99.8662C61.5725 99.8215 61.93 99.6874 62.3322 99.464L63.8514 98.6151C65.1472 97.8555 66.2196 96.2916 66.577 94.7277C66.6664 94.3702 66.7111 94.0127 66.7111 93.6553L66.6217 88.5168C66.6217 88.1593 66.577 87.8912 66.4877 87.6231C67.56 87.4891 68.3643 88.2487 68.3643 89.6338L68.4537 94.7723Z" fill="#039A38"/>
<path d="M72.6539 67.3816V72.5201C72.6539 72.8776 72.6092 73.2797 72.5198 73.6372C72.1177 75.2011 71.0453 76.8096 69.7495 77.5693L68.2303 78.4182C66.9345 79.1778 65.8174 78.8204 65.4153 77.7033C65.7281 77.6586 66.0855 77.5246 66.4877 77.3012L68.0069 76.4522C69.3027 75.6926 70.3751 74.084 70.7772 72.5201C70.8666 72.118 70.9113 71.7605 70.9113 71.3583V66.2198C70.9113 65.8624 70.8666 65.5496 70.7772 65.2815C71.8496 65.1921 72.6539 65.9517 72.6539 67.3816Z" fill="#039A38"/>
<path opacity="0.2" d="M55.0489 102.547C55.0489 102.905 55.0489 103.262 54.9595 103.62C54.6468 105.139 53.5744 106.703 52.2786 107.462L50.804 108.311C49.4636 109.071 48.3018 108.758 47.855 107.596C48.2124 107.552 48.6146 107.418 49.0167 107.194L50.4913 106.345C51.7871 105.586 52.8594 104.022 53.1722 102.503C53.2616 102.145 53.2616 101.788 53.2616 101.475L53.0382 96.2917C53.0382 95.9789 52.9935 95.7108 52.9041 95.4874C53.9765 95.3534 54.7361 96.113 54.7808 97.4088L55.0489 102.547Z" fill="white"/>
<path opacity="0.2" d="M45.8443 88.07C45.8443 88.4275 45.8443 88.7402 45.755 89.1424C45.4422 90.6616 44.3698 92.2255 43.074 92.9851L41.5548 93.8341C40.2143 94.5937 39.0079 94.2809 38.6057 93.1191C38.9632 93.0745 39.3653 92.9404 39.7675 92.717L41.242 91.868C42.5378 91.1084 43.6102 89.5445 43.923 88.0253C44.0123 87.6678 44.0123 87.3104 44.0123 86.9976L43.8783 81.7697C43.8783 81.4569 43.8336 81.1888 43.7442 80.9654C44.8166 80.8314 45.5762 81.591 45.6209 82.8868L45.8443 88.07Z" fill="white"/>
<path opacity="0.2" d="M81.8587 81.8592V86.9977C81.8587 87.3551 81.814 87.7573 81.7247 88.1147C81.3672 89.6786 80.2501 91.2872 78.9543 92.0468L77.4351 92.9405C76.1393 93.7001 75.0223 93.3426 74.6201 92.1809C74.9329 92.1362 75.2904 92.0021 75.6925 91.7787L77.2117 90.9298C78.5075 90.1701 79.6246 88.5616 79.982 86.9977C80.0714 86.5955 80.1161 86.2381 80.1161 85.8806V80.7421C80.1161 80.3846 80.0714 80.0718 79.982 79.8038C81.0544 79.6697 81.8587 80.4293 81.8587 81.8592Z" fill="white"/>
<path opacity="0.2" d="M86.6844 59.2942V64.4327C86.6844 64.7902 86.6397 65.1923 86.5504 65.5498C86.1929 67.1137 85.0758 68.7223 83.78 69.4819L82.2608 70.3755C80.965 71.1351 79.8479 70.7777 79.4458 69.6606C79.7586 69.6159 80.116 69.4819 80.4735 69.2585L81.9927 68.3648C83.2885 67.6052 84.4056 65.9966 84.763 64.4327C84.8524 64.0306 84.8971 63.6731 84.8971 63.3157V58.1771C84.8971 57.8197 84.8524 57.5069 84.763 57.2388C85.8801 57.1048 86.6844 57.8644 86.6844 59.2942Z" fill="white"/>
<path opacity="0.2" d="M59.2491 80.34C59.2491 80.6974 59.2044 81.0549 59.1151 81.4124C58.7576 82.9316 57.6852 84.5402 56.3894 85.2998L54.8702 86.1487C53.5297 86.9083 52.4126 86.5956 52.0105 85.4338C52.368 85.3891 52.7254 85.2551 53.1276 85.0317L54.6468 84.1827C55.9426 83.4231 57.015 81.8592 57.3724 80.2953C57.4618 79.9378 57.5065 79.5357 57.5065 79.2229L57.4171 74.0397C57.4171 73.7269 57.3724 73.4142 57.2831 73.1461C58.3554 73.012 59.1597 73.7716 59.1597 75.1568L59.2491 80.34Z" fill="white"/>
<path opacity="0.2" d="M68.4537 94.7723C68.4537 95.1298 68.409 95.4873 68.3196 95.8447C67.9622 97.4086 66.8898 98.9725 65.594 99.7321L64.0748 100.581C62.7343 101.341 61.6172 101.028 61.2151 99.8662C61.5725 99.8215 61.93 99.6874 62.3322 99.464L63.8514 98.6151C65.1472 97.8555 66.2196 96.2916 66.577 94.7277C66.6664 94.3702 66.7111 94.0127 66.7111 93.6553L66.6217 88.5168C66.6217 88.1593 66.577 87.8912 66.4877 87.6231C67.56 87.4891 68.3643 88.2487 68.3643 89.6338L68.4537 94.7723Z" fill="white"/>
<path opacity="0.2" d="M72.6539 67.3816V72.5201C72.6539 72.8776 72.6092 73.2797 72.5198 73.6372C72.1177 75.2011 71.0453 76.8096 69.7495 77.5693L68.2303 78.4182C66.9345 79.1778 65.8174 78.8204 65.4153 77.7033C65.7281 77.6586 66.0855 77.5246 66.4877 77.3012L68.0069 76.4522C69.3027 75.6926 70.3751 74.084 70.7772 72.5201C70.8666 72.118 70.9113 71.7605 70.9113 71.3583V66.2198C70.9113 65.8624 70.8666 65.5496 70.7772 65.2815C71.8496 65.1921 72.6539 65.9517 72.6539 67.3816Z" fill="white"/>
<path d="M91.5103 43.6997V100.76L167.784 144.817L176.765 92.8954L91.5103 43.6997ZM154.021 89.1868L155.63 90.1251C155.898 90.2591 156.122 90.4379 156.345 90.6613C157.596 91.7337 158.4 93.4763 158.311 94.9061L157.909 100.089C157.909 100.357 157.819 100.581 157.775 100.804C157.373 100.76 156.97 100.626 156.524 100.402L155.049 99.5532C153.753 98.7935 152.681 97.2296 152.413 95.7551C152.368 95.3977 152.323 95.0849 152.323 94.7721L152.681 89.5889C152.681 89.3208 152.77 89.0527 152.815 88.8293C153.217 88.7846 153.619 88.9187 154.021 89.1868ZM140.483 81.3673L142.091 82.3056C142.359 82.4843 142.627 82.6631 142.851 82.8418C144.057 83.9142 144.906 85.7015 144.817 87.1313L144.549 92.3145C144.549 92.5826 144.459 92.8507 144.415 93.1188C144.057 93.0741 143.655 92.9401 143.253 92.7167L141.778 91.8677C140.483 91.1081 139.41 89.5442 139.097 88.025C139.008 87.6675 139.008 87.3101 139.008 86.9526L139.231 81.7694C139.231 81.4566 139.276 81.1885 139.365 80.9651C139.678 81.0098 140.08 81.1439 140.483 81.3673ZM126.944 73.5478L128.552 74.4861C128.82 74.6649 129.088 74.8436 129.357 75.067C130.563 76.1394 131.412 77.9267 131.367 79.4012L131.189 84.5844C131.189 84.8972 131.144 85.1653 131.054 85.4334C130.697 85.3887 130.34 85.2547 129.937 85.0313L128.418 84.1823C127.122 83.4227 126.05 81.8588 125.693 80.2949C125.603 79.9374 125.559 79.5353 125.559 79.2225L125.648 74.0393C125.648 73.7265 125.693 73.4137 125.782 73.1456C126.184 73.1903 126.542 73.3244 126.944 73.5478ZM113.36 65.7283L114.969 66.6666C115.281 66.8454 115.55 67.0688 115.818 67.2922C117.024 68.4093 117.873 70.1519 117.828 71.6711L117.784 76.8096C117.784 77.1671 117.739 77.4799 117.65 77.7033C117.337 77.6586 116.979 77.5246 116.577 77.3011L115.058 76.4075C113.762 75.6479 112.69 74.0393 112.288 72.4754C112.198 72.0733 112.154 71.7158 112.154 71.3583V66.2198C112.154 65.8624 112.198 65.5496 112.288 65.2815C112.645 65.3708 113.003 65.5049 113.36 65.7283ZM99.3297 57.596L100.938 58.5344C101.251 58.7131 101.519 58.9365 101.787 59.1599C102.994 60.277 103.843 62.0196 103.798 63.5388L103.753 68.6774C103.753 69.0348 103.709 69.3476 103.619 69.571C103.306 69.5263 102.949 69.3923 102.592 69.1689L101.072 68.2752C99.7766 67.5156 98.6595 65.907 98.302 64.3431C98.2127 63.941 98.168 63.5835 98.168 63.2261V58.0876C98.168 57.7301 98.2127 57.4173 98.302 57.1492C98.6148 57.2833 98.9723 57.4173 99.3297 57.596ZM107.417 91.7783L105.898 90.8847C104.602 90.1251 103.485 88.5165 103.128 86.9526C103.038 86.5505 102.994 86.193 102.994 85.8355V80.697C102.994 80.3396 103.038 80.0268 103.128 79.7587C103.441 79.8034 103.798 79.9374 104.155 80.1608L105.764 81.0992C106.077 81.2779 106.345 81.5013 106.613 81.7247C107.819 82.8418 108.668 84.5844 108.624 86.1036L108.579 91.2422C108.579 91.5996 108.534 91.8677 108.445 92.1358C108.132 92.1358 107.775 92.0018 107.417 91.7783ZM120.733 99.4638L119.214 98.6148C117.918 97.8552 116.845 96.2913 116.488 94.7274C116.399 94.3699 116.354 93.9678 116.354 93.655L116.443 88.4718C116.443 88.1144 116.488 87.8463 116.577 87.5782C116.935 87.6229 117.292 87.7569 117.65 87.9803L119.258 88.9187C119.526 89.0974 119.794 89.2761 120.063 89.4995C121.269 90.5719 122.118 92.3592 122.073 93.8338L121.895 99.017C121.895 99.3297 121.85 99.5978 121.76 99.8659C121.492 99.8212 121.135 99.6872 120.733 99.4638ZM134.048 107.149L132.574 106.3C131.278 105.541 130.206 103.977 129.893 102.458C129.803 102.1 129.803 101.743 129.803 101.385L130.027 96.2019C130.027 95.8892 130.071 95.6211 130.161 95.3977C130.518 95.4423 130.92 95.5764 131.323 95.7998L132.931 96.7381C133.199 96.9169 133.467 97.0956 133.691 97.2743C134.897 98.3467 135.746 100.134 135.657 101.564L135.389 106.792C135.389 107.06 135.344 107.328 135.255 107.596C134.853 107.551 134.45 107.417 134.048 107.149ZM147.319 114.835L145.844 113.986C144.549 113.226 143.476 111.662 143.208 110.188C143.164 109.83 143.119 109.517 143.119 109.205L143.476 104.021C143.476 103.753 143.521 103.485 143.61 103.262C143.968 103.306 144.415 103.441 144.817 103.664L146.425 104.602C146.693 104.736 146.917 104.915 147.14 105.138C148.391 106.211 149.196 107.954 149.106 109.383L148.704 114.567C148.704 114.835 148.615 115.058 148.57 115.281C148.168 115.237 147.766 115.103 147.319 114.835ZM160.59 122.475L159.115 121.626C157.819 120.867 156.792 119.348 156.524 117.873C156.479 117.56 156.434 117.248 156.479 116.935L156.97 111.707C157.015 111.439 157.06 111.215 157.105 111.037C157.507 111.081 157.954 111.215 158.4 111.483L160.009 112.422C160.232 112.556 160.456 112.735 160.679 112.913C161.93 113.986 162.735 115.684 162.601 117.113L162.064 122.341C162.064 122.565 161.975 122.788 161.93 122.967C161.483 122.922 161.037 122.743 160.59 122.475ZM169.794 108.043L168.32 107.194C167.024 106.434 165.996 104.915 165.728 103.441C165.684 103.128 165.639 102.815 165.684 102.502L166.175 97.2743C166.175 97.0062 166.265 96.7828 166.309 96.6041C166.711 96.6488 167.158 96.7828 167.605 97.0509L169.214 97.9893C169.437 98.1233 169.66 98.302 169.884 98.4808C171.135 99.5531 171.939 101.251 171.805 102.681L171.269 107.909C171.269 108.132 171.18 108.356 171.135 108.534C170.688 108.445 170.241 108.311 169.794 108.043Z" fill="#039A38"/>
<path opacity="0.45" d="M91.5103 43.6997V100.76L167.784 144.817L176.765 92.8954L91.5103 43.6997ZM154.021 89.1868L155.63 90.1251C155.898 90.2591 156.122 90.4379 156.345 90.6613C157.596 91.7337 158.4 93.4763 158.311 94.9061L157.909 100.089C157.909 100.357 157.819 100.581 157.775 100.804C157.373 100.76 156.97 100.626 156.524 100.402L155.049 99.5532C153.753 98.7935 152.681 97.2296 152.413 95.7551C152.368 95.3977 152.323 95.0849 152.323 94.7721L152.681 89.5889C152.681 89.3208 152.77 89.0527 152.815 88.8293C153.217 88.7846 153.619 88.9187 154.021 89.1868ZM140.483 81.3673L142.091 82.3056C142.359 82.4843 142.627 82.6631 142.851 82.8418C144.057 83.9142 144.906 85.7015 144.817 87.1313L144.549 92.3145C144.549 92.5826 144.459 92.8507 144.415 93.1188C144.057 93.0741 143.655 92.9401 143.253 92.7167L141.778 91.8677C140.483 91.1081 139.41 89.5442 139.097 88.025C139.008 87.6675 139.008 87.3101 139.008 86.9526L139.231 81.7694C139.231 81.4566 139.276 81.1885 139.365 80.9651C139.678 81.0098 140.08 81.1439 140.483 81.3673ZM126.944 73.5478L128.552 74.4861C128.82 74.6649 129.088 74.8436 129.357 75.067C130.563 76.1394 131.412 77.9267 131.367 79.4012L131.189 84.5844C131.189 84.8972 131.144 85.1653 131.054 85.4334C130.697 85.3887 130.34 85.2547 129.937 85.0313L128.418 84.1823C127.122 83.4227 126.05 81.8588 125.693 80.2949C125.603 79.9374 125.559 79.5353 125.559 79.2225L125.648 74.0393C125.648 73.7265 125.693 73.4137 125.782 73.1456C126.184 73.1903 126.542 73.3244 126.944 73.5478ZM113.36 65.7283L114.969 66.6666C115.281 66.8454 115.55 67.0688 115.818 67.2922C117.024 68.4093 117.873 70.1519 117.828 71.6711L117.784 76.8096C117.784 77.1671 117.739 77.4799 117.65 77.7033C117.337 77.6586 116.979 77.5246 116.577 77.3011L115.058 76.4075C113.762 75.6479 112.69 74.0393 112.288 72.4754C112.198 72.0733 112.154 71.7158 112.154 71.3583V66.2198C112.154 65.8624 112.198 65.5496 112.288 65.2815C112.645 65.3708 113.003 65.5049 113.36 65.7283ZM99.3297 57.596L100.938 58.5344C101.251 58.7131 101.519 58.9365 101.787 59.1599C102.994 60.277 103.843 62.0196 103.798 63.5388L103.753 68.6774C103.753 69.0348 103.709 69.3476 103.619 69.571C103.306 69.5263 102.949 69.3923 102.592 69.1689L101.072 68.2752C99.7766 67.5156 98.6595 65.907 98.302 64.3431C98.2127 63.941 98.168 63.5835 98.168 63.2261V58.0876C98.168 57.7301 98.2127 57.4173 98.302 57.1492C98.6148 57.2833 98.9723 57.4173 99.3297 57.596ZM107.417 91.7783L105.898 90.8847C104.602 90.1251 103.485 88.5165 103.128 86.9526C103.038 86.5505 102.994 86.193 102.994 85.8355V80.697C102.994 80.3396 103.038 80.0268 103.128 79.7587C103.441 79.8034 103.798 79.9374 104.155 80.1608L105.764 81.0992C106.077 81.2779 106.345 81.5013 106.613 81.7247C107.819 82.8418 108.668 84.5844 108.624 86.1036L108.579 91.2422C108.579 91.5996 108.534 91.8677 108.445 92.1358C108.132 92.1358 107.775 92.0018 107.417 91.7783ZM120.733 99.4638L119.214 98.6148C117.918 97.8552 116.845 96.2913 116.488 94.7274C116.399 94.3699 116.354 93.9678 116.354 93.655L116.443 88.4718C116.443 88.1144 116.488 87.8463 116.577 87.5782C116.935 87.6229 117.292 87.7569 117.65 87.9803L119.258 88.9187C119.526 89.0974 119.794 89.2761 120.063 89.4995C121.269 90.5719 122.118 92.3592 122.073 93.8338L121.895 99.017C121.895 99.3297 121.85 99.5978 121.76 99.8659C121.492 99.8212 121.135 99.6872 120.733 99.4638ZM134.048 107.149L132.574 106.3C131.278 105.541 130.206 103.977 129.893 102.458C129.803 102.1 129.803 101.743 129.803 101.385L130.027 96.2019C130.027 95.8892 130.071 95.6211 130.161 95.3977C130.518 95.4423 130.92 95.5764 131.323 95.7998L132.931 96.7381C133.199 96.9169 133.467 97.0956 133.691 97.2743C134.897 98.3467 135.746 100.134 135.657 101.564L135.389 106.792C135.389 107.06 135.344 107.328 135.255 107.596C134.853 107.551 134.45 107.417 134.048 107.149ZM147.319 114.835L145.844 113.986C144.549 113.226 143.476 111.662 143.208 110.188C143.164 109.83 143.119 109.517 143.119 109.205L143.476 104.021C143.476 103.753 143.521 103.485 143.61 103.262C143.968 103.306 144.415 103.441 144.817 103.664L146.425 104.602C146.693 104.736 146.917 104.915 147.14 105.138C148.391 106.211 149.196 107.954 149.106 109.383L148.704 114.567C148.704 114.835 148.615 115.058 148.57 115.281C148.168 115.237 147.766 115.103 147.319 114.835ZM160.59 122.475L159.115 121.626C157.819 120.867 156.792 119.348 156.524 117.873C156.479 117.56 156.434 117.248 156.479 116.935L156.97 111.707C157.015 111.439 157.06 111.215 157.105 111.037C157.507 111.081 157.954 111.215 158.4 111.483L160.009 112.422C160.232 112.556 160.456 112.735 160.679 112.913C161.93 113.986 162.735 115.684 162.601 117.113L162.064 122.341C162.064 122.565 161.975 122.788 161.93 122.967C161.483 122.922 161.037 122.743 160.59 122.475ZM169.794 108.043L168.32 107.194C167.024 106.434 165.996 104.915 165.728 103.441C165.684 103.128 165.639 102.815 165.684 102.502L166.175 97.2743C166.175 97.0062 166.265 96.7828 166.309 96.6041C166.711 96.6488 167.158 96.7828 167.605 97.0509L169.214 97.9893C169.437 98.1233 169.66 98.302 169.884 98.4808C171.135 99.5531 171.939 101.251 171.805 102.681L171.269 107.909C171.269 108.132 171.18 108.356 171.135 108.534C170.688 108.445 170.241 108.311 169.794 108.043Z" fill="white"/>
<path d="M169.794 108.043L168.32 107.194C167.024 106.434 165.996 104.915 165.728 103.44C165.684 103.128 165.639 102.815 165.684 102.502L166.175 97.2743C166.175 97.0062 166.264 96.7827 166.309 96.604C165.281 96.5146 164.522 97.1849 164.432 98.3913L163.986 103.619C163.941 103.932 163.986 104.245 164.03 104.558C164.298 106.032 165.326 107.551 166.622 108.311L168.096 109.16C169.482 109.964 170.733 109.651 171.18 108.49C170.688 108.445 170.241 108.311 169.794 108.043ZM147.319 114.835L145.844 113.986C144.549 113.226 143.476 111.662 143.208 110.188C143.163 109.83 143.119 109.517 143.119 109.205L143.476 104.021C143.476 103.753 143.521 103.485 143.61 103.262C142.583 103.172 141.778 103.843 141.734 105.138L141.376 110.322C141.331 110.634 141.376 110.992 141.466 111.305C141.734 112.779 142.806 114.343 144.102 115.103L145.576 115.952C146.917 116.756 148.168 116.398 148.57 115.281C148.168 115.237 147.766 115.103 147.319 114.835ZM160.59 122.475L159.115 121.626C157.819 120.867 156.792 119.348 156.524 117.873C156.479 117.56 156.434 117.247 156.479 116.935L156.97 111.707C157.015 111.439 157.06 111.215 157.104 111.037C156.077 110.947 155.317 111.617 155.228 112.824L154.736 118.052C154.692 118.365 154.736 118.677 154.781 118.99C155.049 120.465 156.077 121.984 157.373 122.743L158.847 123.592C160.232 124.397 161.483 124.084 161.93 122.922C161.483 122.922 161.037 122.743 160.59 122.475ZM156.524 100.357L155.049 99.5084C153.753 98.7488 152.681 97.1849 152.413 95.7104C152.368 95.3529 152.323 95.0401 152.323 94.7273L152.681 89.5441C152.681 89.276 152.77 89.0079 152.815 88.7845C151.787 88.6952 150.983 89.3654 150.938 90.6612L150.581 95.8444C150.536 96.1572 150.581 96.5146 150.67 96.8274C150.983 98.302 152.011 99.8659 153.306 100.625L154.781 101.474C156.121 102.279 157.373 101.921 157.775 100.76C157.417 100.76 156.97 100.625 156.524 100.357ZM134.048 107.149L132.574 106.3C131.278 105.541 130.205 103.977 129.893 102.457C129.803 102.1 129.803 101.743 129.803 101.385L130.027 96.2019C130.027 95.8891 130.071 95.621 130.161 95.3976C129.088 95.2635 128.329 95.9785 128.284 97.3189L128.061 102.502C128.061 102.86 128.061 103.217 128.15 103.575C128.463 105.094 129.535 106.658 130.831 107.417L132.306 108.266C133.646 109.026 134.808 108.713 135.255 107.551C134.852 107.551 134.45 107.417 134.048 107.149ZM143.253 92.7166L141.778 91.8676C140.482 91.108 139.41 89.5441 139.097 88.0249C139.008 87.6675 139.008 87.31 139.008 86.9525L139.231 81.7693C139.231 81.4566 139.276 81.1885 139.365 80.9651C138.293 80.831 137.533 81.5906 137.489 82.8864L137.265 88.0696C137.265 88.4271 137.265 88.7845 137.355 89.142C137.667 90.6612 138.74 92.2251 140.036 92.9847L141.51 93.8337C142.851 94.5933 144.057 94.2805 144.459 93.1188C144.057 93.0741 143.655 92.94 143.253 92.7166ZM107.417 91.7783L105.898 90.8846C104.602 90.125 103.485 88.5164 103.128 86.9525C103.038 86.5504 102.994 86.1929 102.994 85.8355V80.697C102.994 80.3395 103.038 80.0267 103.128 79.7586C102.011 79.5799 101.251 80.3842 101.251 81.814V86.9525C101.251 87.31 101.296 87.7122 101.385 88.0696C101.743 89.6335 102.86 91.2421 104.155 92.0017L105.675 92.8953C106.97 93.655 108.087 93.2975 108.49 92.1357C108.132 92.1357 107.775 92.0017 107.417 91.7783ZM102.592 69.2582L101.072 68.3645C99.7765 67.6049 98.6594 65.9963 98.302 64.4324C98.2126 64.0303 98.1679 63.6728 98.1679 63.3154V58.1768C98.1679 57.8194 98.2126 57.5066 98.302 57.2385C97.1849 57.0598 96.4253 57.8641 96.4253 59.2939V64.4324C96.4253 64.7899 96.47 65.192 96.5593 65.5495C96.9168 67.1134 98.0339 68.722 99.3297 69.4816L100.849 70.3752C102.145 71.1348 103.262 70.7774 103.664 69.6603C103.306 69.5709 102.949 69.4369 102.592 69.2582ZM129.937 85.0312L128.418 84.1822C127.122 83.4226 126.05 81.8587 125.692 80.2948C125.603 79.9373 125.558 79.5352 125.558 79.2224L125.648 74.0392C125.648 73.7264 125.692 73.4137 125.782 73.1456C124.709 73.0115 123.905 73.7711 123.905 75.1563L123.816 80.3395C123.816 80.697 123.86 81.0544 123.95 81.4119C124.307 82.9311 125.38 84.5397 126.676 85.2993L128.195 86.1483C129.535 86.9079 130.652 86.5504 131.054 85.4333C130.742 85.3886 130.339 85.2546 129.937 85.0312ZM120.733 99.4637L119.213 98.6147C117.918 97.8551 116.845 96.2912 116.488 94.7273C116.398 94.3699 116.354 93.9677 116.354 93.655L116.443 88.4718C116.443 88.1143 116.488 87.8462 116.577 87.5781C115.505 87.4441 114.701 88.2037 114.701 89.5888L114.611 94.772C114.611 95.1295 114.656 95.4869 114.745 95.8444C115.103 97.4083 116.175 98.9722 117.471 99.7318L118.99 100.581C120.331 101.34 121.448 100.983 121.85 99.8659C121.492 99.8212 121.135 99.6871 120.733 99.4637ZM116.622 77.3458L115.103 76.4521C113.807 75.6925 112.734 74.0839 112.332 72.52C112.243 72.1179 112.198 71.7604 112.198 71.4029V66.2644C112.198 65.907 112.243 65.5942 112.332 65.3261C111.215 65.1474 110.456 65.9517 110.456 67.3815V72.52C110.456 72.8775 110.5 73.2796 110.59 73.6371C110.992 75.201 112.064 76.8096 113.36 77.5692L114.879 78.4628C116.175 79.2224 117.292 78.865 117.694 77.7479C117.337 77.6585 116.979 77.5692 116.622 77.3458Z" fill="#039A38"/>
<path opacity="0.2" d="M169.794 108.043L168.32 107.194C167.024 106.434 165.996 104.915 165.728 103.44C165.684 103.128 165.639 102.815 165.684 102.502L166.175 97.2743C166.175 97.0062 166.264 96.7827 166.309 96.604C165.281 96.5146 164.522 97.1849 164.432 98.3913L163.986 103.619C163.941 103.932 163.986 104.245 164.03 104.558C164.298 106.032 165.326 107.551 166.622 108.311L168.096 109.16C169.482 109.964 170.733 109.651 171.18 108.49C170.688 108.445 170.241 108.311 169.794 108.043ZM147.319 114.835L145.844 113.986C144.549 113.226 143.476 111.662 143.208 110.188C143.163 109.83 143.119 109.517 143.119 109.205L143.476 104.021C143.476 103.753 143.521 103.485 143.61 103.262C142.583 103.172 141.778 103.843 141.734 105.138L141.376 110.322C141.331 110.634 141.376 110.992 141.466 111.305C141.734 112.779 142.806 114.343 144.102 115.103L145.576 115.952C146.917 116.756 148.168 116.398 148.57 115.281C148.168 115.237 147.766 115.103 147.319 114.835ZM160.59 122.475L159.115 121.626C157.819 120.867 156.792 119.348 156.524 117.873C156.479 117.56 156.434 117.247 156.479 116.935L156.97 111.707C157.015 111.439 157.06 111.215 157.104 111.037C156.077 110.947 155.317 111.617 155.228 112.824L154.736 118.052C154.692 118.365 154.736 118.677 154.781 118.99C155.049 120.465 156.077 121.984 157.373 122.743L158.847 123.592C160.232 124.397 161.483 124.084 161.93 122.922C161.483 122.922 161.037 122.743 160.59 122.475ZM156.524 100.357L155.049 99.5084C153.753 98.7488 152.681 97.1849 152.413 95.7104C152.368 95.3529 152.323 95.0401 152.323 94.7273L152.681 89.5441C152.681 89.276 152.77 89.0079 152.815 88.7845C151.787 88.6952 150.983 89.3654 150.938 90.6612L150.581 95.8444C150.536 96.1572 150.581 96.5146 150.67 96.8274C150.983 98.302 152.011 99.8659 153.306 100.625L154.781 101.474C156.121 102.279 157.373 101.921 157.775 100.76C157.417 100.76 156.97 100.625 156.524 100.357ZM134.048 107.149L132.574 106.3C131.278 105.541 130.205 103.977 129.893 102.457C129.803 102.1 129.803 101.743 129.803 101.385L130.027 96.2019C130.027 95.8891 130.071 95.621 130.161 95.3976C129.088 95.2635 128.329 95.9785 128.284 97.3189L128.061 102.502C128.061 102.86 128.061 103.217 128.15 103.575C128.463 105.094 129.535 106.658 130.831 107.417L132.306 108.266C133.646 109.026 134.808 108.713 135.255 107.551C134.852 107.551 134.45 107.417 134.048 107.149ZM143.253 92.7166L141.778 91.8676C140.482 91.108 139.41 89.5441 139.097 88.0249C139.008 87.6675 139.008 87.31 139.008 86.9525L139.231 81.7693C139.231 81.4566 139.276 81.1885 139.365 80.9651C138.293 80.831 137.533 81.5906 137.489 82.8864L137.265 88.0696C137.265 88.4271 137.265 88.7845 137.355 89.142C137.667 90.6612 138.74 92.2251 140.036 92.9847L141.51 93.8337C142.851 94.5933 144.057 94.2805 144.459 93.1188C144.057 93.0741 143.655 92.94 143.253 92.7166ZM107.417 91.7783L105.898 90.8846C104.602 90.125 103.485 88.5164 103.128 86.9525C103.038 86.5504 102.994 86.1929 102.994 85.8355V80.697C102.994 80.3395 103.038 80.0267 103.128 79.7586C102.011 79.5799 101.251 80.3842 101.251 81.814V86.9525C101.251 87.31 101.296 87.7122 101.385 88.0696C101.743 89.6335 102.86 91.2421 104.155 92.0017L105.675 92.8953C106.97 93.655 108.087 93.2975 108.49 92.1357C108.132 92.1357 107.775 92.0017 107.417 91.7783ZM102.592 69.2582L101.072 68.3645C99.7765 67.6049 98.6594 65.9963 98.302 64.4324C98.2126 64.0303 98.1679 63.6728 98.1679 63.3154V58.1768C98.1679 57.8194 98.2126 57.5066 98.302 57.2385C97.1849 57.0598 96.4253 57.8641 96.4253 59.2939V64.4324C96.4253 64.7899 96.47 65.192 96.5593 65.5495C96.9168 67.1134 98.0339 68.722 99.3297 69.4816L100.849 70.3752C102.145 71.1348 103.262 70.7774 103.664 69.6603C103.306 69.5709 102.949 69.4369 102.592 69.2582ZM129.937 85.0312L128.418 84.1822C127.122 83.4226 126.05 81.8587 125.692 80.2948C125.603 79.9373 125.558 79.5352 125.558 79.2224L125.648 74.0392C125.648 73.7264 125.692 73.4137 125.782 73.1456C124.709 73.0115 123.905 73.7711 123.905 75.1563L123.816 80.3395C123.816 80.697 123.86 81.0544 123.95 81.4119C124.307 82.9311 125.38 84.5397 126.676 85.2993L128.195 86.1483C129.535 86.9079 130.652 86.5504 131.054 85.4333C130.742 85.3886 130.339 85.2546 129.937 85.0312ZM120.733 99.4637L119.213 98.6147C117.918 97.8551 116.845 96.2912 116.488 94.7273C116.398 94.3699 116.354 93.9677 116.354 93.655L116.443 88.4718C116.443 88.1143 116.488 87.8462 116.577 87.5781C115.505 87.4441 114.701 88.2037 114.701 89.5888L114.611 94.772C114.611 95.1295 114.656 95.4869 114.745 95.8444C115.103 97.4083 116.175 98.9722 117.471 99.7318L118.99 100.581C120.331 101.34 121.448 100.983 121.85 99.8659C121.492 99.8212 121.135 99.6871 120.733 99.4637ZM116.622 77.3458L115.103 76.4521C113.807 75.6925 112.734 74.0839 112.332 72.52C112.243 72.1179 112.198 71.7604 112.198 71.4029V66.2644C112.198 65.907 112.243 65.5942 112.332 65.3261C111.215 65.1474 110.456 65.9517 110.456 67.3815V72.52C110.456 72.8775 110.5 73.2796 110.59 73.6371C110.992 75.201 112.064 76.8096 113.36 77.5692L114.879 78.4628C116.175 79.2224 117.292 78.865 117.694 77.7479C117.337 77.6585 116.979 77.5692 116.622 77.3458Z" fill="white"/>
<path d="M33.8247 129.312L114.209 175.738L171.85 142.449L94.4145 97.7662C92.5825 96.6938 90.3037 96.6938 88.4717 97.7662L33.8247 129.312Z" fill="#039A38"/>
<path opacity="0.2" d="M33.8247 129.312L114.209 175.738L171.85 142.449L94.4145 97.7662C92.5825 96.6938 90.3037 96.6938 88.4717 97.7662L33.8247 129.312Z" fill="black"/>
<path d="M178.731 94.0573L91.51 43.6999V33.6016L178.731 83.959V94.0573Z" fill="#039A38"/>
<path d="M28.0605 70.2414V80.3397L91.5101 43.6999V33.6016L28.0605 70.2414Z" fill="#039A38"/>
<path opacity="0.2" d="M28.0605 70.2414V80.3397L91.5101 43.6999V33.6016L28.0605 70.2414Z" fill="white"/>
<path d="M182.931 82.7972H176.765L93.4315 34.7186C92.2251 34.0037 90.7506 34.0484 89.4995 34.7633L28.9543 69.7052H22.6987C22.6987 68.8562 23.4137 68.2754 23.9498 67.9626L88.4271 30.7418C90.0803 29.8035 92.806 29.8035 94.4592 30.7418L181.68 81.0993C181.993 81.278 182.931 81.993 182.931 82.7972Z" fill="#039A38"/>
<path opacity="0.4" d="M182.931 82.7972H176.765L93.4315 34.7186C92.2251 34.0037 90.7506 34.0484 89.4995 34.7633L28.9543 69.7052H22.6987C22.6987 68.8562 23.4137 68.2754 23.9498 67.9626L88.4271 30.7418C90.0803 29.8035 92.806 29.8035 94.4592 30.7418L181.68 81.0993C181.993 81.278 182.931 81.993 182.931 82.7972Z" fill="white"/>
<path d="M48.4358 132.529L46.9613 131.68C45.3527 130.742 43.9228 128.508 43.7441 126.631L43.2079 120.777C43.1632 120.42 43.2079 120.152 43.2526 119.884C43.476 119.928 43.6994 120.063 43.9228 120.197L45.5314 121.135C47.14 122.073 48.5698 124.307 48.7039 126.184L49.1507 131.948C49.1954 132.306 49.1507 132.618 49.106 132.842C48.9273 132.752 48.6592 132.663 48.4358 132.529ZM61.7066 140.17L60.232 139.321C58.6235 138.382 57.1936 136.148 57.0596 134.272L56.6574 128.597C56.6127 128.239 56.6574 127.927 56.7021 127.703C56.9255 127.748 57.1936 127.882 57.417 128.016L59.0256 128.954C60.6342 129.893 62.0194 132.127 62.1534 134.004L62.5109 139.589C62.5555 139.946 62.5109 140.259 62.4215 140.527C62.1981 140.438 61.9747 140.304 61.7066 140.17ZM74.9774 147.855L73.5028 147.006C71.8942 146.068 70.5091 143.834 70.4197 141.957L70.1516 136.461C70.1516 136.104 70.1516 135.791 70.241 135.523C70.4644 135.567 70.7325 135.702 71.0006 135.836L72.6092 136.774C74.2177 137.712 75.6029 139.946 75.6476 141.823L75.871 147.23C75.871 147.587 75.871 147.9 75.7816 148.168C75.5135 148.123 75.2455 147.989 74.9774 147.855ZM88.2928 155.541L86.7736 154.692C85.165 153.753 83.8245 151.519 83.7799 149.643L83.6458 144.281C83.6458 143.923 83.6905 143.61 83.7352 143.342C84.0033 143.387 84.2714 143.521 84.5395 143.7L86.148 144.638C87.7566 145.576 89.0971 147.811 89.1418 149.687L89.2312 154.96C89.2312 155.317 89.1865 155.63 89.0971 155.898C88.8737 155.809 88.6056 155.719 88.2928 155.541ZM101.653 163.271L100.134 162.377C98.5252 161.439 97.1847 159.205 97.1847 157.328L97.14 152.1C97.14 151.743 97.1847 151.43 97.274 151.117C97.5421 151.162 97.8102 151.296 98.123 151.475L99.7316 152.413C101.34 153.351 102.636 155.585 102.636 157.462V162.645C102.636 163.003 102.591 163.36 102.502 163.628C102.234 163.539 101.966 163.449 101.653 163.271ZM42.4036 107.596C42.1802 107.551 41.9568 107.417 41.6887 107.283L40.2142 106.434C38.6056 105.496 37.1757 103.262 36.997 101.385L36.4608 95.5317C36.4161 95.1742 36.4608 94.9062 36.5055 94.6381C36.7289 94.6827 36.9523 94.8168 37.1757 94.9508L38.7843 95.8892C40.3929 96.8275 41.8228 99.0616 41.9568 100.938L42.4036 106.702C42.493 107.015 42.4483 107.328 42.4036 107.596ZM55.7191 115.237C55.4957 115.192 55.2276 115.058 54.9595 114.924L53.4849 114.075C51.8764 113.137 50.4465 110.903 50.3125 109.026L49.9103 103.351C49.8656 102.994 49.9103 102.681 49.955 102.458C50.1784 102.502 50.4465 102.636 50.6699 102.77L52.2785 103.709C53.8871 104.647 55.2723 106.881 55.4063 108.758L55.7638 114.343C55.8085 114.656 55.8085 114.969 55.7191 115.237ZM69.0792 122.922C68.8111 122.878 68.543 122.744 68.2749 122.609L66.8004 121.76C65.1918 120.822 63.8067 118.588 63.7173 116.711L63.4492 111.215C63.4492 110.858 63.4492 110.545 63.5386 110.277C63.762 110.322 64.0301 110.456 64.2982 110.59L65.9068 111.528C67.5153 112.466 68.9005 114.701 68.9452 116.577L69.1686 121.984C69.1686 122.341 69.1239 122.654 69.0792 122.922ZM82.4394 130.652C82.1713 130.608 81.9032 130.474 81.5904 130.295L80.0712 129.446C78.4626 128.508 77.1221 126.273 77.0774 124.397L76.9434 119.035C76.9434 118.677 76.9881 118.365 77.0328 118.096C77.3009 118.141 77.569 118.275 77.8371 118.454L79.4456 119.392C81.0542 120.331 82.3947 122.565 82.4394 124.441L82.5287 129.714C82.5287 130.027 82.4841 130.34 82.4394 130.652ZM95.9336 137.399C95.9336 137.757 95.8889 138.114 95.7995 138.382C95.5314 138.338 95.2186 138.204 94.9505 138.025L93.4313 137.131C91.8228 136.193 90.4823 133.959 90.4823 132.082L90.4376 126.854C90.4376 126.497 90.4823 126.184 90.5716 125.871C90.8397 125.916 91.1078 126.05 91.4206 126.229L93.0292 127.167C94.6378 128.105 95.9336 130.34 95.9336 132.216V137.399ZM109.964 145.487C109.964 145.844 109.919 146.157 109.83 146.47C109.562 146.425 109.249 146.291 108.936 146.113L107.417 145.219C105.808 144.281 104.468 142.046 104.468 140.17L104.423 134.942C104.423 134.584 104.468 134.272 104.557 133.959C104.825 134.004 105.094 134.138 105.406 134.316L107.015 135.255C108.623 136.193 109.919 138.427 109.919 140.304V145.487H109.964ZM114.209 120.286L26.6306 69.7051L31.7244 124.754C32.0372 128.552 34.9863 133.244 38.3375 135.165L108.221 175.514C111.215 177.256 115.907 177.391 119.258 176.005C119.347 175.961 119.437 175.916 119.526 175.916C119.571 175.916 119.615 175.871 119.66 175.871C119.839 175.782 120.062 175.693 120.286 175.559L167.426 148.302C170.732 146.381 173.726 141.689 174.039 137.891L179.133 82.8418L114.209 120.286ZM162.466 120.554L162.913 114.79C163.047 112.913 164.477 110.679 166.085 109.741L167.694 108.802C167.917 108.668 168.141 108.579 168.364 108.49C168.409 108.758 168.409 109.071 168.409 109.383L167.873 115.237C167.694 117.069 166.264 119.348 164.656 120.286L163.181 121.135C162.958 121.269 162.69 121.403 162.466 121.448C162.466 121.224 162.422 120.912 162.466 120.554ZM149.464 122.609C149.553 120.777 150.983 118.499 152.591 117.56L154.2 116.622C154.468 116.488 154.691 116.354 154.915 116.309C154.959 116.577 155.004 116.89 154.959 117.248L154.557 122.922C154.423 124.754 153.038 127.033 151.43 127.971L149.955 128.82C149.687 128.954 149.464 129.088 149.195 129.133C149.106 128.865 149.106 128.552 149.106 128.195L149.464 122.609ZM135.969 130.474C136.059 128.597 137.399 126.363 139.008 125.424L140.616 124.486C140.884 124.352 141.153 124.218 141.376 124.173C141.465 124.441 141.465 124.754 141.465 125.112L141.197 130.608C141.108 132.44 139.723 134.718 138.114 135.657L136.64 136.506C136.371 136.685 136.103 136.774 135.835 136.819C135.746 136.55 135.746 136.238 135.746 135.88L135.969 130.474ZM122.386 143.566L122.475 138.293C122.52 136.416 123.86 134.182 125.469 133.244L127.077 132.306C127.346 132.127 127.614 132.038 127.882 131.948C127.971 132.216 128.016 132.529 127.971 132.886L127.837 138.248C127.792 140.125 126.452 142.359 124.843 143.298L123.324 144.147C123.056 144.325 122.743 144.415 122.475 144.504C122.43 144.236 122.386 143.923 122.386 143.566ZM129.043 161.126L129.267 155.719C129.356 153.843 130.697 151.609 132.305 150.67L133.914 149.732C134.182 149.598 134.45 149.464 134.674 149.419C134.763 149.687 134.763 150 134.763 150.357L134.495 155.853C134.405 157.685 133.02 159.964 131.412 160.903L129.937 161.752C129.669 161.93 129.401 162.02 129.133 162.064C129.043 161.796 129.043 161.483 129.043 161.126ZM142.404 153.441L142.761 147.855C142.85 146.023 144.28 143.744 145.889 142.806L147.497 141.868C147.766 141.734 147.989 141.6 148.212 141.555C148.257 141.823 148.302 142.136 148.257 142.493L147.855 148.168C147.721 150 146.291 152.279 144.682 153.217L143.208 154.066C142.94 154.2 142.716 154.334 142.448 154.379C142.404 154.111 142.404 153.798 142.404 153.441ZM155.764 145.8L156.211 140.036C156.345 138.159 157.775 135.925 159.383 134.987L160.992 134.048C161.215 133.914 161.438 133.825 161.662 133.735C161.707 134.004 161.707 134.316 161.707 134.629L161.17 140.483C160.992 142.315 159.562 144.593 157.953 145.532L156.479 146.381C156.211 146.515 155.987 146.649 155.764 146.693C155.719 146.47 155.719 146.157 155.764 145.8Z" fill="#039A38"/>
<path opacity="0.45" d="M48.4358 132.529L46.9613 131.68C45.3527 130.742 43.9228 128.508 43.7441 126.631L43.2079 120.777C43.1632 120.42 43.2079 120.152 43.2526 119.884C43.476 119.928 43.6994 120.063 43.9228 120.197L45.5314 121.135C47.14 122.073 48.5698 124.307 48.7039 126.184L49.1507 131.948C49.1954 132.306 49.1507 132.618 49.106 132.842C48.9273 132.752 48.6592 132.663 48.4358 132.529ZM61.7066 140.17L60.232 139.321C58.6235 138.382 57.1936 136.148 57.0596 134.272L56.6574 128.597C56.6127 128.239 56.6574 127.927 56.7021 127.703C56.9255 127.748 57.1936 127.882 57.417 128.016L59.0256 128.954C60.6342 129.893 62.0194 132.127 62.1534 134.004L62.5109 139.589C62.5555 139.946 62.5109 140.259 62.4215 140.527C62.1981 140.438 61.9747 140.304 61.7066 140.17ZM74.9774 147.855L73.5028 147.006C71.8942 146.068 70.5091 143.834 70.4197 141.957L70.1516 136.461C70.1516 136.104 70.1516 135.791 70.241 135.523C70.4644 135.567 70.7325 135.702 71.0006 135.836L72.6092 136.774C74.2177 137.712 75.6029 139.946 75.6476 141.823L75.871 147.23C75.871 147.587 75.871 147.9 75.7816 148.168C75.5135 148.123 75.2455 147.989 74.9774 147.855ZM88.2928 155.541L86.7736 154.692C85.165 153.753 83.8245 151.519 83.7799 149.643L83.6458 144.281C83.6458 143.923 83.6905 143.61 83.7352 143.342C84.0033 143.387 84.2714 143.521 84.5395 143.7L86.148 144.638C87.7566 145.576 89.0971 147.811 89.1418 149.687L89.2312 154.96C89.2312 155.317 89.1865 155.63 89.0971 155.898C88.8737 155.809 88.6056 155.719 88.2928 155.541ZM101.653 163.271L100.134 162.377C98.5252 161.439 97.1847 159.205 97.1847 157.328L97.14 152.1C97.14 151.743 97.1847 151.43 97.274 151.117C97.5421 151.162 97.8102 151.296 98.123 151.475L99.7316 152.413C101.34 153.351 102.636 155.585 102.636 157.462V162.645C102.636 163.003 102.591 163.36 102.502 163.628C102.234 163.539 101.966 163.449 101.653 163.271ZM42.4036 107.596C42.1802 107.551 41.9568 107.417 41.6887 107.283L40.2142 106.434C38.6056 105.496 37.1757 103.262 36.997 101.385L36.4608 95.5317C36.4161 95.1742 36.4608 94.9062 36.5055 94.6381C36.7289 94.6827 36.9523 94.8168 37.1757 94.9508L38.7843 95.8892C40.3929 96.8275 41.8228 99.0616 41.9568 100.938L42.4036 106.702C42.493 107.015 42.4483 107.328 42.4036 107.596ZM55.7191 115.237C55.4957 115.192 55.2276 115.058 54.9595 114.924L53.4849 114.075C51.8764 113.137 50.4465 110.903 50.3125 109.026L49.9103 103.351C49.8656 102.994 49.9103 102.681 49.955 102.458C50.1784 102.502 50.4465 102.636 50.6699 102.77L52.2785 103.709C53.8871 104.647 55.2723 106.881 55.4063 108.758L55.7638 114.343C55.8085 114.656 55.8085 114.969 55.7191 115.237ZM69.0792 122.922C68.8111 122.878 68.543 122.744 68.2749 122.609L66.8004 121.76C65.1918 120.822 63.8067 118.588 63.7173 116.711L63.4492 111.215C63.4492 110.858 63.4492 110.545 63.5386 110.277C63.762 110.322 64.0301 110.456 64.2982 110.59L65.9068 111.528C67.5153 112.466 68.9005 114.701 68.9452 116.577L69.1686 121.984C69.1686 122.341 69.1239 122.654 69.0792 122.922ZM82.4394 130.652C82.1713 130.608 81.9032 130.474 81.5904 130.295L80.0712 129.446C78.4626 128.508 77.1221 126.273 77.0774 124.397L76.9434 119.035C76.9434 118.677 76.9881 118.365 77.0328 118.096C77.3009 118.141 77.569 118.275 77.8371 118.454L79.4456 119.392C81.0542 120.331 82.3947 122.565 82.4394 124.441L82.5287 129.714C82.5287 130.027 82.4841 130.34 82.4394 130.652ZM95.9336 137.399C95.9336 137.757 95.8889 138.114 95.7995 138.382C95.5314 138.338 95.2186 138.204 94.9505 138.025L93.4313 137.131C91.8228 136.193 90.4823 133.959 90.4823 132.082L90.4376 126.854C90.4376 126.497 90.4823 126.184 90.5716 125.871C90.8397 125.916 91.1078 126.05 91.4206 126.229L93.0292 127.167C94.6378 128.105 95.9336 130.34 95.9336 132.216V137.399ZM109.964 145.487C109.964 145.844 109.919 146.157 109.83 146.47C109.562 146.425 109.249 146.291 108.936 146.113L107.417 145.219C105.808 144.281 104.468 142.046 104.468 140.17L104.423 134.942C104.423 134.584 104.468 134.272 104.557 133.959C104.825 134.004 105.094 134.138 105.406 134.316L107.015 135.255C108.623 136.193 109.919 138.427 109.919 140.304V145.487H109.964ZM114.209 120.286L26.6306 69.7051L31.7244 124.754C32.0372 128.552 34.9863 133.244 38.3375 135.165L108.221 175.514C111.215 177.256 115.907 177.391 119.258 176.005C119.347 175.961 119.437 175.916 119.526 175.916C119.571 175.916 119.615 175.871 119.66 175.871C119.839 175.782 120.062 175.693 120.286 175.559L167.426 148.302C170.732 146.381 173.726 141.689 174.039 137.891L179.133 82.8418L114.209 120.286ZM162.466 120.554L162.913 114.79C163.047 112.913 164.477 110.679 166.085 109.741L167.694 108.802C167.917 108.668 168.141 108.579 168.364 108.49C168.409 108.758 168.409 109.071 168.409 109.383L167.873 115.237C167.694 117.069 166.264 119.348 164.656 120.286L163.181 121.135C162.958 121.269 162.69 121.403 162.466 121.448C162.466 121.224 162.422 120.912 162.466 120.554ZM149.464 122.609C149.553 120.777 150.983 118.499 152.591 117.56L154.2 116.622C154.468 116.488 154.691 116.354 154.915 116.309C154.959 116.577 155.004 116.89 154.959 117.248L154.557 122.922C154.423 124.754 153.038 127.033 151.43 127.971L149.955 128.82C149.687 128.954 149.464 129.088 149.195 129.133C149.106 128.865 149.106 128.552 149.106 128.195L149.464 122.609ZM135.969 130.474C136.059 128.597 137.399 126.363 139.008 125.424L140.616 124.486C140.884 124.352 141.153 124.218 141.376 124.173C141.465 124.441 141.465 124.754 141.465 125.112L141.197 130.608C141.108 132.44 139.723 134.718 138.114 135.657L136.64 136.506C136.371 136.685 136.103 136.774 135.835 136.819C135.746 136.55 135.746 136.238 135.746 135.88L135.969 130.474ZM122.386 143.566L122.475 138.293C122.52 136.416 123.86 134.182 125.469 133.244L127.077 132.306C127.346 132.127 127.614 132.038 127.882 131.948C127.971 132.216 128.016 132.529 127.971 132.886L127.837 138.248C127.792 140.125 126.452 142.359 124.843 143.298L123.324 144.147C123.056 144.325 122.743 144.415 122.475 144.504C122.43 144.236 122.386 143.923 122.386 143.566ZM129.043 161.126L129.267 155.719C129.356 153.843 130.697 151.609 132.305 150.67L133.914 149.732C134.182 149.598 134.45 149.464 134.674 149.419C134.763 149.687 134.763 150 134.763 150.357L134.495 155.853C134.405 157.685 133.02 159.964 131.412 160.903L129.937 161.752C129.669 161.93 129.401 162.02 129.133 162.064C129.043 161.796 129.043 161.483 129.043 161.126ZM142.404 153.441L142.761 147.855C142.85 146.023 144.28 143.744 145.889 142.806L147.497 141.868C147.766 141.734 147.989 141.6 148.212 141.555C148.257 141.823 148.302 142.136 148.257 142.493L147.855 148.168C147.721 150 146.291 152.279 144.682 153.217L143.208 154.066C142.94 154.2 142.716 154.334 142.448 154.379C142.404 154.111 142.404 153.798 142.404 153.441ZM155.764 145.8L156.211 140.036C156.345 138.159 157.775 135.925 159.383 134.987L160.992 134.048C161.215 133.914 161.438 133.825 161.662 133.735C161.707 134.004 161.707 134.316 161.707 134.629L161.17 140.483C160.992 142.315 159.562 144.593 157.953 145.532L156.479 146.381C156.211 146.515 155.987 146.649 155.764 146.693C155.719 146.47 155.719 146.157 155.764 145.8Z" fill="white"/>
<path opacity="0.4" d="M114.209 120.286V172.029C114.209 175.469 116.398 177.078 119.213 176.005C119.303 175.961 119.392 175.916 119.481 175.916C119.526 175.916 119.571 175.871 119.615 175.871C119.794 175.782 120.017 175.693 120.241 175.559L167.381 148.302C170.688 146.381 173.681 141.689 173.994 137.891L179.088 82.8418L114.209 120.286ZM162.466 120.554L162.913 114.79C163.047 112.913 164.477 110.679 166.085 109.741L167.694 108.802C167.917 108.668 168.141 108.579 168.364 108.49C168.409 108.758 168.409 109.071 168.409 109.383L167.873 115.237C167.694 117.069 166.264 119.348 164.656 120.286L163.181 121.135C162.958 121.269 162.69 121.403 162.466 121.448C162.466 121.224 162.421 120.911 162.466 120.554ZM149.463 122.609C149.553 120.777 150.983 118.499 152.591 117.56L154.2 116.622C154.468 116.488 154.691 116.354 154.915 116.309C154.959 116.577 155.004 116.89 154.959 117.248L154.557 122.922C154.423 124.754 153.038 127.033 151.429 127.971L149.955 128.82C149.687 128.954 149.463 129.088 149.195 129.133C149.106 128.865 149.106 128.552 149.106 128.195L149.463 122.609ZM135.969 130.474C136.059 128.597 137.399 126.363 139.008 125.424L140.616 124.486C140.884 124.352 141.152 124.218 141.376 124.173C141.465 124.441 141.465 124.754 141.465 125.112L141.197 130.608C141.108 132.44 139.723 134.718 138.114 135.657L136.639 136.506C136.371 136.685 136.103 136.774 135.835 136.819C135.746 136.55 135.746 136.238 135.746 135.88L135.969 130.474ZM122.386 143.566L122.475 138.293C122.52 136.416 123.86 134.182 125.469 133.244L127.077 132.306C127.345 132.127 127.614 132.038 127.882 131.948C127.971 132.216 128.016 132.529 127.971 132.886L127.837 138.248C127.792 140.125 126.452 142.359 124.843 143.298L123.324 144.147C123.056 144.325 122.743 144.415 122.475 144.504C122.43 144.236 122.386 143.923 122.386 143.566ZM129.043 161.126L129.267 155.719C129.356 153.843 130.697 151.609 132.305 150.67L133.914 149.732C134.182 149.598 134.45 149.464 134.673 149.419C134.763 149.687 134.763 150 134.763 150.357L134.495 155.853C134.405 157.685 133.02 159.964 131.412 160.903L129.937 161.752C129.669 161.93 129.401 162.02 129.133 162.064C129.043 161.796 129.043 161.483 129.043 161.126ZM142.404 153.441L142.761 147.855C142.85 146.023 144.28 143.744 145.889 142.806L147.497 141.868C147.765 141.734 147.989 141.6 148.212 141.555C148.257 141.823 148.302 142.136 148.257 142.493L147.855 148.168C147.721 150 146.291 152.279 144.682 153.217L143.208 154.066C142.94 154.2 142.716 154.334 142.448 154.379C142.404 154.111 142.404 153.798 142.404 153.441ZM155.764 145.8L156.211 140.036C156.345 138.159 157.774 135.925 159.383 134.987L160.992 134.048C161.215 133.914 161.438 133.825 161.662 133.735C161.706 134.004 161.707 134.316 161.707 134.629L161.17 140.483C160.992 142.315 159.562 144.593 157.953 145.532L156.479 146.381C156.211 146.515 155.987 146.649 155.764 146.693C155.719 146.47 155.719 146.157 155.764 145.8Z" fill="white"/>
<path d="M163.628 135.746L163.092 141.599C162.913 143.431 161.483 145.71 159.874 146.649L158.4 147.498C157.104 148.257 156.076 147.9 155.808 146.738C156.032 146.693 156.255 146.559 156.523 146.425L157.998 145.576C159.606 144.638 161.036 142.404 161.215 140.527L161.751 134.674C161.796 134.316 161.751 134.048 161.706 133.78C162.913 133.423 163.762 134.182 163.628 135.746Z" fill="#039A38"/>
<path d="M136.684 151.385L136.416 156.881C136.327 158.758 134.942 160.992 133.333 161.93L131.858 162.779C130.563 163.539 129.49 163.181 129.177 162.064C129.446 162.02 129.669 161.886 129.982 161.752L131.456 160.903C133.065 159.964 134.45 157.73 134.539 155.853L134.808 150.357C134.808 150 134.808 149.687 134.718 149.419C135.925 149.062 136.729 149.866 136.684 151.385Z" fill="#039A38"/>
<path d="M150.134 143.566L149.732 149.241C149.597 151.117 148.168 153.351 146.604 154.29L145.129 155.139C143.833 155.898 142.761 155.541 142.493 154.379C142.716 154.334 142.984 154.2 143.253 154.066L144.727 153.217C146.336 152.279 147.765 150.045 147.9 148.168L148.302 142.493C148.346 142.136 148.302 141.823 148.257 141.555C149.419 141.242 150.268 142.002 150.134 143.566Z" fill="#039A38"/>
<path d="M129.892 134.003L129.714 139.365C129.669 141.242 128.329 143.476 126.72 144.414L125.201 145.308C123.905 146.068 122.833 145.71 122.475 144.593C122.743 144.548 123.011 144.414 123.324 144.236L124.843 143.387C126.452 142.448 127.792 140.214 127.837 138.338L127.971 132.976C127.971 132.618 127.926 132.305 127.882 132.037C129.088 131.68 129.937 132.439 129.892 134.003Z" fill="#039A38"/>
<path d="M156.881 118.32L156.479 123.995C156.345 125.827 154.959 128.105 153.351 129.044L151.876 129.893C150.58 130.652 149.508 130.295 149.24 129.133C149.463 129.088 149.732 128.954 150 128.82L151.474 127.971C153.083 127.033 154.513 124.799 154.602 122.922L155.004 117.247C155.004 116.89 155.004 116.577 154.959 116.309C156.121 115.952 156.97 116.756 156.881 118.32Z" fill="#039A38"/>
<path d="M143.387 126.14L143.118 131.636C143.029 133.512 141.644 135.746 140.035 136.685L138.561 137.534C137.265 138.293 136.193 137.936 135.88 136.819C136.148 136.774 136.371 136.64 136.684 136.506L138.159 135.657C139.767 134.719 141.152 132.485 141.242 130.608L141.51 125.112C141.51 124.754 141.51 124.442 141.421 124.174C142.627 123.816 143.476 124.62 143.387 126.14Z" fill="#039A38"/>
<path d="M170.33 110.5L169.794 116.354C169.615 118.186 168.185 120.465 166.577 121.403L165.102 122.252C163.807 123.012 162.779 122.654 162.511 121.492C162.734 121.448 162.958 121.314 163.226 121.18L164.7 120.331C166.309 119.392 167.739 117.158 167.917 115.281L168.454 109.428C168.498 109.071 168.454 108.802 168.409 108.534C169.66 108.177 170.464 108.937 170.33 110.5Z" fill="#039A38"/>
<path opacity="0.2" d="M148.212 141.6C148.257 141.868 148.302 142.18 148.257 142.538L147.855 148.213C147.721 150.045 146.291 152.323 144.682 153.262L143.208 154.111C142.94 154.245 142.716 154.379 142.448 154.424C142.716 155.585 143.789 155.943 145.085 155.183L146.559 154.334C148.168 153.396 149.598 151.162 149.687 149.285L150.089 143.61C150.268 142.002 149.419 141.242 148.212 141.6ZM161.662 133.78C161.707 134.048 161.707 134.361 161.707 134.674L161.17 140.527C160.992 142.359 159.562 144.638 157.953 145.576L156.479 146.425C156.211 146.559 155.987 146.693 155.764 146.738C156.032 147.9 157.06 148.257 158.355 147.498L159.83 146.649C161.438 145.71 162.868 143.476 163.047 141.6L163.583 135.746C163.762 134.182 162.913 133.423 161.662 133.78ZM134.673 149.374C134.763 149.643 134.763 149.955 134.763 150.313L134.495 155.809C134.405 157.641 133.02 159.92 131.412 160.858L129.937 161.707C129.669 161.886 129.401 161.975 129.133 162.02C129.446 163.181 130.518 163.494 131.814 162.735L133.288 161.886C134.897 160.947 136.282 158.713 136.371 156.836L136.64 151.34C136.729 149.866 135.925 149.062 134.673 149.374ZM143.387 126.139C143.476 124.575 142.627 123.816 141.421 124.129C141.51 124.397 141.51 124.71 141.51 125.067L141.242 130.563C141.152 132.395 139.767 134.674 138.159 135.612L136.684 136.461C136.416 136.64 136.148 136.729 135.88 136.774C136.193 137.936 137.265 138.248 138.561 137.489L140.035 136.64C141.644 135.701 143.029 133.467 143.119 131.591L143.387 126.139ZM129.892 134.004C129.937 132.484 129.088 131.68 127.882 131.993C127.971 132.261 128.016 132.574 127.971 132.931L127.837 138.293C127.792 140.17 126.452 142.404 124.843 143.342L123.324 144.191C123.056 144.37 122.743 144.459 122.475 144.549C122.833 145.666 123.905 146.023 125.201 145.264L126.72 144.37C128.329 143.432 129.669 141.197 129.714 139.321L129.892 134.004ZM168.409 108.534C168.454 108.802 168.454 109.115 168.454 109.428L167.917 115.281C167.739 117.113 166.309 119.392 164.7 120.331L163.226 121.18C163.002 121.314 162.734 121.448 162.511 121.492C162.779 122.654 163.807 123.012 165.102 122.252L166.577 121.403C168.186 120.465 169.615 118.231 169.794 116.354L170.33 110.5C170.464 108.937 169.66 108.177 168.409 108.534ZM156.881 118.32C156.97 116.756 156.166 115.996 154.915 116.354C154.959 116.622 155.004 116.935 154.959 117.292L154.557 122.967C154.423 124.799 153.038 127.078 151.43 128.016L149.955 128.865C149.687 128.999 149.463 129.133 149.195 129.178C149.463 130.34 150.536 130.697 151.832 129.937L153.306 129.088C154.915 128.15 156.345 125.916 156.434 124.039L156.881 118.32Z" fill="white"/>
<path d="M46.9612 131.68C45.3526 130.741 43.9228 128.507 43.7441 126.631L43.2079 120.777C43.1632 120.42 43.2079 120.152 43.2526 119.883C42.0014 119.481 41.1971 120.286 41.3312 121.85L41.8674 127.703C42.0461 129.535 43.476 131.814 45.0845 132.752L46.5591 133.601C47.8549 134.361 48.8826 134.003 49.1507 132.841C48.9273 132.797 48.7039 132.663 48.4358 132.529L46.9612 131.68ZM73.5028 147.006C71.8942 146.068 70.509 143.833 70.4197 141.957L70.1516 136.461C70.1516 136.103 70.1516 135.791 70.2409 135.522C69.0345 135.21 68.1855 135.969 68.2749 137.533L68.543 143.029C68.6324 144.906 70.0175 147.14 71.6261 148.078L73.1006 148.927C74.3964 149.687 75.4688 149.329 75.7816 148.212C75.5135 148.168 75.2454 148.034 74.9773 147.9L73.5028 147.006ZM60.232 139.32C58.6234 138.382 57.1936 136.148 57.0595 134.271L56.6574 128.597C56.6127 128.239 56.6574 127.926 56.7021 127.703C55.4509 127.345 54.6467 128.105 54.736 129.669L55.1382 135.344C55.2722 137.22 56.6574 139.455 58.266 140.393L59.7405 141.242C61.0363 142.001 62.1087 141.644 62.3768 140.482C62.1534 140.438 61.8853 140.303 61.6172 140.169L60.232 139.32ZM101.653 163.27L100.134 162.377C98.5251 161.438 97.1846 159.204 97.1846 157.328L97.14 152.1C97.14 151.742 97.1846 151.43 97.274 151.117C96.0676 150.849 95.2186 151.653 95.2633 153.172L95.308 158.355C95.308 160.232 96.6484 162.466 98.257 163.404L99.7762 164.298C101.072 165.058 102.189 164.7 102.547 163.583C102.234 163.539 101.966 163.449 101.653 163.27ZM86.8182 154.691C85.2097 153.753 83.8692 151.519 83.8245 149.642L83.6904 144.28C83.6904 143.923 83.7351 143.61 83.7798 143.342C82.5734 143.029 81.7244 143.833 81.7691 145.353L81.9478 150.715C81.9925 152.591 83.333 154.825 84.9416 155.764L86.4608 156.613C87.7566 157.372 88.829 157.015 89.1864 155.898C88.9183 155.853 88.6502 155.719 88.3375 155.54L86.8182 154.691Z" fill="#039A38"/>
<path d="M40.2588 106.434C38.6503 105.496 37.2204 103.262 37.0417 101.385L36.5055 95.5315C36.4608 95.1741 36.5055 94.906 36.5502 94.6379C35.299 94.2357 34.4948 95.04 34.6288 96.6039L35.165 102.457C35.3437 104.289 36.7736 106.568 38.3822 107.506L39.8567 108.355C41.1525 109.115 42.1802 108.758 42.4483 107.596C42.2249 107.551 42.0015 107.417 41.7334 107.283L40.2588 106.434ZM66.8004 121.76C65.1918 120.822 63.8066 118.588 63.7173 116.711L63.4492 111.215C63.4492 110.858 63.4492 110.545 63.5385 110.277C62.3321 109.964 61.4831 110.724 61.5725 112.288L61.8406 117.784C61.93 119.66 63.3151 121.894 64.9237 122.833L66.3982 123.682C67.694 124.441 68.7664 124.084 69.0792 122.967C68.8111 122.922 68.543 122.788 68.2749 122.654L66.8004 121.76ZM53.4849 114.075C51.8763 113.137 50.4465 110.902 50.3125 109.026L49.9103 103.351C49.8656 102.994 49.9103 102.681 49.955 102.457C48.7039 102.1 47.8996 102.859 47.9889 104.423L48.3911 110.098C48.5251 111.93 49.9103 114.209 51.5189 115.147L52.9934 115.996C54.2892 116.756 55.3616 116.398 55.6297 115.237C55.4063 115.192 55.1382 115.058 54.8701 114.924L53.4849 114.075ZM80.0712 129.446C78.4626 128.507 77.1221 126.273 77.0774 124.397L76.9434 119.035C76.9434 118.677 76.9881 118.364 77.0327 118.096C75.8263 117.784 74.9773 118.588 75.022 120.107L75.1561 125.469C75.2007 127.346 76.5412 129.58 78.1498 130.518L79.669 131.412C80.9648 132.171 82.0372 131.814 82.3947 130.697C82.1266 130.652 81.8585 130.518 81.5457 130.339L80.0712 129.446ZM93.4313 137.131C91.8227 136.193 90.4823 133.959 90.4823 132.082L90.4376 126.854C90.4376 126.497 90.4822 126.184 90.5716 125.871C89.3652 125.603 88.5162 126.407 88.5609 127.927L88.6056 133.11C88.6056 134.986 89.9461 137.221 91.5546 138.159L93.0739 139.053C94.3697 139.812 95.4867 139.455 95.8442 138.338C95.5761 138.293 95.2633 138.159 94.9952 137.98L93.4313 137.131ZM108.981 146.112L107.462 145.219C105.853 144.28 104.513 142.046 104.513 140.17L104.468 134.942C104.468 134.584 104.513 134.271 104.602 133.959C103.396 133.691 102.547 134.495 102.591 135.969L102.636 141.197C102.636 143.074 103.976 145.308 105.585 146.246L107.104 147.14C108.4 147.9 109.517 147.542 109.875 146.425C109.562 146.38 109.249 146.291 108.981 146.112Z" fill="#039A38"/>
<path opacity="0.2" d="M86.8183 154.691C85.2097 153.753 83.8692 151.519 83.8245 149.642L83.6905 144.28C83.6905 143.923 83.7352 143.61 83.7798 143.342C82.5734 143.029 81.7244 143.834 81.7691 145.353L81.9478 150.715C81.9925 152.591 83.333 154.826 84.9416 155.764L86.4608 156.658C87.7566 157.417 88.829 157.06 89.1865 155.943C88.9184 155.898 88.6503 155.764 88.3375 155.585L86.8183 154.691ZM73.5028 147.006C71.8942 146.068 70.5091 143.834 70.4197 141.957L70.1516 136.461C70.1516 136.103 70.1516 135.791 70.241 135.523C69.0345 135.21 68.1856 135.969 68.2749 137.533L68.543 143.029C68.6324 144.906 70.0176 147.14 71.6261 148.078L73.1007 148.927C74.3965 149.687 75.4688 149.33 75.7816 148.212C75.5135 148.168 75.2454 148.034 74.9773 147.9L73.5028 147.006ZM46.9612 131.68C45.3527 130.742 43.9228 128.507 43.7441 126.631L43.2079 120.777C43.1632 120.42 43.2079 120.152 43.2526 119.884C42.0015 119.481 41.1972 120.286 41.3312 121.85L41.8674 127.703C42.0461 129.535 43.476 131.814 45.0846 132.752L46.5591 133.601C47.8549 134.361 48.8826 134.003 49.1507 132.842C48.9273 132.797 48.7039 132.663 48.4358 132.529L46.9612 131.68ZM100.134 162.377C98.5252 161.439 97.1847 159.204 97.1847 157.328L97.14 152.1C97.14 151.742 97.1847 151.43 97.274 151.117C96.0676 150.849 95.2186 151.653 95.2633 153.128L95.308 158.311C95.308 160.187 96.6485 162.422 98.257 163.36L99.7763 164.254C101.072 165.013 102.189 164.656 102.547 163.539C102.279 163.494 101.966 163.36 101.698 163.181L100.134 162.377ZM60.232 139.321C58.6234 138.382 57.1936 136.148 57.0596 134.271L56.6574 128.597C56.6127 128.239 56.6574 127.927 56.7021 127.703C55.451 127.346 54.6467 128.105 54.736 129.669L55.1382 135.344C55.2722 137.221 56.6574 139.455 58.266 140.393L59.7405 141.242C61.0363 142.002 62.1087 141.644 62.3768 140.482C62.1534 140.438 61.8853 140.304 61.6172 140.17L60.232 139.321ZM42.4036 107.596C42.1802 107.551 41.9568 107.417 41.6887 107.283L40.2142 106.434C38.6056 105.496 37.1757 103.262 36.997 101.385L36.4608 95.5315C36.4161 95.1741 36.4608 94.906 36.5055 94.6379C35.2544 94.2357 34.4501 95.04 34.5841 96.6039L35.1203 102.457C35.299 104.289 36.7289 106.568 38.3375 107.506L39.812 108.355C41.1078 109.115 42.1355 108.758 42.4036 107.596ZM55.7191 115.237C55.4957 115.192 55.2276 115.058 54.9595 114.924L53.4849 114.075C51.8764 113.137 50.4465 110.902 50.3125 109.026L49.9103 103.351C49.8656 102.994 49.9103 102.681 49.955 102.457C48.7039 102.1 47.8996 102.859 47.989 104.423L48.3911 110.098C48.5251 111.93 49.9103 114.209 51.5189 115.147L52.9934 115.996C54.3786 116.756 55.451 116.398 55.7191 115.237ZM82.4394 130.652C82.1713 130.607 81.9032 130.473 81.5904 130.295L80.0712 129.446C78.4626 128.507 77.1221 126.273 77.0774 124.397L76.9434 119.035C76.9434 118.677 76.9881 118.364 77.0327 118.096C75.8263 117.784 74.9773 118.588 75.022 120.107L75.1561 125.469C75.2007 127.346 76.5412 129.58 78.1498 130.518L79.669 131.412C80.9648 132.127 82.0819 131.769 82.4394 130.652ZM69.0792 122.922C68.8111 122.877 68.543 122.743 68.2749 122.609L66.8004 121.76C65.1918 120.822 63.8067 118.588 63.7173 116.711L63.4492 111.215C63.4492 110.858 63.4492 110.545 63.5385 110.277C62.3321 109.964 61.4831 110.724 61.5725 112.288L61.8406 117.784C61.93 119.66 63.3151 121.894 64.9237 122.833L66.3983 123.682C67.694 124.441 68.7218 124.084 69.0792 122.922ZM95.7995 138.338C95.5314 138.293 95.2186 138.159 94.9505 137.98L93.4313 137.086C91.8227 136.148 90.4823 133.914 90.4823 132.037L90.4376 126.809C90.4376 126.452 90.4823 126.139 90.5716 125.826C89.3652 125.558 88.5162 126.363 88.5609 127.882L88.6056 133.065C88.6056 134.942 89.9461 137.176 91.5546 138.114L93.0739 139.008C94.325 139.812 95.442 139.499 95.7995 138.338ZM108.981 146.112L107.462 145.219C105.853 144.28 104.513 142.046 104.513 140.17L104.468 134.942C104.468 134.584 104.513 134.271 104.602 133.959C103.396 133.691 102.547 134.495 102.591 135.969L102.636 141.197C102.636 143.074 103.976 145.308 105.585 146.246L107.104 147.14C108.4 147.9 109.517 147.542 109.875 146.425C109.562 146.38 109.249 146.291 108.981 146.112Z" fill="white"/>
<path d="M182.931 82.7969V92.9399C182.931 93.5654 182.529 94.191 181.68 94.6825L117.203 131.903C116.354 132.395 115.281 132.618 114.209 132.618V122.52C115.281 122.52 116.398 122.296 117.203 121.805L181.68 84.5842C182.574 84.0927 182.976 83.3778 182.931 82.7075C182.931 82.7522 182.931 82.7969 182.931 82.7969Z" fill="#039A38"/>
<path opacity="0.2" d="M182.931 82.7969V92.9399C182.931 93.5654 182.529 94.191 181.68 94.6825L117.203 131.903C116.354 132.395 115.281 132.618 114.209 132.618V122.52C115.281 122.52 116.398 122.296 117.203 121.805L181.68 84.5842C182.574 84.0927 182.976 83.3778 182.931 82.7075C182.931 82.7522 182.931 82.7969 182.931 82.7969Z" fill="white"/>
<path d="M114.209 122.52V132.618C113.137 132.618 112.019 132.395 111.215 131.903L23.9945 81.5458C23.1455 81.0543 22.7433 80.4287 22.7433 79.8032C22.7433 79.1776 22.7433 70.3304 22.7433 69.7049C22.7433 69.6602 22.7433 69.6155 22.7433 69.5708C22.6987 70.241 23.1008 70.9113 23.9945 71.4475L111.215 121.805C112.019 122.252 113.137 122.52 114.209 122.52Z" fill="#039A38"/>
<path d="M182.931 82.7971C182.931 83.4227 182.529 84.0482 181.68 84.5398L117.203 121.76C115.549 122.699 112.824 122.699 111.171 121.76L23.9945 71.4477C23.1456 70.9562 22.7434 70.3306 22.7434 69.7051H28.999L112.288 117.828C113.494 118.543 115.013 118.543 116.264 117.828L176.81 82.8418H182.931V82.7971Z" fill="#039A38"/>
<path opacity="0.4" d="M182.931 82.7971C182.931 83.4227 182.529 84.0482 181.68 84.5398L117.203 121.76C115.549 122.699 112.824 122.699 111.171 121.76L23.9945 71.4477C23.1456 70.9562 22.7434 70.3306 22.7434 69.7051H28.999L112.288 117.828C113.494 118.543 115.013 118.543 116.264 117.828L176.81 82.8418H182.931V82.7971Z" fill="white"/>
<path d="M144.862 8.17712V59.7857L142.627 58.4899V8.53458C142.627 8.08775 142.136 7.81966 141.778 8.04307L134.004 12.5113L77.4799 45.1298C75.8266 46.0681 74.4862 48.8831 74.4862 51.43V109.786C74.4862 110.322 74.2181 110.769 73.7712 111.037L72.252 111.886L71.6711 112.199L72.252 110.903V50.1342C72.252 47.5873 73.5925 44.7723 75.2458 43.834L141.868 5.27274C142.181 5.09401 142.493 5.00464 142.806 4.95996C142.851 4.95996 142.895 4.95996 142.94 4.95996C142.985 4.95996 143.074 4.95996 143.119 4.95996C143.253 4.95996 143.387 5.00464 143.521 5.04933C143.521 5.04933 143.521 5.04933 143.566 5.04933C144.325 5.49615 144.862 6.61322 144.862 8.17712Z" fill="#37474F"/>
<path d="M141.868 5.31719L75.2457 43.8784C73.5924 44.8167 72.2519 47.6318 72.2519 50.1787V110.992C72.2519 112.243 71.403 112.735 70.3306 112.109L65.5942 109.383C64.5218 108.758 63.6729 107.283 63.6729 106.032V45.1742C63.6729 42.6273 65.0133 39.8123 66.6219 38.8739L133.423 0.223354C133.914 -0.0894253 134.54 -0.0894253 135.076 0.223354L142.895 4.73631L143.7 5.18314C143.074 4.87036 142.449 4.95973 141.868 5.31719Z" fill="#455A64"/>
<path d="M141.778 8.04283L134.003 12.5111V53.4852L142.627 58.445V8.48966C142.627 8.13219 142.136 7.81942 141.778 8.04283Z" fill="#263238"/>
<path d="M65.5941 101.564C65.1472 101.832 64.8792 102.368 64.8792 103.128C64.8792 104.647 65.9515 106.524 67.2473 107.283C67.9176 107.685 68.4985 107.685 68.9453 107.462C69.2134 107.328 70.1964 106.747 70.4645 106.568C70.9113 106.3 71.1794 105.764 71.1794 105.004C71.1794 103.485 70.107 101.608 68.8112 100.849C68.141 100.447 67.5601 100.447 67.1133 100.67C66.8452 100.849 65.8622 101.43 65.5941 101.564Z" fill="#263238"/>
<path d="M67.2919 107.239C67.9621 107.641 68.543 107.641 68.9898 107.417C69.4367 107.194 69.7048 106.613 69.7048 105.853C69.7048 104.334 68.6324 102.458 67.3366 101.698C66.6663 101.296 66.0855 101.296 65.6386 101.519C65.1918 101.787 64.9237 102.324 64.9237 103.083C64.879 104.647 65.9514 106.479 67.2919 107.239Z" fill="#37474F"/>
<path d="M16.0858 84.0481L12.5112 83.6459C12.1537 83.6012 11.8856 83.3331 11.8409 82.9757L11.4388 78.418C11.4388 78.284 11.3047 78.1946 11.2154 78.1946C11.0813 78.1946 10.9919 78.284 10.9919 78.418L10.5898 82.9757C10.5451 83.3331 10.277 83.6012 9.91956 83.6459L6.34494 84.0481C6.21089 84.0481 6.12153 84.1821 6.12153 84.2715C6.12153 84.4055 6.21089 84.4949 6.34494 84.4949L9.91956 84.897C10.277 84.9417 10.5451 85.2098 10.5898 85.5673L10.9919 90.1249C10.9919 90.259 11.126 90.3483 11.2154 90.3483C11.3494 90.3483 11.4388 90.259 11.4388 90.1249L11.8409 85.5673C11.8856 85.2098 12.1537 84.9417 12.5112 84.897L16.0858 84.4949C16.2198 84.4949 16.3092 84.3608 16.3092 84.2715C16.2645 84.1821 16.1751 84.0927 16.0858 84.0481ZM12.4218 84.4502C11.8409 84.4949 11.3941 84.9864 11.3494 85.5673L11.1707 87.4439L10.9919 85.5673C10.9473 84.9864 10.5004 84.5396 9.91956 84.4502L8.5344 84.3161L9.91956 84.1821C10.5004 84.1374 10.9473 83.6459 10.9919 83.065L11.1707 81.1884L11.3494 83.065C11.3941 83.6459 11.8409 84.0927 12.4218 84.1821L13.807 84.3161L12.4218 84.4502ZM173.771 26.5414L169.392 26.0498C168.945 26.0052 168.543 25.603 168.499 25.1562L168.007 19.5708C168.007 19.4815 167.918 19.3921 167.828 19.3921C167.739 19.3921 167.65 19.4815 167.65 19.5708L167.113 25.1562C167.069 25.603 166.711 26.0052 166.22 26.0498L161.841 26.5414C161.752 26.5414 161.662 26.6307 161.662 26.7201C161.662 26.8094 161.752 26.8988 161.841 26.8988L166.22 27.3903C166.667 27.435 167.069 27.8372 167.113 28.284L167.605 33.8693C167.605 33.9587 167.694 34.0481 167.784 34.0481C167.873 34.0481 167.962 33.9587 167.962 33.8693L168.454 28.284C168.499 27.8372 168.856 27.435 169.348 27.3903L173.727 26.8988C173.816 26.8988 173.905 26.8094 173.905 26.7201C173.95 26.6307 173.905 26.5414 173.771 26.5414ZM169.392 27.0329C168.722 27.1222 168.231 27.6137 168.141 28.284L167.828 31.6352L167.516 28.284C167.471 27.6137 166.935 27.0775 166.265 27.0329L163.718 26.7648L166.265 26.4967C166.935 26.4073 167.426 25.9158 167.516 25.2456L167.828 21.8943L168.141 25.2456C168.186 25.9158 168.722 26.452 169.392 26.4967L171.939 26.7648L169.392 27.0329ZM8.2663 41.0186L10.5451 41.2867C10.7685 41.3313 10.9473 41.5101 10.9473 41.6888L11.2154 44.5932C11.2154 44.6825 11.3047 44.7272 11.3494 44.7272C11.4388 44.7272 11.4835 44.6825 11.4835 44.5932L11.7516 41.6888C11.7516 41.4654 11.9303 41.2867 12.1537 41.2867L14.4325 41.0186C14.5219 41.0186 14.5666 40.9292 14.5666 40.8845C14.5666 40.7951 14.5219 40.7505 14.4325 40.7505L12.1537 40.4824C11.9303 40.4377 11.7516 40.259 11.7516 40.0802L11.4835 37.1758C11.4835 37.0865 11.3941 37.0418 11.3494 37.0418C11.26 37.0418 11.2154 37.0865 11.2154 37.1758L10.9473 40.0802C10.9473 40.3036 10.7685 40.4824 10.5451 40.4824L8.2663 40.7505C8.17693 40.7505 8.13225 40.8398 8.13225 40.8845C8.13225 40.9739 8.22162 41.0186 8.2663 41.0186ZM10.5898 40.7952C10.9473 40.7505 11.26 40.4377 11.26 40.0802L11.3494 38.8738L11.4388 40.0802C11.4835 40.4377 11.7516 40.7505 12.109 40.7952L13.0027 40.8845L12.109 40.9739C11.7516 41.0186 11.4388 41.3313 11.4388 41.6888L11.3941 42.8952L11.3047 41.6888C11.26 41.3313 10.9919 41.0186 10.6345 40.9739L9.74083 40.8845L10.5898 40.7952ZM67.0241 11.7514L69.3029 12.0195C69.5264 12.0641 69.7051 12.2429 69.7051 12.4216L69.9732 15.326C69.9732 15.4153 70.0625 15.46 70.1072 15.46C70.1966 15.46 70.2413 15.4153 70.2413 15.326L70.5094 12.4216C70.5094 12.1982 70.6881 12.0195 70.9115 12.0195L73.1903 11.7514C73.2797 11.7514 73.3244 11.662 73.3244 11.6173C73.3244 11.5726 73.2797 11.4833 73.1903 11.4833L70.9115 11.2152C70.6881 11.1705 70.5094 10.9918 70.5094 10.813L70.2413 7.90864C70.2413 7.81928 70.1519 7.77459 70.1072 7.77459C70.0179 7.77459 69.9732 7.81928 69.9732 7.90864L69.7051 10.813C69.7051 11.0364 69.5264 11.2152 69.3029 11.2152L67.0241 11.4833C66.9348 11.4833 66.8901 11.5726 66.8901 11.6173C66.8901 11.662 66.9348 11.7514 67.0241 11.7514ZM69.3476 11.4833C69.7051 11.4386 70.0179 11.1258 70.0179 10.7683L70.1072 9.5619L70.1966 10.7683C70.2413 11.1258 70.5094 11.4386 70.8668 11.4833L71.7605 11.5726L70.8668 11.662C70.5094 11.7067 70.1966 12.0195 70.1966 12.3769L70.1072 13.5834L70.0179 12.3769C69.9732 12.0195 69.7051 11.7067 69.3476 11.662L68.454 11.5726L69.3476 11.4833ZM20.3306 47.9891L22.6095 48.2572C22.8329 48.3018 23.0116 48.4806 23.0116 48.6593L23.2797 51.5637C23.2797 51.6531 23.3691 51.6977 23.4138 51.6977C23.5031 51.6977 23.5478 51.6531 23.5478 51.5637L23.8159 48.6593C23.8159 48.4359 23.9946 48.2572 24.218 48.2572L26.4969 47.9891C26.5862 47.9891 26.6309 47.8997 26.6309 47.855C26.6309 47.7657 26.5862 47.721 26.4969 47.721L24.218 47.4529C23.9946 47.4082 23.8159 47.2295 23.8159 47.0507L23.5478 44.1464C23.5478 44.057 23.4584 44.0123 23.4138 44.0123C23.3244 44.0123 23.2797 44.057 23.2797 44.1464L23.0116 47.0507C23.0116 47.2741 22.8329 47.4529 22.6095 47.4529L20.3306 47.721C20.2413 47.721 20.1966 47.8103 20.1966 47.855C20.1966 47.8997 20.2413 47.9891 20.3306 47.9891ZM22.6541 47.721C23.0116 47.6763 23.3244 47.3635 23.3244 47.0061L23.4138 45.7996L23.5031 47.0061C23.5478 47.3635 23.8159 47.6763 24.1734 47.721L25.067 47.8103L24.1734 47.8997C23.8159 47.9444 23.5031 48.2572 23.5031 48.6146L23.4138 49.8211L23.3244 48.6146C23.2797 48.2572 23.0116 47.9444 22.6541 47.8997L21.7605 47.8103L22.6541 47.721ZM186.372 46.5592L188.651 46.8273C188.874 46.872 189.053 47.0507 189.053 47.2295L189.321 50.1338C189.321 50.2232 189.41 50.2679 189.455 50.2679C189.544 50.2679 189.589 50.2232 189.589 50.1338L189.857 47.2295C189.857 47.0061 190.036 46.8273 190.259 46.8273L192.538 46.5592C192.627 46.5592 192.672 46.4699 192.672 46.4252C192.672 46.3358 192.627 46.2911 192.538 46.2911L190.349 46.023C190.125 45.9783 189.946 45.7996 189.946 45.6209L189.678 42.7165C189.678 42.6271 189.589 42.5825 189.544 42.5825C189.455 42.5825 189.41 42.6271 189.41 42.7165L189.142 45.6209C189.142 45.8443 188.963 46.023 188.74 46.023L186.461 46.2911C186.372 46.2911 186.327 46.3805 186.327 46.4252C186.238 46.4699 186.327 46.5592 186.372 46.5592ZM188.695 46.2911C189.053 46.2464 189.365 45.9337 189.365 45.5762L189.455 44.3698L189.544 45.5762C189.589 45.9337 189.857 46.2464 190.214 46.2911L191.108 46.3805L190.214 46.4699C189.857 46.5145 189.544 46.8273 189.544 47.1848L189.455 48.3912L189.365 47.1848C189.321 46.8273 189.053 46.5145 188.695 46.4699L187.802 46.3805L188.695 46.2911ZM155.585 15.6388L157.373 15.8175C157.551 15.8175 157.685 15.9962 157.685 16.1303L157.909 18.4091C157.909 18.4538 157.954 18.4985 158.043 18.4985C158.088 18.4985 158.177 18.4538 158.177 18.4091L158.4 16.1303C158.4 15.9515 158.534 15.8175 158.713 15.8175L160.5 15.6388C160.545 15.6388 160.59 15.5941 160.59 15.5047C160.59 15.46 160.545 15.3707 160.5 15.3707L158.713 15.1919C158.534 15.1919 158.4 15.0132 158.4 14.8792L158.177 12.6003C158.177 12.5556 158.132 12.511 158.043 12.511C157.998 12.511 157.909 12.5556 157.909 12.6003L157.685 14.8792C157.685 15.0579 157.551 15.1919 157.373 15.1919L155.585 15.3707C155.541 15.3707 155.496 15.4153 155.496 15.5047C155.451 15.5494 155.541 15.5941 155.585 15.6388ZM157.417 15.4153C157.685 15.3707 157.954 15.1472 157.954 14.8792L158.043 13.9408L158.132 14.8792C158.177 15.1472 158.4 15.4153 158.668 15.4153L159.383 15.5047L158.668 15.5941C158.4 15.6388 158.132 15.8622 158.132 16.1303L158.043 17.0686L157.954 16.1303C157.909 15.8622 157.685 15.5941 157.417 15.5941L156.702 15.5047L157.417 15.4153ZM182.395 9.87468L184.495 10.0981C184.718 10.1428 184.853 10.2768 184.897 10.5002L185.121 13.1812C185.121 13.2706 185.21 13.3153 185.255 13.3153C185.344 13.3153 185.389 13.2706 185.389 13.1812L185.612 10.5002C185.612 10.2768 185.791 10.1428 186.014 10.0981L188.114 9.87468C188.204 9.87468 188.248 9.78532 188.248 9.74064C188.248 9.65127 188.204 9.60659 188.114 9.60659L186.014 9.38317C185.791 9.33849 185.657 9.20444 185.612 8.98103L185.389 6.30006C185.389 6.2107 185.299 6.16602 185.255 6.16602C185.165 6.16602 185.121 6.2107 185.121 6.30006L184.897 8.98103C184.897 9.20444 184.718 9.33849 184.495 9.38317L182.395 9.60659C182.306 9.60659 182.261 9.69595 182.261 9.74064C182.261 9.78532 182.306 9.87468 182.395 9.87468ZM184.54 9.65127C184.897 9.60659 185.165 9.33849 185.165 8.98103L185.255 7.86396L185.344 8.98103C185.389 9.33849 185.657 9.60659 185.97 9.65127L186.819 9.74064L185.97 9.83C185.612 9.87468 185.344 10.1428 185.344 10.5002L185.255 11.6173L185.165 10.5002C185.121 10.1428 184.853 9.87468 184.54 9.83L183.691 9.74064L184.54 9.65127ZM204.826 94.8166L202.994 94.6379C202.815 94.6379 202.681 94.4591 202.681 94.2804L202.458 91.9569C202.458 91.9122 202.413 91.8229 202.323 91.8229C202.279 91.8229 202.189 91.8675 202.189 91.9569L201.966 94.2804C201.966 94.4591 201.832 94.5932 201.653 94.6379L199.821 94.8166C199.777 94.8166 199.732 94.8613 199.732 94.9506C199.732 94.9953 199.777 95.0847 199.821 95.0847L201.653 95.2634C201.832 95.2634 201.966 95.4422 201.966 95.6209L202.189 97.9444C202.189 97.9891 202.234 98.0784 202.323 98.0784C202.368 98.0784 202.458 98.0338 202.458 97.9444L202.681 95.6209C202.681 95.4422 202.815 95.3081 202.994 95.2634L204.826 95.0847C204.87 95.0847 204.915 95.04 204.915 94.9506C204.96 94.906 204.915 94.8613 204.826 94.8166ZM202.994 95.04C202.726 95.0847 202.458 95.3081 202.458 95.5762L202.368 96.5145L202.279 95.5762C202.234 95.2634 202.011 95.04 201.743 95.04L201.028 94.9506L201.743 94.8613C202.011 94.8166 202.279 94.5932 202.279 94.3251L202.368 93.3867L202.458 94.3251C202.502 94.6379 202.726 94.8613 202.994 94.8613L203.709 94.9506L202.994 95.04ZM6.38962 101.296L4.1108 101.028C3.88739 100.983 3.70866 100.804 3.70866 100.625L3.44056 97.721C3.44056 97.6316 3.3512 97.5869 3.30651 97.5869C3.21715 97.5869 3.17247 97.6316 3.17247 97.721L2.90437 100.625C2.90437 100.849 2.72564 101.028 2.50222 101.028L0.223404 101.296C0.134038 101.296 0.0893555 101.385 0.0893555 101.43C0.0893555 101.519 0.134038 101.564 0.223404 101.564L2.50222 101.832C2.72564 101.876 2.90437 102.055 2.90437 102.234L3.17247 105.138C3.17247 105.228 3.26183 105.272 3.30651 105.272C3.39588 105.272 3.44056 105.228 3.44056 105.138L3.70866 102.234C3.70866 102.011 3.88739 101.832 4.1108 101.832L6.38962 101.564C6.47899 101.564 6.52367 101.474 6.52367 101.43C6.52367 101.385 6.43431 101.296 6.38962 101.296ZM4.06612 101.564C3.70866 101.608 3.39588 101.921 3.39588 102.279L3.30651 103.485L3.12778 102.234C3.0831 101.876 2.815 101.564 2.45754 101.519L1.56389 101.43L2.45754 101.34C2.815 101.296 3.12778 100.983 3.12778 100.625L3.21715 99.4189L3.30651 100.625C3.3512 100.983 3.61929 101.296 3.97675 101.34L4.87041 101.43L4.06612 101.564ZM199.062 80.7862L196.247 80.4734C195.979 80.4287 195.755 80.2053 195.755 79.9372L195.442 76.3179C195.442 76.2286 195.353 76.1392 195.264 76.1392C195.174 76.1392 195.085 76.2286 195.085 76.3179L194.772 79.9372C194.727 80.2053 194.549 80.4287 194.281 80.4734L191.466 80.7862C191.376 80.7862 191.287 80.8756 191.287 80.9649C191.287 81.0543 191.376 81.1437 191.466 81.1437L194.281 81.4565C194.549 81.5011 194.772 81.7245 194.772 81.9926L195.085 85.612C195.085 85.7013 195.174 85.7907 195.264 85.7907C195.353 85.7907 195.442 85.7013 195.442 85.612L195.755 81.9926C195.8 81.7245 195.979 81.5011 196.247 81.4565L199.062 81.1437C199.151 81.1437 199.24 81.0543 199.24 80.9649C199.24 80.8756 199.196 80.7862 199.062 80.7862ZM196.202 81.099C195.755 81.1437 195.398 81.5011 195.353 81.948L195.219 83.4225L195.085 81.948C195.04 81.5011 194.683 81.1437 194.236 81.099L193.119 80.9649L194.236 80.8309C194.683 80.7862 195.04 80.4287 195.085 79.9819L195.219 78.5074L195.353 79.9819C195.398 80.4287 195.755 80.7862 196.202 80.8309L197.319 80.9649L196.202 81.099ZM25.8266 13.0025L23.5478 12.7344C23.3244 12.6897 23.1457 12.511 23.1457 12.3322L22.8776 9.42786C22.8776 9.33849 22.7882 9.29381 22.7435 9.29381C22.6541 9.29381 22.6095 9.33849 22.6095 9.42786L22.3414 12.3322C22.3414 12.5556 22.1626 12.7344 21.9392 12.7344L19.6604 13.0025C19.571 13.0025 19.5264 13.0918 19.5264 13.1365C19.5264 13.2259 19.571 13.2706 19.6604 13.2706L21.9392 13.5387C22.1626 13.5834 22.3414 13.7621 22.3414 13.9408L22.6095 16.8452C22.6095 16.9346 22.6988 16.9792 22.7435 16.9792C22.8329 16.9792 22.8776 16.9346 22.8776 16.8452L23.1457 13.9408C23.1457 13.7174 23.3244 13.5387 23.5478 13.5387L25.8266 13.2706C25.916 13.2706 25.9607 13.1812 25.9607 13.1365C26.0054 13.0918 25.916 13.0472 25.8266 13.0025ZM23.5478 13.2706C23.1903 13.3153 22.8776 13.628 22.8776 13.9855L22.7435 15.1919L22.6541 13.9855C22.6095 13.628 22.3414 13.3153 21.9839 13.2706L21.0903 13.1812L21.9839 13.0918C22.3414 13.0472 22.6541 12.7344 22.6541 12.3769L22.7435 11.1705L22.8329 12.3769C22.8776 12.7344 23.1457 13.0472 23.5031 13.0918L24.3968 13.1812L23.5478 13.2706ZM183.244 57.0597L178.552 56.5235C178.061 56.4788 177.659 56.0766 177.614 55.5851L177.078 49.5976C177.078 49.5083 176.988 49.4189 176.854 49.4189C176.765 49.4189 176.631 49.5083 176.631 49.5976L176.095 55.5851C176.05 56.0766 175.648 56.4788 175.156 56.5235L170.465 57.0597C170.375 57.0597 170.286 57.149 170.286 57.2831C170.286 57.3724 170.375 57.5065 170.465 57.5065L175.156 58.0427C175.648 58.0874 176.05 58.4895 176.095 58.981L176.631 64.9685C176.631 65.0579 176.72 65.1473 176.854 65.1473C176.944 65.1473 177.078 65.0579 177.078 64.9685L177.614 58.981C177.659 58.4895 178.061 58.0874 178.552 58.0427L183.244 57.5065C183.333 57.5065 183.423 57.4171 183.423 57.2831C183.423 57.1937 183.333 57.1044 183.244 57.0597ZM178.508 57.5959C177.793 57.6852 177.256 58.2214 177.167 58.9363L176.854 62.511L176.542 58.9363C176.497 58.2214 175.916 57.6852 175.201 57.5959L172.475 57.2831L175.201 56.9703C175.916 56.8809 176.452 56.3447 176.542 55.6298L176.854 52.0552L177.167 55.6298C177.212 56.3447 177.793 56.8809 178.508 56.9703L181.233 57.2831L178.508 57.5959ZM62.4218 21.4028L57.7748 20.8666C57.328 20.822 56.9705 20.4645 56.9258 20.0177L56.3896 14.0749C56.3896 13.8961 56.2556 13.8068 56.0768 13.8068C55.8981 13.8068 55.7641 13.9408 55.7641 14.0749L55.2279 20.0177C55.1832 20.4645 54.8257 20.822 54.3789 20.8666L49.7319 21.4028C49.5532 21.4028 49.4638 21.5369 49.4638 21.7156C49.4638 21.8943 49.5978 22.0284 49.7319 22.0284L54.3789 22.5646C54.8257 22.6093 55.1832 22.9667 55.2279 23.4136L55.7641 29.3564C55.7641 29.5351 55.8981 29.6245 56.0768 29.6245C56.2556 29.6245 56.3896 29.4904 56.3896 29.3564L56.9258 23.4136C56.9705 22.9667 57.328 22.6093 57.7748 22.5646L62.4218 22.0284C62.6005 22.0284 62.6899 21.8943 62.6899 21.7156C62.6899 21.5369 62.6005 21.4028 62.4218 21.4028ZM57.6854 21.8943C56.9258 21.9837 56.3449 22.5646 56.3003 23.3242L56.0768 25.7817L55.8534 23.3242C55.8088 22.5646 55.1832 21.9837 54.4683 21.8943L52.6363 21.6709L54.4683 21.4475C55.2279 21.3582 55.8088 20.7773 55.8534 20.0177L56.0768 17.5601L56.3003 20.0177C56.3896 20.7773 56.9705 21.3582 57.6854 21.4475L59.5174 21.6709L57.6854 21.8943Z" fill="#F0F0F0"/>
</g>
<defs>
<clipPath id="clip0_555_1387">
<rect width="208.088" height="200" fill="white"/>
</clipPath>
</defs>
</svg>
