<svg width="463" height="310" viewBox="0 0 663 510" fill="none" xmlns="http://www.w3.org/2000/svg">
<path d="M97.1235 294.953C-32.3745 344.116 -32.3745 423.857 97.1235 473.128C226.621 522.291 436.543 522.291 565.877 473.128C695.374 423.965 695.374 344.116 565.877 294.953C436.379 245.682 226.457 245.682 97.1235 294.953Z" fill="url(#paint0_linear_231_967)"/>
<path d="M97.1235 294.953C-32.3745 344.116 -32.3745 423.857 97.1235 473.128C226.621 522.291 436.543 522.291 565.877 473.128C695.374 423.965 695.374 344.116 565.877 294.953C436.379 245.682 226.457 245.682 97.1235 294.953Z" fill="url(#paint1_linear_231_967)"/>
<path d="M450.614 367.561L366.247 416.293C355.139 422.681 337.415 422.681 326.308 416.293L196.33 341.066C185.223 334.679 185.223 324.27 196.33 318.119L280.698 269.387C291.805 263 309.529 263 320.636 269.387L450.614 344.614C461.485 350.765 461.485 361.174 450.614 367.561Z" fill="#E0E0E0"/>
<path d="M370.697 7.03775L367.388 0.887115C369.515 -0.295705 372.824 -0.295705 374.951 0.887115C377.078 2.06993 378.259 5.14527 377.787 7.51091C374.005 22.8876 361.008 78.0069 360.771 78.4801L355.1 75.1682L370.697 7.03775Z" fill="#E0E0E0"/>
<path opacity="0.25" d="M370.697 7.03775L367.388 0.887115C369.515 -0.295705 372.824 -0.295705 374.951 0.887115C377.078 2.06993 378.259 5.14527 377.787 7.51091C374.005 22.8876 361.008 78.0069 360.771 78.4801L355.1 75.1682L370.697 7.03775Z" fill="black"/>
<path d="M379.914 3.72587C381.804 4.90869 383.695 7.74744 384.168 10.1131L396.693 99.0611L390.312 95.5127L377.078 7.98402L372.352 3.72587C374.478 2.77961 377.787 2.77961 379.914 3.72587Z" fill="#E0E0E0"/>
<path d="M222.286 205.515L346.592 277.43L425.051 232.247L300.509 160.331L222.286 205.515Z" fill="#E0E0E0"/>
<g opacity="0.3">
<path d="M222.286 205.515L346.592 277.43L425.051 232.247L300.509 160.331L222.286 205.515Z" fill="black"/>
</g>
<path d="M300.51 48.673V160.331L222.287 205.515L203.854 104.502L300.51 48.673Z" fill="#E0E0E0"/>
<g opacity="0.15">
<path d="M300.51 48.673V160.331L222.287 205.515L203.854 104.502L300.51 48.673Z" fill="black"/>
</g>
<path d="M443.485 130.997L425.052 232.247L300.51 160.331V48.673L443.485 130.997Z" fill="#E0E0E0"/>
<path d="M449.629 130.997H443.248L300.509 48.673L203.853 104.502L205.271 105.212L197.473 104.502C197.473 103.083 198.654 102.136 199.6 101.663L295.783 46.0708C298.619 44.4149 302.873 44.4149 305.709 46.0708L447.975 128.159C448.211 128.632 449.629 129.814 449.629 130.997Z" fill="#F0F0F0"/>
<path d="M222.286 246.677L346.592 318.592L425.051 273.409L300.509 201.493L222.286 246.677Z" fill="#E0E0E0"/>
<g opacity="0.3">
<path d="M222.286 246.677L346.592 318.592L425.051 273.409L300.509 201.493L222.286 246.677Z" fill="black"/>
</g>
<path d="M300.51 89.8351V201.493L222.287 246.677L203.854 145.664L300.51 89.8351Z" fill="#E0E0E0"/>
<g opacity="0.15">
<path d="M300.51 89.8351V201.493L222.287 246.677L203.854 145.664L300.51 89.8351Z" fill="black"/>
</g>
<path d="M443.485 172.159L425.052 273.409L300.51 201.493V89.8351L443.485 172.159Z" fill="#E0E0E0"/>
<path d="M449.629 172.159H443.248L300.509 89.5986L203.853 145.664L205.271 146.374L197.473 145.664C197.473 144.245 198.654 143.299 199.6 142.825L295.783 87.2329C298.619 85.577 302.873 85.577 305.709 87.2329L447.975 169.321C448.211 169.794 449.629 170.977 449.629 172.159Z" fill="#F0F0F0"/>
<path d="M222.286 328.765L346.592 400.68L425.051 355.496L300.509 283.581L222.286 328.765Z" fill="#E0E0E0"/>
<g opacity="0.3">
<path d="M222.286 328.765L346.592 400.68L425.051 355.496L300.509 283.581L222.286 328.765Z" fill="black"/>
</g>
<path d="M300.51 171.923V283.581L222.287 328.765L203.854 227.752L300.51 171.923Z" fill="#E0E0E0"/>
<g opacity="0.15">
<path d="M300.51 171.923V283.581L222.287 328.765L203.854 227.752L300.51 171.923Z" fill="black"/>
</g>
<path d="M443.485 254.247L425.052 355.496L300.51 283.581V171.923L443.485 254.247Z" fill="#E0E0E0"/>
<path d="M449.629 254.247H443.248L300.509 171.686L203.853 227.515L205.271 228.225L197.473 227.515C197.473 226.096 198.654 225.15 199.6 224.677L295.783 169.084C298.619 167.428 302.873 167.428 305.709 169.084L447.975 251.172C448.211 251.881 449.629 253.064 449.629 254.247Z" fill="#F0F0F0"/>
<path d="M222.286 287.839L346.592 359.755L425.051 314.334L300.509 242.655L222.286 287.839Z" fill="#E0E0E0"/>
<g opacity="0.3">
<path d="M222.286 287.839L346.592 359.755L425.051 314.334L300.509 242.655L222.286 287.839Z" fill="black"/>
</g>
<path d="M300.51 130.761V242.655L222.287 287.839L203.854 186.59L300.51 130.761Z" fill="#E0E0E0"/>
<g opacity="0.15">
<path d="M300.51 130.761V242.655L222.287 287.839L203.854 186.59L300.51 130.761Z" fill="black"/>
</g>
<path d="M443.485 213.321L425.052 314.334L300.51 242.655V130.761L443.485 213.321Z" fill="#E0E0E0"/>
<path d="M449.629 213.322H443.248L300.509 130.761L203.853 186.59L205.271 187.299L197.473 186.59C197.473 185.17 198.654 184.224 199.6 183.751L295.783 128.159C298.619 126.503 302.873 126.503 305.709 128.159L447.975 210.246C448.211 210.719 449.629 211.902 449.629 213.322Z" fill="#F0F0F0"/>
<path d="M346.593 187.063L203.854 104.502L212.125 194.396C212.597 200.547 217.56 208.354 222.996 211.429L336.903 277.194C341.866 280.032 349.428 280.269 354.864 277.903C355.1 277.903 355.1 277.903 355.337 277.667H355.573C355.809 277.43 356.282 277.43 356.518 277.194L424.343 237.924C429.778 234.849 434.505 227.042 435.214 220.891L443.485 130.997L346.593 187.063ZM248.046 202.913C248.046 204.096 247.81 205.278 247.337 205.988C246.392 205.988 245.446 205.515 244.265 205.042L240.484 202.913C236.466 200.547 233.158 194.869 233.158 190.138V157.729C233.158 156.546 233.394 155.363 233.867 154.654C234.812 154.654 235.757 155.127 236.939 155.6L240.72 157.729C244.737 160.095 248.046 165.772 248.046 170.503V202.913ZM284.912 224.203C284.912 225.386 284.676 226.569 284.203 227.279C283.258 227.279 282.313 226.806 281.131 226.332L277.35 224.203C273.332 221.838 270.024 216.16 270.024 211.429V179.02C270.024 177.837 270.26 176.654 270.733 175.944C271.678 175.944 272.623 176.418 273.805 176.891L277.586 179.02C281.604 181.385 284.912 187.063 284.912 191.794V224.203ZM321.779 245.494C321.779 246.677 321.542 247.86 321.07 248.569C320.124 248.569 319.179 248.096 317.998 247.623L314.216 245.494C310.199 243.129 306.89 237.451 306.89 232.72V200.31C306.89 199.128 307.127 197.945 307.599 197.235C308.545 197.235 309.49 197.708 310.671 198.181L314.453 200.31C318.47 202.676 321.779 208.354 321.779 213.085V245.494ZM384.404 233.902C384.404 238.634 381.096 244.311 377.078 246.677L373.297 248.806C372.115 249.516 371.17 249.752 370.225 249.752C369.752 248.806 369.516 247.86 369.516 246.677V214.268C369.516 209.536 372.824 203.859 376.842 201.493L380.623 199.364C381.805 198.655 382.75 198.418 383.695 198.418C384.168 199.364 384.404 200.31 384.404 201.493V233.902ZM416.78 215.214C416.78 219.945 413.472 225.623 409.454 227.988L405.673 230.118C404.492 230.827 403.546 231.064 402.601 231.064C402.128 230.118 401.892 229.171 401.892 227.988V195.579C401.892 190.848 405.201 185.17 409.218 182.805L412.999 180.676C414.181 179.966 415.126 179.729 416.072 179.729C416.544 180.676 416.78 181.622 416.78 182.805V215.214Z" fill="#EBEBEB"/>
<path d="M346.593 187.063V271.516C346.593 277.194 350.138 279.796 354.864 277.903C355.1 277.903 355.1 277.903 355.337 277.667H355.573C355.809 277.43 356.282 277.43 356.518 277.194L424.343 237.924C429.778 234.849 434.505 227.042 435.214 220.891L443.485 130.997L346.593 187.063ZM384.404 233.902C384.404 238.634 381.096 244.311 377.078 246.677L373.297 248.806C372.116 249.516 371.17 249.752 370.225 249.752C369.752 248.806 369.516 247.86 369.516 246.677V214.268C369.516 209.536 372.825 203.859 376.842 201.493L380.623 199.364C381.805 198.655 382.75 198.418 383.695 198.418C384.168 199.364 384.404 200.31 384.404 201.493V233.902ZM416.781 215.214C416.781 219.945 413.472 225.623 409.455 227.988L405.673 230.118C404.492 230.827 403.547 231.064 402.601 231.064C402.129 230.118 401.892 229.171 401.892 227.988V195.579C401.892 190.848 405.201 185.17 409.218 182.805L413 180.676C414.181 179.966 415.126 179.729 416.072 179.729C416.544 180.676 416.781 181.622 416.781 182.805V215.214Z" fill="#F5F5F5"/>
<path d="M388.185 203.386V235.795C388.185 240.526 384.877 246.204 380.859 248.569L377.078 250.699C374.006 252.354 371.643 251.881 370.461 249.516C371.406 249.516 372.352 249.043 373.533 248.569L377.314 246.44C381.332 244.075 384.64 238.397 384.64 233.666V201.257C384.64 200.074 384.404 198.891 383.931 198.181C386.295 198.181 388.185 200.074 388.185 203.386Z" fill="#E0E0E0"/>
<path d="M420.325 184.934V217.343C420.325 222.074 417.016 227.752 412.999 230.118L409.218 232.247C406.145 233.903 403.782 233.429 402.601 231.064C403.546 231.064 404.491 230.591 405.673 230.118L409.454 227.988C413.471 225.623 416.78 219.945 416.78 215.214V182.805C416.78 181.622 416.544 180.439 416.071 179.729C418.671 179.493 420.325 181.385 420.325 184.934Z" fill="#E0E0E0"/>
<path d="M449.63 130.997V141.643C449.63 142.589 448.921 143.772 447.503 144.481L351.556 200.074C350.138 200.784 348.483 201.257 346.593 201.257V190.611C348.247 190.611 350.138 190.138 351.556 189.429L447.739 133.836C449.157 133.126 449.866 131.944 449.63 130.997Z" fill="#E0E0E0"/>
<path d="M346.592 190.611V201.257C344.702 201.257 343.048 200.784 341.63 200.074L199.363 117.986C197.945 117.277 197.236 116.094 197.236 115.147C197.236 114.201 197.236 105.448 197.236 104.502V104.266C197.236 105.448 197.709 106.395 199.363 107.341L341.63 189.429C343.048 190.138 344.938 190.611 346.592 190.611Z" fill="#E0E0E0"/>
<path opacity="0.15" d="M346.592 190.611V201.257C344.702 201.257 343.048 200.784 341.63 200.074L199.363 117.986C197.945 117.277 197.236 116.094 197.236 115.147C197.236 114.201 197.236 105.448 197.236 104.502V104.266C197.236 105.448 197.709 106.395 199.363 107.341L341.63 189.429C343.048 190.138 344.938 190.611 346.592 190.611Z" fill="black"/>
<path d="M449.629 130.997C449.629 131.944 448.92 133.126 447.502 133.836L351.319 189.429C348.483 191.084 344.229 191.084 341.393 189.429L199.127 107.341C197.709 106.631 197 105.448 197 104.502H203.381L300.037 160.331L346.12 187.063L442.776 131.234H449.629V130.997Z" fill="#F0F0F0"/>
<path d="M303.345 202.44V234.849C303.345 239.58 306.653 245.258 310.671 247.623L314.452 249.752C317.524 251.408 319.887 250.935 321.069 248.569C320.124 248.569 319.178 248.096 317.997 247.623L314.216 245.494C310.198 243.129 306.89 237.451 306.89 232.72V200.31C306.89 199.128 307.126 197.945 307.599 197.235C305.235 196.999 303.345 198.891 303.345 202.44Z" fill="#E0E0E0"/>
<path d="M266.479 181.149V213.558C266.479 218.289 269.787 223.967 273.805 226.333L277.586 228.462C280.658 230.118 283.021 229.644 284.203 227.279C283.257 227.279 282.312 226.806 281.131 226.333L277.349 224.203C273.332 221.838 270.023 216.16 270.023 211.429V179.02C270.023 177.837 270.26 176.654 270.732 175.944C268.369 175.708 266.479 177.6 266.479 181.149Z" fill="#E0E0E0"/>
<path d="M229.612 159.858V192.267C229.612 196.999 232.921 202.676 236.938 205.042L240.72 207.171C243.792 208.827 246.155 208.354 247.337 205.988C246.391 205.988 245.446 205.515 244.264 205.042L240.483 202.913C236.466 200.547 233.157 194.869 233.157 190.138V157.729C233.157 156.546 233.394 155.363 233.866 154.654C231.503 154.417 229.612 156.31 229.612 159.858Z" fill="#E0E0E0"/>
<path opacity="0.2" d="M303.345 202.44V234.849C303.345 239.58 306.653 245.258 310.671 247.623L314.452 249.752C317.524 251.408 319.887 250.935 321.069 248.569C320.124 248.569 319.178 248.096 317.997 247.623L314.216 245.494C310.198 243.129 306.89 237.451 306.89 232.72V200.31C306.89 199.128 307.126 197.945 307.599 197.235C305.235 196.999 303.345 198.891 303.345 202.44Z" fill="black"/>
<path opacity="0.2" d="M266.479 181.149V213.558C266.479 218.289 269.787 223.967 273.805 226.333L277.586 228.462C280.658 230.118 283.021 229.644 284.203 227.279C283.257 227.279 282.312 226.806 281.131 226.333L277.349 224.203C273.332 221.838 270.023 216.16 270.023 211.429V179.02C270.023 177.837 270.26 176.654 270.732 175.944C268.369 175.708 266.479 177.6 266.479 181.149Z" fill="black"/>
<path opacity="0.2" d="M229.612 159.858V192.267C229.612 196.999 232.921 202.676 236.938 205.042L240.72 207.171C243.792 208.827 246.155 208.354 247.337 205.988C246.391 205.988 245.446 205.515 244.264 205.042L240.483 202.913C236.466 200.547 233.157 194.869 233.157 190.138V157.729C233.157 156.546 233.394 155.363 233.866 154.654C231.503 154.417 229.612 156.31 229.612 159.858Z" fill="black"/>
<path d="M346.593 228.225L203.854 145.664L212.125 235.558C212.597 241.709 217.56 249.516 222.996 252.591L336.903 318.356C341.866 321.195 349.428 321.431 354.864 319.065C355.1 319.065 355.1 319.066 355.337 318.829H355.573C355.809 318.592 356.282 318.592 356.518 318.356L424.343 279.086C429.778 276.011 434.505 268.204 435.214 262.054L443.485 172.159L346.593 228.225ZM248.046 244.075C248.046 245.258 247.81 246.44 247.337 247.15C246.392 247.15 245.446 246.677 244.265 246.204L240.484 244.075C236.466 241.709 233.158 236.032 233.158 231.3V198.891C233.158 197.708 233.394 196.525 233.867 195.816C234.812 195.816 235.757 196.289 236.939 196.762L240.72 198.891C244.737 201.257 248.046 206.934 248.046 211.666V244.075ZM284.912 265.366C284.912 266.548 284.676 267.731 284.203 268.441C283.258 268.441 282.313 267.968 281.131 267.495L277.35 265.366C273.332 263 270.024 257.322 270.024 252.591V220.182C270.024 218.999 270.26 217.816 270.733 217.107C271.678 217.107 272.623 217.58 273.805 218.053L277.586 220.182C281.604 222.547 284.912 228.225 284.912 232.956V265.366ZM321.779 286.656C321.779 287.839 321.542 289.022 321.07 289.732C320.124 289.732 319.179 289.258 317.998 288.785L314.216 286.656C310.199 284.291 306.89 278.613 306.89 273.882V241.473C306.89 240.29 307.127 239.107 307.599 238.397C308.545 238.397 309.49 238.87 310.671 239.344L314.453 241.473C318.47 243.838 321.779 249.516 321.779 254.247V286.656ZM384.404 275.065C384.404 279.796 381.096 285.473 377.078 287.839L373.297 289.968C372.115 290.678 371.17 290.914 370.225 290.914C369.752 289.968 369.516 289.022 369.516 287.839V255.43C369.516 250.699 372.824 245.021 376.842 242.655L380.623 240.526C381.805 239.817 382.75 239.58 383.695 239.58C384.168 240.526 384.404 241.473 384.404 242.655V275.065ZM416.78 256.376C416.78 261.107 413.472 266.785 409.454 269.151L405.673 271.28C404.492 271.989 403.546 272.226 402.601 272.226C402.128 271.28 401.892 270.333 401.892 269.151V236.741C401.892 232.01 405.201 226.332 409.218 223.967L412.999 221.838C414.181 221.128 415.126 220.891 416.072 220.891C416.544 221.838 416.78 222.784 416.78 223.967V256.376Z" fill="#EBEBEB"/>
<path d="M346.593 228.225V312.678C346.593 318.356 350.138 320.958 354.864 319.065C355.1 319.065 355.1 319.066 355.337 318.829H355.573C355.809 318.592 356.282 318.592 356.518 318.356L424.343 279.086C429.778 276.011 434.505 268.204 435.214 262.054L443.485 172.159L346.593 228.225ZM384.404 275.065C384.404 279.796 381.096 285.473 377.078 287.839L373.297 289.968C372.116 290.678 371.17 290.914 370.225 290.914C369.752 289.968 369.516 289.022 369.516 287.839V255.43C369.516 250.699 372.825 245.021 376.842 242.655L380.623 240.526C381.805 239.817 382.75 239.58 383.695 239.58C384.168 240.526 384.404 241.473 384.404 242.655V275.065ZM416.781 256.376C416.781 261.107 413.472 266.785 409.455 269.151L405.673 271.28C404.492 271.989 403.547 272.226 402.601 272.226C402.129 271.28 401.892 270.333 401.892 269.151V236.741C401.892 232.01 405.201 226.332 409.218 223.967L413 221.838C414.181 221.128 415.126 220.891 416.072 220.891C416.544 221.838 416.781 222.784 416.781 223.967V256.376Z" fill="#F5F5F5"/>
<path d="M388.185 244.548V276.957C388.185 281.688 384.877 287.366 380.859 289.732L377.078 291.861C374.006 293.517 371.643 293.043 370.461 290.678C371.406 290.678 372.352 290.205 373.533 289.732L377.314 287.603C381.332 285.237 384.64 279.559 384.64 274.828V242.655C384.64 241.473 384.404 240.29 383.931 239.58C386.295 239.344 388.185 241.236 388.185 244.548Z" fill="#E0E0E0"/>
<path d="M420.325 226.096V258.505C420.325 263.236 417.016 268.914 412.999 271.28L409.218 273.409C406.145 275.065 403.782 274.592 402.601 272.226C403.546 272.226 404.491 271.753 405.673 271.28L409.454 269.151C413.471 266.785 416.78 261.107 416.78 256.376V223.967C416.78 222.784 416.544 221.601 416.071 220.891C418.671 220.655 420.325 222.547 420.325 226.096Z" fill="#E0E0E0"/>
<path d="M449.63 172.159V182.805C449.63 183.751 448.921 184.934 447.503 185.643L351.319 241.236C349.901 241.946 348.247 242.419 346.356 242.419V231.773C348.011 231.773 349.901 231.3 351.319 230.591L447.503 174.998C449.157 174.288 449.866 173.106 449.63 172.159Z" fill="#E0E0E0"/>
<path d="M346.592 231.773V242.419C344.702 242.419 343.048 241.946 341.63 241.236L199.363 159.148C197.945 158.439 197.236 157.256 197.236 156.31C197.236 155.363 197.236 146.61 197.236 145.664V145.428C197.236 146.61 197.709 147.557 199.363 148.503L341.63 230.591C343.048 231.537 344.938 231.773 346.592 231.773Z" fill="#E0E0E0"/>
<path opacity="0.15" d="M346.592 231.773V242.419C344.702 242.419 343.048 241.946 341.63 241.236L199.363 159.148C197.945 158.439 197.236 157.256 197.236 156.31C197.236 155.363 197.236 146.61 197.236 145.664V145.428C197.236 146.61 197.709 147.557 199.363 148.503L341.63 230.591C343.048 231.537 344.938 231.773 346.592 231.773Z" fill="black"/>
<path d="M449.629 172.159C449.629 173.106 448.92 174.288 447.502 174.998L351.319 230.591C348.483 232.247 344.229 232.247 341.393 230.591L199.127 148.503C197.709 147.793 197 146.61 197 145.664H203.381L300.037 201.493L346.12 228.225L442.776 172.396H449.629V172.159Z" fill="#F0F0F0"/>
<path d="M303.345 243.602V276.011C303.345 280.742 306.653 286.42 310.671 288.785L314.452 290.914C317.524 292.57 319.887 292.097 321.069 289.732C320.124 289.732 319.178 289.258 317.997 288.785L314.216 286.656C310.198 284.291 306.89 278.613 306.89 273.882V241.473C306.89 240.29 307.126 239.107 307.599 238.397C305.235 238.161 303.345 240.053 303.345 243.602Z" fill="#E0E0E0"/>
<path d="M266.479 222.311V254.72C266.479 259.451 269.787 265.129 273.805 267.495L277.586 269.624C280.658 271.28 283.021 270.806 284.203 268.441C283.257 268.441 282.312 267.968 281.131 267.495L277.349 265.366C273.332 263 270.023 257.322 270.023 252.591V220.182C270.023 218.999 270.26 217.816 270.732 217.107C268.369 216.87 266.479 218.762 266.479 222.311Z" fill="#E0E0E0"/>
<path d="M229.612 201.02V233.429C229.612 238.161 232.921 243.838 236.938 246.204L240.72 248.333C243.792 249.989 246.155 249.516 247.337 247.15C246.391 247.15 245.446 246.677 244.264 246.204L240.483 244.075C236.466 241.709 233.157 236.032 233.157 231.3V198.891C233.157 197.708 233.394 196.525 233.866 195.816C231.503 195.579 229.612 197.472 229.612 201.02Z" fill="#E0E0E0"/>
<path opacity="0.2" d="M303.345 243.602V276.011C303.345 280.742 306.653 286.42 310.671 288.785L314.452 290.914C317.524 292.57 319.887 292.097 321.069 289.732C320.124 289.732 319.178 289.258 317.997 288.785L314.216 286.656C310.198 284.291 306.89 278.613 306.89 273.882V241.473C306.89 240.29 307.126 239.107 307.599 238.397C305.235 238.161 303.345 240.053 303.345 243.602Z" fill="black"/>
<path opacity="0.2" d="M266.479 222.311V254.72C266.479 259.451 269.787 265.129 273.805 267.495L277.586 269.624C280.658 271.28 283.021 270.806 284.203 268.441C283.257 268.441 282.312 267.968 281.131 267.495L277.349 265.366C273.332 263 270.023 257.322 270.023 252.591V220.182C270.023 218.999 270.26 217.816 270.732 217.107C268.369 216.87 266.479 218.762 266.479 222.311Z" fill="black"/>
<path opacity="0.2" d="M229.612 201.02V233.429C229.612 238.161 232.921 243.838 236.938 246.204L240.72 248.333C243.792 249.989 246.155 249.516 247.337 247.15C246.391 247.15 245.446 246.677 244.264 246.204L240.483 244.075C236.466 241.709 233.157 236.032 233.157 231.3V198.891C233.157 197.708 233.394 196.525 233.866 195.816C231.503 195.579 229.612 197.472 229.612 201.02Z" fill="black"/>
<path d="M346.593 269.151L203.854 186.59L212.125 276.484C212.597 282.635 217.56 290.441 222.996 293.517L336.903 359.281C341.866 362.12 349.428 362.357 354.864 359.991C355.1 359.991 355.1 359.991 355.337 359.755H355.573C355.809 359.518 356.282 359.518 356.518 359.281L424.343 320.012C429.778 316.936 434.505 309.13 435.214 302.979L443.485 213.085L346.593 269.151ZM248.046 285C248.046 286.183 247.81 287.366 247.337 288.076C246.392 288.076 245.446 287.602 244.265 287.129L240.72 285.237C236.702 282.871 233.394 277.194 233.394 272.462V240.053C233.394 238.87 233.63 237.688 234.103 236.978C235.048 236.978 235.993 237.451 237.175 237.924L240.956 240.053C244.974 242.419 248.282 248.096 248.282 252.828V285H248.046ZM284.912 306.291C284.912 307.474 284.676 308.657 284.203 309.366C283.258 309.366 282.313 308.893 281.131 308.42L277.35 306.291C273.332 303.925 270.024 298.248 270.024 293.517V261.107C270.024 259.925 270.26 258.742 270.733 258.032C271.678 258.032 272.623 258.505 273.805 258.978L277.586 261.107C281.604 263.473 284.912 269.151 284.912 273.882V306.291ZM321.779 327.582C321.779 328.765 321.542 329.947 321.07 330.657C320.124 330.657 319.179 330.184 317.998 329.711L314.216 327.582C310.199 325.216 306.89 319.539 306.89 314.807V282.398C306.89 281.215 307.127 280.032 307.599 279.323C308.545 279.323 309.49 279.796 310.671 280.269L314.453 282.398C318.47 284.764 321.779 290.441 321.779 295.173V327.582ZM384.404 315.99C384.404 320.721 381.096 326.399 377.078 328.765L373.297 330.894C372.115 331.603 371.17 331.84 370.225 331.84C369.752 330.894 369.516 329.947 369.516 328.765V296.355C369.516 291.624 372.824 285.947 376.842 283.581L380.623 281.452C381.805 280.742 382.75 280.506 383.695 280.506C384.168 281.452 384.404 282.398 384.404 283.581V315.99ZM416.78 297.302C416.78 302.033 413.472 307.71 409.454 310.076L405.673 312.205C404.492 312.915 403.546 313.151 402.601 313.151C402.128 312.205 401.892 311.259 401.892 310.076V277.667C401.892 272.936 405.201 267.258 409.218 264.892L412.999 262.763C414.181 262.054 415.126 261.817 416.072 261.817C416.544 262.763 416.78 263.71 416.78 264.892V297.302Z" fill="#EBEBEB"/>
<path d="M346.593 269.151V353.604C346.593 359.281 350.138 361.884 354.864 359.991C355.1 359.991 355.1 359.991 355.337 359.755H355.573C355.809 359.518 356.282 359.518 356.518 359.281L424.343 320.012C429.778 316.936 434.505 309.13 435.214 302.979L443.485 213.085L346.593 269.151ZM384.404 315.99C384.404 320.721 381.096 326.399 377.078 328.765L373.297 330.894C372.116 331.603 371.17 331.84 370.225 331.84C369.752 330.894 369.516 329.947 369.516 328.765V296.355C369.516 291.624 372.825 285.947 376.842 283.581L380.623 281.452C381.805 280.742 382.75 280.506 383.695 280.506C384.168 281.452 384.404 282.398 384.404 283.581V315.99ZM416.781 297.302C416.781 302.033 413.472 307.71 409.455 310.076L405.673 312.205C404.492 312.915 403.547 313.151 402.601 313.151C402.129 312.205 401.892 311.259 401.892 310.076V277.667C401.892 272.936 405.201 267.258 409.218 264.892L413 262.763C414.181 262.054 415.126 261.817 416.072 261.817C416.544 262.763 416.781 263.71 416.781 264.892V297.302Z" fill="#F5F5F5"/>
<path d="M388.185 285.71V318.119C388.185 322.851 384.877 328.528 380.859 330.894L377.078 333.023C374.006 334.679 371.643 334.206 370.461 331.84C371.406 331.84 372.352 331.367 373.533 330.894L377.314 328.765C381.332 326.399 384.64 320.721 384.64 315.99V283.581C384.64 282.398 384.404 281.215 383.931 280.506C386.295 280.269 388.185 282.162 388.185 285.71Z" fill="#E0E0E0"/>
<path d="M420.325 267.021V299.431C420.325 304.162 417.016 309.839 412.999 312.205L409.218 314.334C406.145 315.99 403.782 315.517 402.601 313.151C403.546 313.151 404.491 312.678 405.673 312.205L409.454 310.076C413.471 307.71 416.78 302.033 416.78 297.302V264.892C416.78 263.71 416.544 262.527 416.071 261.817C418.671 261.58 420.325 263.71 420.325 267.021Z" fill="#E0E0E0"/>
<path d="M449.63 213.321V223.967C449.63 224.913 448.921 226.096 447.503 226.806L351.319 282.398C349.901 283.108 348.247 283.581 346.356 283.581V272.936C348.011 272.936 349.901 272.462 351.319 271.753L447.503 216.16C449.157 215.214 449.866 214.268 449.63 213.321C449.63 213.085 449.63 213.085 449.63 213.321Z" fill="#E0E0E0"/>
<path d="M346.592 272.936V283.581C344.702 283.581 343.048 283.108 341.63 282.398L199.6 200.074C198.182 199.364 197.473 198.181 197.473 197.235C197.473 196.289 197.473 187.536 197.473 186.59V186.353C197.473 187.536 197.945 188.482 199.6 189.429L341.866 271.516C343.047 272.462 344.938 272.936 346.592 272.936Z" fill="#E0E0E0"/>
<path opacity="0.15" d="M346.592 272.936V283.581C344.702 283.581 343.048 283.108 341.63 282.398L199.6 200.074C198.182 199.364 197.473 198.181 197.473 197.235C197.473 196.289 197.473 187.536 197.473 186.59V186.353C197.473 187.536 197.945 188.482 199.6 189.429L341.866 271.516C343.047 272.462 344.938 272.936 346.592 272.936Z" fill="black"/>
<path d="M449.629 213.321C449.629 214.268 448.92 215.451 447.502 216.16L351.319 271.753C348.483 273.409 344.229 273.409 341.393 271.753L199.127 189.665C197.709 188.955 197 187.773 197 186.826H203.381L300.037 242.655L346.12 269.387L442.776 213.558H449.629V213.321Z" fill="#F0F0F0"/>
<path d="M303.345 284.527V316.936C303.345 321.668 306.653 327.345 310.671 329.711L314.452 331.84C317.524 333.496 319.887 333.023 321.069 330.657C320.124 330.657 319.178 330.184 317.997 329.711L314.216 327.582C310.198 325.216 306.89 319.539 306.89 314.807V282.398C306.89 281.215 307.126 280.032 307.599 279.323C305.235 279.086 303.345 281.215 303.345 284.527Z" fill="#E0E0E0"/>
<path d="M266.479 263.236V295.646C266.479 300.377 269.787 306.054 273.805 308.42L277.586 310.549C280.658 312.205 283.021 311.732 284.203 309.366C283.257 309.366 282.312 308.893 281.131 308.42L277.349 306.291C273.332 303.925 270.023 298.248 270.023 293.517V261.107C270.023 259.925 270.26 258.742 270.732 258.032C268.369 257.795 266.479 259.925 266.479 263.236Z" fill="#E0E0E0"/>
<path d="M229.612 241.946V274.355C229.612 279.086 232.921 284.764 236.938 287.129L240.72 289.259C243.792 290.914 246.155 290.441 247.337 288.076C246.391 288.076 245.446 287.602 244.264 287.129L240.72 285.237C236.702 282.871 233.393 277.194 233.393 272.462V240.053C233.393 238.87 233.63 237.688 234.102 236.978C231.503 236.505 229.612 238.634 229.612 241.946Z" fill="#E0E0E0"/>
<path opacity="0.2" d="M303.345 284.527V316.936C303.345 321.668 306.653 327.345 310.671 329.711L314.452 331.84C317.524 333.496 319.887 333.023 321.069 330.657C320.124 330.657 319.178 330.184 317.997 329.711L314.216 327.582C310.198 325.216 306.89 319.539 306.89 314.807V282.398C306.89 281.215 307.126 280.032 307.599 279.323C305.235 279.086 303.345 281.215 303.345 284.527Z" fill="black"/>
<path opacity="0.2" d="M266.479 263.236V295.646C266.479 300.377 269.787 306.054 273.805 308.42L277.586 310.549C280.658 312.205 283.021 311.732 284.203 309.366C283.257 309.366 282.312 308.893 281.131 308.42L277.349 306.291C273.332 303.925 270.023 298.248 270.023 293.517V261.107C270.023 259.925 270.26 258.742 270.732 258.032C268.369 257.795 266.479 259.925 266.479 263.236Z" fill="black"/>
<path opacity="0.2" d="M229.612 241.946V274.355C229.612 279.086 232.921 284.764 236.938 287.129L240.72 289.259C243.792 290.914 246.155 290.441 247.337 288.076C246.391 288.076 245.446 287.602 244.264 287.129L240.72 285.237C236.702 282.871 233.393 277.194 233.393 272.462V240.053C233.393 238.87 233.63 237.688 234.102 236.978C231.503 236.505 229.612 238.634 229.612 241.946Z" fill="black"/>
<path d="M346.593 310.313L203.854 227.752L212.125 317.646C212.597 323.797 217.56 331.603 222.996 334.679L336.903 400.444C341.866 403.282 349.428 403.519 354.864 401.153C355.1 401.153 355.1 401.153 355.337 400.917H355.573C355.809 400.68 356.282 400.68 356.518 400.444L424.343 361.174C429.778 358.099 434.505 350.292 435.214 344.141L443.485 254.247L346.593 310.313ZM248.046 326.162C248.046 327.345 247.81 328.528 247.337 329.238C246.392 329.238 245.446 328.765 244.265 328.292L240.484 326.162C236.466 323.797 233.158 318.119 233.158 313.388V280.979C233.158 279.796 233.394 278.613 233.867 277.903C234.812 277.903 235.757 278.377 236.939 278.85L240.72 280.979C244.737 283.344 248.046 289.022 248.046 293.753V326.162ZM284.912 347.453C284.912 348.636 284.676 349.819 284.203 350.529C283.258 350.529 282.313 350.055 281.131 349.582L277.35 347.453C273.332 345.088 270.024 339.41 270.024 334.679V302.27C270.024 301.087 270.26 299.904 270.733 299.194C271.678 299.194 272.623 299.667 273.805 300.14L277.586 302.27C281.604 304.635 284.912 310.313 284.912 315.044V347.453ZM321.779 368.744C321.779 369.927 321.542 371.11 321.07 371.819C320.124 371.819 319.179 371.346 317.998 370.873L314.216 368.744C310.199 366.378 306.89 360.701 306.89 355.969V323.56C306.89 322.377 307.127 321.195 307.599 320.485C308.545 320.485 309.49 320.958 310.671 321.431L314.453 323.56C318.47 325.926 321.779 331.603 321.779 336.335V368.744ZM384.404 357.152C384.404 361.884 381.096 367.561 377.078 369.927L373.297 372.056C372.115 372.766 371.17 373.002 370.225 373.002C369.752 372.056 369.516 371.11 369.516 369.927V337.281C369.516 332.55 372.824 326.872 376.842 324.507L380.623 322.377C381.805 321.668 382.75 321.431 383.695 321.431C384.168 322.377 384.404 323.324 384.404 324.507V357.152ZM416.78 338.464C416.78 343.195 413.472 348.873 409.454 351.238L405.673 353.367C404.492 354.077 403.546 354.314 402.601 354.314C402.128 353.367 401.892 352.421 401.892 351.238V318.829C401.892 314.098 405.201 308.42 409.218 306.054L412.999 303.925C414.181 303.216 415.126 302.979 416.072 302.979C416.544 303.925 416.78 304.872 416.78 306.054V338.464Z" fill="#EBEBEB"/>
<path d="M346.593 310.313V394.766C346.593 400.443 350.138 403.046 354.864 401.153C355.1 401.153 355.1 401.153 355.337 400.917H355.573C355.809 400.68 356.282 400.68 356.518 400.444L424.343 361.174C429.778 358.099 434.505 350.292 435.214 344.141L443.485 254.247L346.593 310.313ZM384.404 357.152C384.404 361.884 381.096 367.561 377.078 369.927L373.297 372.056C372.116 372.766 371.17 373.002 370.225 373.002C369.752 372.056 369.516 371.11 369.516 369.927V337.281C369.516 332.55 372.825 326.872 376.842 324.507L380.623 322.377C381.805 321.668 382.75 321.431 383.695 321.431C384.168 322.377 384.404 323.324 384.404 324.507V357.152ZM416.781 338.464C416.781 343.195 413.472 348.873 409.455 351.238L405.673 353.367C404.492 354.077 403.547 354.314 402.601 354.314C402.129 353.367 401.892 352.421 401.892 351.238V318.829C401.892 314.098 405.201 308.42 409.218 306.054L413 303.925C414.181 303.216 415.126 302.979 416.072 302.979C416.544 303.925 416.781 304.872 416.781 306.054V338.464Z" fill="#F5F5F5"/>
<path d="M388.185 326.636V359.045C388.185 363.776 384.877 369.454 380.859 371.819L377.078 373.948C374.006 375.604 371.643 375.131 370.461 372.766C371.406 372.766 372.352 372.292 373.533 371.819L377.314 369.69C381.332 367.325 384.64 361.647 384.64 356.916V324.507C384.64 323.324 384.404 322.141 383.931 321.431C386.295 321.431 388.185 323.324 388.185 326.636Z" fill="#E0E0E0"/>
<path d="M420.325 308.184V340.593C420.325 345.324 417.016 351.002 412.999 353.367L409.218 355.496C406.145 357.152 403.782 356.679 402.601 354.314C403.546 354.314 404.491 353.84 405.673 353.367L409.454 351.238C413.471 348.873 416.78 343.195 416.78 338.464V306.054C416.78 304.872 416.544 303.689 416.071 302.979C418.671 302.743 420.325 304.635 420.325 308.184Z" fill="#E0E0E0"/>
<path d="M449.63 254.247V264.892C449.63 265.839 448.921 267.021 447.503 267.731L351.319 323.324C349.901 324.033 348.247 324.507 346.356 324.507V313.861C348.011 313.861 349.901 313.388 351.319 312.678L447.503 257.086C449.157 256.376 449.866 255.193 449.63 254.247Z" fill="#E0E0E0"/>
<path d="M346.592 313.861V324.507C344.702 324.507 343.048 324.033 341.63 323.324L199.363 241.236C197.945 240.526 197.236 239.344 197.236 238.397C197.236 237.451 197.236 228.698 197.236 227.752V227.515C197.236 228.698 197.709 229.644 199.363 230.591L341.63 312.678C343.048 313.388 344.938 313.861 346.592 313.861Z" fill="#E0E0E0"/>
<path opacity="0.15" d="M346.592 313.861V324.507C344.702 324.507 343.048 324.033 341.63 323.324L199.363 241.236C197.945 240.526 197.236 239.344 197.236 238.397C197.236 237.451 197.236 228.698 197.236 227.752V227.515C197.236 228.698 197.709 229.644 199.363 230.591L341.63 312.678C343.048 313.388 344.938 313.861 346.592 313.861Z" fill="black"/>
<path d="M449.629 254.247C449.629 255.193 448.92 256.376 447.502 257.086L351.319 312.678C348.483 314.334 344.229 314.334 341.393 312.678L199.127 230.591C197.709 229.881 197 228.698 197 227.752H203.381L300.037 283.581L346.12 310.313L442.776 254.484H449.629V254.247Z" fill="#F0F0F0"/>
<path d="M303.345 325.689V358.099C303.345 362.83 306.653 368.507 310.671 370.873L314.452 373.002C317.524 374.658 319.887 374.185 321.069 371.819C320.124 371.819 319.178 371.346 317.997 370.873L314.216 368.744C310.198 366.378 306.89 360.701 306.89 355.969V323.56C306.89 322.377 307.126 321.195 307.599 320.485C305.235 320.248 303.345 322.141 303.345 325.689Z" fill="#E0E0E0"/>
<path d="M266.479 304.399V336.808C266.479 341.539 269.787 347.217 273.805 349.582L277.586 351.711C280.658 353.367 283.021 352.894 284.203 350.529C283.257 350.529 282.312 350.055 281.131 349.582L277.349 347.453C273.332 345.088 270.023 339.41 270.023 334.679V302.27C270.023 301.087 270.26 299.904 270.732 299.194C268.369 298.958 266.479 300.85 266.479 304.399Z" fill="#E0E0E0"/>
<path d="M229.612 283.108V315.517C229.612 320.248 232.921 325.926 236.938 328.292L240.72 330.421C243.792 332.077 246.155 331.603 247.337 329.238C246.391 329.238 245.446 328.765 244.264 328.292L240.483 326.162C236.466 323.797 233.157 318.119 233.157 313.388V280.979C233.157 279.796 233.394 278.613 233.866 277.903C231.503 277.667 229.612 279.559 229.612 283.108Z" fill="#E0E0E0"/>
<path opacity="0.2" d="M303.345 325.689V358.099C303.345 362.83 306.653 368.507 310.671 370.873L314.452 373.002C317.524 374.658 319.887 374.185 321.069 371.819C320.124 371.819 319.178 371.346 317.997 370.873L314.216 368.744C310.198 366.378 306.89 360.701 306.89 355.969V323.56C306.89 322.377 307.126 321.195 307.599 320.485C305.235 320.248 303.345 322.141 303.345 325.689Z" fill="black"/>
<path opacity="0.2" d="M266.479 304.399V336.808C266.479 341.539 269.787 347.217 273.805 349.582L277.586 351.711C280.658 353.367 283.021 352.894 284.203 350.529C283.257 350.529 282.312 350.055 281.131 349.582L277.349 347.453C273.332 345.088 270.023 339.41 270.023 334.679V302.27C270.023 301.087 270.26 299.904 270.732 299.194C268.369 298.958 266.479 300.85 266.479 304.399Z" fill="black"/>
<path opacity="0.2" d="M229.612 283.108V315.517C229.612 320.248 232.921 325.926 236.938 328.292L240.72 330.421C243.792 332.077 246.155 331.603 247.337 329.238C246.391 329.238 245.446 328.765 244.264 328.292L240.483 326.162C236.466 323.797 233.157 318.119 233.157 313.388V280.979C233.157 279.796 233.394 278.613 233.866 277.903C231.503 277.667 229.612 279.559 229.612 283.108Z" fill="black"/>
<path d="M268.133 58.3721L270.023 65.4691L370.697 7.03775L367.388 0.887115L268.133 58.3721Z" fill="#E0E0E0"/>
<path opacity="0.25" d="M268.133 58.3721L270.023 65.4691L370.697 7.03775L367.388 0.887115L268.133 58.3721Z" fill="black"/>
<path d="M372.588 3.96246L377.078 7.98403L273.805 68.3078L270.023 62.6303L372.588 3.96246Z" fill="#E0E0E0"/>
<path d="M244.028 133.363V134.309C244.028 137.858 244.737 139.75 247.81 141.406C249.464 142.352 250.409 141.169 250.409 139.277V137.148L244.028 133.363Z" fill="#E0E0E0"/>
<path opacity="0.25" d="M244.028 133.363V134.309C244.028 137.858 244.737 139.75 247.81 141.406C249.464 142.352 250.409 141.169 250.409 139.277V137.148L244.028 133.363Z" fill="black"/>
<path d="M263.17 64.7594C263.643 62.3937 265.77 59.555 267.897 58.3721L270.024 65.4691L250.409 137.148L244.028 133.599L263.17 64.7594Z" fill="#E0E0E0"/>
<path opacity="0.25" d="M263.17 64.7594C263.643 62.3937 265.77 59.555 267.897 58.3721L270.024 65.4691L250.409 137.148L244.028 133.599L263.17 64.7594Z" fill="black"/>
<path d="M270.26 62.3937L273.805 68.3078L287.275 158.439L279.949 154.181L266.951 69.0175C266.715 66.6519 268.133 63.5765 270.26 62.3937Z" fill="#E0E0E0"/>
<path d="M279.949 154.181V155.127C279.949 158.675 280.422 161.277 283.494 162.933C285.148 163.88 287.275 162.697 287.275 160.804V158.439L279.949 154.181Z" fill="#E0E0E0"/>
<defs>
<linearGradient id="paint0_linear_231_967" x1="331.5" y1="258" x2="344" y2="653.5" gradientUnits="userSpaceOnUse">
<stop stop-color="#E3E3E3"/>
<stop offset="0.369792" stop-color="#FAFAFA" stop-opacity="0"/>
</linearGradient>
<linearGradient id="paint1_linear_231_967" x1="331.5" y1="258" x2="331.5" y2="510" gradientUnits="userSpaceOnUse">
<stop stop-color="#E6E6E6"/>
<stop offset="0.5" stop-color="white" stop-opacity="0"/>
</linearGradient>
</defs>
</svg>
