<svg width="305" height="304" viewBox="0 0 305 304" fill="none" xmlns="http://www.w3.org/2000/svg">
<path d="M57.3907 0H56.7827V82.4022H57.3907V0Z" fill="#C7C7C7"/>
<path d="M85.7052 109.987L83.4009 115.046H30.7663L28.4741 109.987L50.8789 94.4771H63.2943L85.7052 109.987Z" fill="#EBEBEB"/>
<path d="M64.8509 79.5327L63.2944 94.4774H50.879L49.3286 79.5327H64.8509Z" fill="#DBDBDB"/>
<path d="M85.6991 109.987L83.4009 115.046H30.7663L28.4741 109.987H85.6991Z" fill="#DBDBDB"/>
<path d="M118.835 0H118.227V66.0835H118.835V0Z" fill="#C7C7C7"/>
<path d="M147.144 93.6624L144.839 98.7271H92.2108L89.9126 93.6624L112.323 78.1523H124.733L147.144 93.6624Z" fill="#EBEBEB"/>
<path d="M126.289 63.2139L124.733 78.1524H112.324L110.767 63.2139H126.289Z" fill="#DBDBDB"/>
<path d="M147.138 93.6685L144.839 98.727H92.2048L89.9126 93.6685H147.138Z" fill="#DBDBDB"/>
<path d="M248.199 46.2261H264.299V39.4226H248.199V46.2261Z" fill="#EBEBEB"/>
<path d="M257.185 37.6475H273.285V30.8439H257.185V37.6475Z" fill="#EBEBEB"/>
<path d="M117.351 140.789H133.451V133.985H117.351V140.789Z" fill="#EBEBEB"/>
<path d="M126.332 132.209H142.432V125.406H126.332V132.209Z" fill="#EBEBEB"/>
<path d="M135.276 140.789H151.375V133.985H135.276V140.789Z" fill="#EBEBEB"/>
<path d="M31.7146 37.6475H47.8145V30.8439H31.7146V37.6475Z" fill="#EBEBEB"/>
<path d="M40.7009 221.944H56.8008V215.141H40.7009V221.944Z" fill="#EBEBEB"/>
<path d="M31.7146 213.365H47.8145V206.562H31.7146V213.365Z" fill="#EBEBEB"/>
<path d="M257.185 221.944H273.285V215.141H257.185V221.944Z" fill="#EBEBEB"/>
<g opacity="0.9">
<path d="M210.515 26.3022H94.4907V102.144H210.515V26.3022Z" fill="white"/>
<path d="M210.661 102.29H94.3389V26.144H210.661V102.29ZM94.6429 101.986H210.357V26.4541H94.6429V101.986Z" fill="#A6A6A6"/>
<path d="M210.515 26.3022H94.4907V29.6888H210.515V26.3022Z" fill="#263238"/>
<path d="M97.9016 27.9679C97.9016 28.1122 97.8588 28.2532 97.7786 28.3732C97.6984 28.4932 97.5845 28.5867 97.4512 28.6419C97.3179 28.6972 97.1712 28.7116 97.0296 28.6835C96.8881 28.6553 96.7581 28.5858 96.6561 28.4838C96.554 28.3818 96.4846 28.2517 96.4564 28.1102C96.4283 27.9687 96.4427 27.822 96.4979 27.6887C96.5531 27.5554 96.6467 27.4414 96.7666 27.3612C96.8866 27.2811 97.0277 27.2383 97.172 27.2383C97.3655 27.2383 97.5511 27.3151 97.6879 27.452C97.8247 27.5888 97.9016 27.7744 97.9016 27.9679Z" fill="#C7C7C7"/>
<path d="M100.881 27.9679C100.881 28.1122 100.838 28.2532 100.758 28.3732C100.678 28.4932 100.564 28.5867 100.431 28.6419C100.297 28.6972 100.151 28.7116 100.009 28.6835C99.8676 28.6553 99.7376 28.5858 99.6356 28.4838C99.5335 28.3818 99.464 28.2517 99.4359 28.1102C99.4077 27.9687 99.4222 27.822 99.4774 27.6887C99.5326 27.5554 99.6262 27.4414 99.7461 27.3612C99.8661 27.2811 100.007 27.2383 100.151 27.2383C100.345 27.2383 100.531 27.3151 100.667 27.452C100.804 27.5888 100.881 27.7744 100.881 27.9679Z" fill="white"/>
<path d="M103.86 27.9679C103.86 28.1122 103.817 28.2532 103.737 28.3732C103.657 28.4932 103.543 28.5867 103.41 28.6419C103.276 28.6972 103.13 28.7116 102.988 28.6835C102.847 28.6553 102.717 28.5858 102.615 28.4838C102.513 28.3818 102.443 28.2517 102.415 28.1102C102.387 27.9687 102.401 27.822 102.456 27.6887C102.512 27.5554 102.605 27.4414 102.725 27.3612C102.845 27.2811 102.986 27.2383 103.13 27.2383C103.324 27.2383 103.51 27.3151 103.646 27.452C103.783 27.5888 103.86 27.7744 103.86 27.9679Z" fill="#039A38"/>
<path d="M210.515 29.6885H94.4907V42.9672H210.515V29.6885Z" fill="#455A64"/>
<path d="M201.961 34.5708H110.408V37.8054H201.961V34.5708Z" fill="white"/>
<path d="M201.997 37.8422H110.378V34.5347H201.997V37.8422ZM110.445 37.7753H201.931V34.6015H110.445V37.7753Z" fill="#C7C7C7"/>
<path d="M112.913 36.8875L112.688 37.0578L112.336 36.5957L112.263 36.4984L112.184 36.3951L112.275 36.3464C112.318 36.3097 112.354 36.2666 112.384 36.2188L112.463 36.3221L112.542 36.4194L112.913 36.8875Z" fill="#EBEBEB"/>
<path d="M112.554 36.4011L112.475 36.3038C112.503 36.2689 112.526 36.23 112.542 36.1883L112.451 36.0728C112.453 36.0991 112.453 36.1255 112.451 36.1518C112.453 36.17 112.453 36.1883 112.451 36.2065C112.421 36.2544 112.384 36.2975 112.342 36.3342L112.415 36.4315L112.494 36.5288L112.767 36.8936H112.737L112.457 36.5288L112.384 36.4315L112.311 36.3342L112.22 36.3828C112.22 36.3828 112.22 36.3828 112.19 36.3828H112.104L112.184 36.4862C112.226 36.4775 112.267 36.4631 112.305 36.4436L112.378 36.5409L112.731 37.003L112.956 36.8328L112.554 36.4011Z" fill="#EBEBEB"/>
<path d="M112.463 35.5621C112.415 35.4943 112.353 35.4371 112.281 35.3942C112.21 35.3513 112.13 35.3236 112.047 35.3128C111.965 35.3019 111.881 35.3082 111.801 35.3313C111.72 35.3543 111.646 35.3935 111.582 35.4466C111.515 35.4956 111.459 35.5575 111.417 35.6287C111.376 35.7 111.349 35.7789 111.339 35.8609C111.328 35.9428 111.335 36.0259 111.358 36.1052C111.381 36.1845 111.42 36.2583 111.472 36.3221C111.547 36.4235 111.652 36.499 111.772 36.5382C111.891 36.5774 112.021 36.5784 112.141 36.541C112.183 36.5323 112.224 36.518 112.263 36.4985L112.348 36.4437C112.358 36.4463 112.368 36.4463 112.378 36.4437C112.41 36.4142 112.438 36.3816 112.463 36.3465C112.491 36.3116 112.514 36.2726 112.53 36.2309C112.586 36.1252 112.609 36.0054 112.597 35.8865C112.586 35.7675 112.539 35.6547 112.463 35.5621ZM112.421 36.1397C112.423 36.1579 112.423 36.1763 112.421 36.1945C112.391 36.2423 112.354 36.2854 112.311 36.3221L112.22 36.3708C112.22 36.3708 112.22 36.3708 112.19 36.3708H112.104H112.007C111.922 36.3716 111.838 36.3505 111.763 36.3095C111.688 36.2686 111.625 36.2092 111.58 36.1369C111.535 36.0647 111.509 35.9821 111.505 35.8969C111.5 35.8118 111.518 35.727 111.556 35.6506C111.594 35.5743 111.651 35.5089 111.721 35.4608C111.791 35.4126 111.873 35.3833 111.958 35.3757C112.043 35.368 112.128 35.3823 112.206 35.417C112.284 35.4518 112.351 35.506 112.402 35.5743C112.446 35.6338 112.477 35.7019 112.493 35.7743C112.509 35.8466 112.509 35.9214 112.494 35.9938C112.475 36.0452 112.451 36.0942 112.421 36.1397Z" fill="#EBEBEB"/>
<path d="M112.542 36.188C112.629 36.0599 112.664 35.9035 112.639 35.7507C112.615 35.5979 112.533 35.4601 112.411 35.3655C112.288 35.271 112.134 35.2266 111.98 35.2416C111.826 35.2566 111.684 35.3298 111.582 35.4462C111.515 35.4952 111.459 35.5571 111.417 35.6284C111.376 35.6996 111.349 35.7785 111.339 35.8605C111.328 35.9424 111.335 36.0255 111.358 36.1048C111.381 36.1841 111.42 36.2579 111.472 36.3217C111.547 36.4231 111.652 36.4986 111.772 36.5378C111.891 36.577 112.021 36.578 112.141 36.5406C112.183 36.5319 112.224 36.5176 112.263 36.4981L112.335 36.5953L112.421 36.5406H112.457C112.489 36.5111 112.517 36.4785 112.542 36.4433L112.463 36.3461C112.5 36.2993 112.527 36.2455 112.542 36.188ZM112.378 36.2366C112.361 36.2617 112.341 36.2842 112.317 36.3035L112.244 36.3461C112.207 36.3691 112.166 36.3837 112.123 36.3886C112.043 36.4074 111.961 36.4065 111.882 36.3859C111.803 36.3653 111.73 36.3256 111.67 36.2704C111.61 36.2152 111.565 36.1461 111.537 36.0692C111.51 35.9923 111.503 35.9099 111.515 35.8293C111.523 35.7632 111.544 35.6994 111.577 35.6419C111.611 35.5844 111.656 35.5343 111.709 35.4949C111.796 35.427 111.903 35.3906 112.013 35.3915C112.091 35.391 112.167 35.4083 112.237 35.4421C112.306 35.4758 112.367 35.5251 112.415 35.5861C112.462 35.6472 112.495 35.7187 112.509 35.7948C112.524 35.8708 112.521 35.9493 112.5 36.0238C112.486 36.0683 112.468 36.1112 112.445 36.1515L112.378 36.2366Z" fill="#EBEBEB"/>
<path d="M98.7894 37.2947L97.6099 36.2124L98.7894 35.0815L98.9718 35.27L97.999 36.2063L98.9718 37.1001L98.7894 37.2947Z" fill="white"/>
<path d="M101.635 35.0815L102.815 36.1638L101.641 37.2947L101.453 37.1062L102.432 36.1699L101.459 35.2761L101.635 35.0815Z" fill="white"/>
<path d="M206.649 37.5134C206.511 37.6019 206.359 37.6657 206.199 37.7019C205.818 37.7947 205.417 37.7407 205.075 37.5507C204.732 37.3606 204.474 37.0485 204.351 36.6765C204.229 36.3045 204.251 35.9 204.414 35.5437C204.576 35.1874 204.867 34.9055 205.229 34.7542C205.59 34.6029 205.995 34.5933 206.363 34.7273C206.731 34.8614 207.035 35.1292 207.214 35.4774C207.393 35.8256 207.434 36.2286 207.33 36.606C207.225 36.9833 206.982 37.3074 206.649 37.5134Z" fill="#DBDBDB"/>
<path d="M206.302 36.0118C206.302 36.1056 206.274 36.1973 206.222 36.2753C206.17 36.3533 206.096 36.4141 206.009 36.45C205.923 36.4859 205.827 36.4953 205.735 36.477C205.643 36.4587 205.559 36.4135 205.492 36.3472C205.426 36.2809 205.381 36.1964 205.363 36.1044C205.344 36.0124 205.354 35.917 205.39 35.8304C205.426 35.7437 205.486 35.6696 205.564 35.6175C205.642 35.5654 205.734 35.5376 205.828 35.5376C205.954 35.5376 206.074 35.5876 206.163 35.6765C206.252 35.7654 206.302 35.8861 206.302 36.0118Z" fill="white"/>
<path d="M206.649 37.3188V37.5134C206.511 37.6019 206.359 37.6657 206.199 37.7019C205.994 37.7548 205.781 37.7653 205.571 37.7329C205.362 37.7005 205.162 37.6258 204.983 37.5134V37.3188C204.983 37.1012 205.069 36.8924 205.223 36.7385C205.377 36.5845 205.586 36.498 205.804 36.498C206.021 36.498 206.23 36.5845 206.384 36.7385C206.538 36.8924 206.624 37.1012 206.624 37.3188H206.649Z" fill="white"/>
<path d="M106.335 37.5989C106.038 37.6001 105.748 37.5157 105.499 37.3559C105.249 37.1961 105.052 36.9677 104.929 36.6981C104.806 36.4286 104.764 36.1293 104.807 35.8363C104.85 35.5433 104.977 35.269 105.172 35.0463C105.368 34.8237 105.623 34.6621 105.908 34.5811C106.193 34.5001 106.495 34.5031 106.778 34.5896C107.062 34.6762 107.314 34.8427 107.505 35.0691C107.696 35.2956 107.817 35.5723 107.855 35.8661L107.575 35.9026C107.537 35.6196 107.404 35.3581 107.197 35.1612C106.99 34.9644 106.722 34.8441 106.438 34.8203C106.153 34.7965 105.869 34.8706 105.633 35.0303C105.396 35.19 105.221 35.4258 105.137 35.6985C105.053 35.9713 105.064 36.2647 105.169 36.5301C105.274 36.7954 105.467 37.0169 105.715 37.1578C105.964 37.2987 106.253 37.3505 106.535 37.3046C106.816 37.2588 107.074 37.1181 107.265 36.9058L107.472 37.0882C107.328 37.248 107.153 37.3759 106.957 37.4639C106.761 37.5518 106.549 37.5978 106.335 37.5989Z" fill="white"/>
<path d="M106.894 35.5012L106.985 35.3613L107.672 35.8234L108.08 35.106L108.232 35.1911L107.727 36.0605L106.894 35.5012Z" fill="white"/>
</g>
<path d="M129.609 74.7841V76.8391H119.492V62.0708H129.396V64.1319H121.814V68.3271H128.399V70.2606H121.814V74.7841H129.609Z" fill="#455A64"/>
<path d="M132.017 76.821V62.0709H138.437C139.069 62.0666 139.694 62.2103 140.261 62.4904C140.81 62.7554 141.301 63.1251 141.708 63.5787C142.112 64.0306 142.431 64.5517 142.651 65.117C142.878 65.6748 142.996 66.2715 142.997 66.8741C142.991 67.8301 142.717 68.7654 142.207 69.5736C141.96 69.9598 141.65 70.3011 141.289 70.5829C140.933 70.8517 140.534 71.0574 140.109 71.1909L143.575 76.7967H140.948L137.75 71.6651H134.345V76.7967L132.017 76.821ZM134.345 69.6344H138.413C138.728 69.6392 139.04 69.5639 139.319 69.4155C139.592 69.2649 139.831 69.0576 140.018 68.8075C140.214 68.5386 140.368 68.2413 140.474 67.9259C140.584 67.5843 140.64 67.2271 140.638 66.868C140.639 66.5044 140.573 66.1437 140.443 65.804C140.317 65.4881 140.14 65.1945 139.921 64.9346C139.716 64.682 139.462 64.4749 139.173 64.3266C138.901 64.1838 138.598 64.1087 138.291 64.1077H134.345V69.6344Z" fill="#455A64"/>
<path d="M145.751 76.8209V62.0709H152.165C152.798 62.0675 153.422 62.2111 153.989 62.4904C154.536 62.7555 155.026 63.1253 155.43 63.5787C155.834 64.0318 156.155 64.5525 156.379 65.1169C156.615 65.6754 156.743 66.2738 156.756 66.8801C156.758 67.364 156.689 67.8456 156.549 68.3089C156.407 68.7589 156.202 69.1866 155.941 69.5797C155.695 69.9642 155.387 70.3053 155.029 70.5889C154.672 70.8591 154.271 71.0649 153.843 71.1969L157.315 76.8027H154.676L151.478 71.6712H148.067V76.8027L145.751 76.8209ZM148.074 69.6344H152.147C152.463 69.6384 152.774 69.5631 153.053 69.4155C153.325 69.2647 153.561 69.0573 153.746 68.8075C153.947 68.5414 154.101 68.2434 154.202 67.9259C154.313 67.5842 154.368 67.2271 154.366 66.868C154.371 66.5041 154.305 66.1428 154.172 65.804C154.047 65.4884 153.873 65.1948 153.655 64.9345C153.448 64.6847 153.194 64.4781 152.907 64.3265C152.633 64.1837 152.329 64.1086 152.019 64.1077H148.074V69.6344Z" fill="#455A64"/>
<path d="M165.608 76.924C164.616 76.9464 163.631 76.7383 162.733 76.316C161.883 75.9078 161.122 75.3354 160.495 74.6318C159.872 73.9285 159.383 73.1165 159.054 72.2363C158.717 71.353 158.544 70.4154 158.543 69.4699C158.542 68.5036 158.726 67.5459 159.085 66.6488C159.432 65.77 159.935 64.9607 160.568 64.2593C161.2 63.5657 161.962 63.0036 162.812 62.6056C163.701 62.1945 164.671 61.9868 165.651 61.9976C166.648 61.9848 167.634 62.2099 168.527 62.6542C169.372 63.0778 170.127 63.6599 170.752 64.3688C171.369 65.0758 171.855 65.887 172.187 66.7643C172.519 67.6384 172.69 68.5653 172.692 69.5003C172.695 70.4656 172.515 71.4229 172.163 72.3214C171.488 74.099 170.147 75.5432 168.423 76.3464C167.54 76.7458 166.578 76.9431 165.608 76.924ZM160.915 69.4456C160.913 70.1318 161.024 70.8137 161.243 71.4641C161.455 72.0894 161.776 72.6721 162.191 73.1848C162.596 73.6887 163.101 74.1028 163.675 74.4008C164.281 74.7018 164.95 74.8539 165.627 74.8446C166.318 74.8599 167.003 74.6988 167.615 74.3765C168.181 74.0754 168.68 73.6615 169.08 73.1605C169.483 72.6449 169.792 72.0625 169.992 71.4398C170.198 70.8077 170.303 70.1469 170.302 69.4821C170.306 68.7931 170.193 68.1085 169.968 67.4574C169.761 66.837 169.441 66.2599 169.025 65.755C168.622 65.2523 168.119 64.8383 167.548 64.539C166.939 64.2392 166.269 64.0832 165.59 64.0832C164.911 64.0832 164.241 64.2392 163.632 64.539C163.065 64.8409 162.564 65.2545 162.161 65.755C161.754 66.2648 161.441 66.8435 161.237 67.4635C161.02 68.1018 160.911 68.7716 160.915 69.4456Z" fill="#455A64"/>
<path d="M175.105 76.8209V62.0709H181.52C182.152 62.0675 182.777 62.2111 183.344 62.4904C183.891 62.7555 184.38 63.1253 184.785 63.5787C185.189 64.0318 185.51 64.5525 185.733 65.1169C185.956 65.676 186.072 66.2721 186.074 66.8741C186.076 67.358 186.007 67.8395 185.867 68.3029C185.725 68.7528 185.52 69.1806 185.259 69.5736C185.013 69.9581 184.705 70.2992 184.347 70.5829C183.99 70.853 183.589 71.0588 183.161 71.1909L186.633 76.7966H183.994L180.796 71.6651H177.428V76.7966L175.105 76.8209ZM177.428 69.6344H181.502C181.817 69.6384 182.129 69.5631 182.408 69.4155C182.679 69.2647 182.916 69.0573 183.101 68.8075C183.301 68.5414 183.455 68.2434 183.557 67.9259C183.669 67.5846 183.727 67.2274 183.727 66.868C183.729 66.5037 183.661 66.1425 183.526 65.804C183.402 65.4884 183.227 65.1948 183.009 64.9345C182.803 64.6847 182.548 64.4781 182.262 64.3265C181.988 64.1837 181.683 64.1086 181.374 64.1077H177.428V69.6344Z" fill="#455A64"/>
<path d="M104.819 254.824C102.12 254.922 99.0978 255.074 96.8604 253.323C94.7932 251.705 92.9449 249.292 93.2124 246.519C93.2914 245.729 93.4738 245.242 94.325 245.577C95.614 246.094 96.605 247.516 97.4988 248.513C98.6354 249.815 99.8913 251.008 101.25 252.076C102.217 252.812 103.25 253.45 104.235 254.162L104.6 254.435L104.74 254.545H104.819C104.84 254.544 104.862 254.549 104.881 254.558C104.9 254.568 104.916 254.582 104.929 254.599C104.934 254.615 104.934 254.632 104.929 254.648C104.934 254.667 104.935 254.687 104.933 254.706C104.93 254.725 104.923 254.744 104.913 254.761C104.903 254.777 104.889 254.791 104.873 254.802C104.857 254.813 104.838 254.821 104.819 254.824Z" fill="#455A64"/>
<path d="M104.947 254.648C102.57 254.606 100.004 254.715 98.107 253.104C97.2324 252.33 96.4855 251.423 95.8939 250.417C95.6203 249.973 94.7995 248.641 95.14 248.106C95.748 247.146 98.5873 251.061 98.9825 251.438C100.467 252.787 102.278 253.726 104.236 254.162L104.6 254.436C103.224 254.149 101.903 253.64 100.691 252.928C99.0069 251.925 98.0705 250.435 96.7451 249.043C96.4654 248.745 95.6021 247.735 95.2798 248.362C95.067 248.775 95.8574 250.082 96.0337 250.362C96.5943 251.313 97.2977 252.172 98.1192 252.91C100.016 254.569 102.57 254.509 104.965 254.606C104.964 254.622 104.957 254.636 104.947 254.648Z" fill="white"/>
<path d="M106.315 256.478C106.315 256.582 106.273 256.685 106.248 256.788C106.248 256.801 106.243 256.813 106.235 256.822C106.228 256.832 106.217 256.839 106.206 256.843C106.188 256.852 106.167 256.856 106.147 256.854C106.127 256.851 106.108 256.843 106.093 256.83C106.077 256.817 106.066 256.8 106.06 256.781C106.054 256.761 106.054 256.741 106.06 256.721C106.06 256.707 106.06 256.693 106.06 256.679L106.09 256.588C105.61 254.8 105.421 252.94 104.917 251.116C104.412 249.292 103.834 247.729 103.488 245.984C103.269 244.884 102.509 239.369 104.941 240.056C106.017 240.36 106.765 241.923 107.16 242.853C107.694 244.11 107.999 245.453 108.06 246.817C108.23 250.191 106.996 253.25 106.315 256.478Z" fill="#455A64"/>
<path d="M107.093 249.608C107.144 248.348 107.013 247.086 106.704 245.863C106.594 245.437 106.065 243.431 105.378 243.461C104.935 243.492 104.856 244.367 104.819 244.677C104.667 245.893 105.062 247.158 105.299 248.356C105.779 250.787 106.078 253.25 106.193 255.725C106.193 255.883 106.151 256.041 106.132 256.193C106.114 256.345 106.096 256.454 106.084 256.588V256.722C106.084 256.752 106.084 256.789 106.084 256.825C106.097 256.849 106.118 256.868 106.143 256.878C106.169 256.888 106.197 256.889 106.224 256.88C106.224 256.776 106.254 256.679 106.266 256.576C106.266 256.661 106.266 256.74 106.266 256.825L106.321 256.564C106.318 256.546 106.318 256.527 106.321 256.509C106.321 256.369 106.321 256.229 106.321 256.096C106.706 253.95 106.964 251.784 107.093 249.608ZM106.272 255.177C106.205 253.73 106.059 252.289 105.853 250.855C105.695 249.699 105.476 248.556 105.245 247.413C105.087 246.773 104.983 246.12 104.935 245.462C104.935 244.957 104.983 243.096 105.944 244.246C106.637 245.085 106.801 246.866 106.886 247.894C106.97 249.036 106.948 250.184 106.819 251.323C106.679 252.612 106.461 253.895 106.272 255.177Z" fill="white"/>
<path d="M107.768 263.902H107.671C105.196 263.774 101.901 264.005 99.8459 262.37C98.3259 261.154 96.8059 258.771 97.3106 256.746C97.8578 254.46 100.959 257.202 101.761 257.865C103.898 259.713 105.928 261.682 107.841 263.762V263.805C107.878 263.872 107.823 263.872 107.768 263.902Z" fill="#455A64"/>
<path d="M107.853 263.829L107.427 263.562C105.806 262.536 104.229 261.44 102.697 260.272C102.308 259.981 99.5235 257.5 99.104 258.388C98.8547 258.923 99.7727 260.011 100.065 260.382C100.595 261.04 101.229 261.607 101.943 262.06C103.591 263.087 105.591 263.306 107.458 263.805C107.547 263.819 107.635 263.841 107.719 263.872H107.768C107.829 263.872 107.877 263.872 107.853 263.829ZM102.989 262.419C102.201 262.063 101.479 261.576 100.855 260.978C100.435 260.582 98.9763 259.105 99.3654 258.497C99.5721 258.169 99.7423 258.345 100.138 258.534C100.314 258.625 100.49 258.728 100.66 258.838C101.074 259.111 101.457 259.446 101.84 259.737C102.521 260.279 103.208 260.801 103.913 261.318C105.062 262.157 106.242 262.942 107.452 263.695C105.944 263.264 104.375 263.057 102.965 262.419H102.989Z" fill="white"/>
<path d="M112.285 258.807C111.636 261.643 110.154 264.219 108.029 266.206L107.987 266.237C107.963 266.243 107.938 266.241 107.916 266.232C107.893 266.224 107.873 266.208 107.859 266.188C107.84 266.169 107.829 266.143 107.829 266.115C107.829 266.088 107.84 266.062 107.859 266.042C107.903 266.005 107.943 265.964 107.981 265.921C108.394 262.558 108.844 259.233 109.197 255.84C109.276 255.05 109.902 249.991 111.453 250.812C112.413 251.323 112.48 253.396 112.559 254.326C112.7 255.825 112.607 257.337 112.285 258.807Z" fill="#455A64"/>
<path d="M111.392 254.296C111.307 254.016 111.161 253.724 110.844 253.925C110.236 254.302 109.999 256.679 109.902 257.336C109.489 260.047 108.844 262.656 108.194 265.313L108.029 265.988L107.877 266.188C107.891 266.208 107.911 266.223 107.934 266.232C107.957 266.241 107.981 266.242 108.005 266.237V266.164C108.072 266.079 108.145 265.988 108.206 265.896C109.259 264.441 110.079 262.831 110.638 261.124C111.005 260.042 111.258 258.926 111.392 257.792C111.513 256.752 111.702 255.317 111.392 254.296ZM108.218 265.696C108.188 265.744 108.151 265.787 108.127 265.829C108.127 265.738 108.181 265.653 108.206 265.562C108.847 263.539 109.352 261.475 109.72 259.385C109.902 258.327 110.018 257.257 110.23 256.205C110.328 255.761 110.54 254.49 110.911 254.284C111.282 254.077 111.27 254.575 111.313 254.861C111.355 255.147 111.313 255.439 111.313 255.633C111.37 259.23 110.287 262.753 108.218 265.696Z" fill="white"/>
<path d="M108.461 273.46H107.987C107.987 273.022 107.987 272.584 107.987 272.152C107.926 270.395 107.853 268.638 107.75 266.881C107.689 265.884 107.622 264.887 107.513 263.902C107.513 263.871 107.513 263.835 107.513 263.805C107.513 263.774 107.513 263.64 107.482 263.561C107.452 263.482 107.482 263.385 107.452 263.3C107.226 261.072 106.651 258.893 105.75 256.843C105.44 256.156 105.093 255.493 104.734 254.83L104.625 254.642C104.628 254.626 104.628 254.609 104.625 254.593L104.515 254.393L104.43 254.247C103.287 252.234 101.998 250.307 100.734 248.374C100.381 247.82 100.022 247.261 99.6757 246.702C99.6511 246.672 99.6307 246.639 99.6149 246.604C99.5845 246.568 99.5601 246.525 99.5297 246.483C97.9733 244.051 96.4411 241.54 94.8177 239.126C94.7569 239.035 94.9029 238.956 94.9637 239.047C96.0581 240.646 97.1889 242.221 98.3137 243.807C98.4657 244.014 98.6117 244.233 98.7637 244.415L99.6453 245.668C100.253 246.507 100.813 247.346 101.378 248.197C103.046 250.558 104.567 253.019 105.932 255.566C106.029 255.755 106.12 255.949 106.212 256.144C106.303 256.338 106.327 256.387 106.382 256.509C106.437 256.63 106.51 256.794 106.57 256.934C107.579 259.412 108.143 262.049 108.236 264.723L108.273 265.288C108.273 265.373 108.273 265.458 108.273 265.55C108.27 265.594 108.27 265.639 108.273 265.683C108.273 265.744 108.273 265.805 108.273 265.866C108.273 265.908 108.273 265.951 108.273 265.999V266.48C108.346 268.237 108.394 269.994 108.431 271.745C108.419 272.335 108.437 272.894 108.461 273.46Z" fill="#455A64"/>
<path d="M93.6989 241.631C92.343 239.807 90.6102 236.056 92.6045 234.104C92.9672 233.727 93.456 233.497 93.9775 233.458C94.4989 233.419 95.0166 233.573 95.4317 233.891C96.4835 234.657 96.9578 236.098 97.2982 237.29C98.2163 240.476 98.8182 243.723 99.9613 246.842C99.9613 246.842 100.059 247.109 100.089 247.176C100.119 247.243 100.01 247.273 99.9856 247.176C99.9613 247.079 99.9065 246.975 99.8701 246.872C97.7117 245.34 95.304 243.808 93.6989 241.631Z" fill="#455A64"/>
<path d="M99.9794 246.848C99.9706 246.829 99.9604 246.81 99.949 246.793C99.4806 246.026 99.0583 245.232 98.6844 244.416C97.9245 242.72 97.2747 240.978 96.7388 239.199C96.5199 238.518 95.5228 235.174 94.3494 236.506C93.8508 237.065 93.9177 238.062 93.9967 238.749C94.1337 239.853 94.487 240.919 95.0364 241.886C96.1852 243.753 97.719 245.353 99.5356 246.58L99.7727 246.762L99.8214 246.842L99.8578 246.896C99.8677 246.901 99.8786 246.904 99.8896 246.905C99.9007 246.905 99.9117 246.903 99.922 246.899C99.9323 246.895 99.9417 246.889 99.9495 246.881C99.9573 246.873 99.9634 246.864 99.9673 246.854C99.9715 246.852 99.9756 246.85 99.9794 246.848ZM99.4505 246.477C97.997 245.4 96.7139 244.111 95.6444 242.652C95.1137 241.873 94.7037 241.019 94.4284 240.117C94.3036 239.72 94.2121 239.313 94.1548 238.901C94.1092 238.591 94.0908 238.278 94.1001 237.965C94.1001 237.278 94.4102 236.524 94.8175 236.457C95.2249 236.39 95.4863 236.658 95.8146 237.235C95.9287 237.43 96.0283 237.633 96.1126 237.843C96.3281 238.362 96.5168 238.892 96.678 239.43C96.9577 240.312 97.2434 241.193 97.5596 242.069C97.7785 242.677 98.0034 243.242 98.2588 243.82C98.6862 244.813 99.1819 245.776 99.7423 246.702L99.4505 246.477Z" fill="white"/>
<path d="M200.293 246.726C200.069 248.55 199.722 250.313 199.357 252.095C199.15 253.104 198.932 254.113 198.749 255.135C198.524 256.248 198.19 257.378 198.494 258.503C198.5 258.554 198.5 258.605 198.494 258.655C198.479 258.674 198.46 258.689 198.437 258.697C198.415 258.706 198.391 258.709 198.368 258.705C198.344 258.701 198.322 258.691 198.303 258.676C198.285 258.661 198.271 258.641 198.263 258.619C198.261 258.592 198.261 258.566 198.263 258.54C198.098 258.243 197.968 257.929 197.874 257.603C197.523 256.753 197.225 255.882 196.98 254.995C196.455 253.185 196.161 251.316 196.104 249.432C196.053 247.744 196.229 246.057 196.627 244.416C196.949 243.103 197.405 241.151 198.384 240.16C199.266 239.254 200.008 240.707 200.263 241.443C200.78 243.09 200.506 245.024 200.293 246.726Z" fill="#455A64"/>
<path d="M198.676 242.896C198.019 242.896 197.539 245.017 197.308 245.936C196.938 247.382 196.748 248.869 196.743 250.362C196.749 253.042 197.209 255.703 198.105 258.229C198.141 258.333 198.171 258.436 198.208 258.533C198.208 258.533 198.208 258.576 198.208 258.6C198.213 258.625 198.226 258.647 198.244 258.664C198.262 258.682 198.285 258.693 198.309 258.698C198.334 258.702 198.359 258.7 198.382 258.69C198.406 258.68 198.425 258.664 198.439 258.643C198.396 258.424 198.366 258.205 198.342 257.98C198.317 257.755 198.293 257.585 198.281 257.372C198.187 255.193 198.321 253.011 198.682 250.86C199.047 248.392 199.546 242.896 198.676 242.896ZM198.202 257.84C198.238 258.132 198.281 258.448 198.336 258.71C198.269 258.497 198.202 258.29 198.141 258.102C197.425 255.855 197.016 253.521 196.925 251.164C196.88 249.837 196.976 248.508 197.211 247.2C197.341 246.498 197.511 245.803 197.722 245.121C197.819 244.835 198.293 243.06 198.7 243.151C198.986 243.212 199.053 244.811 199.059 244.847C199.059 245.163 199.059 245.486 199.059 245.808C199.059 246.471 199.004 247.133 198.95 247.796C198.822 249.225 198.615 250.648 198.445 252.052C198.139 253.965 198.058 255.908 198.202 257.84Z" fill="white"/>
<path d="M208.787 251.711C208.216 251.14 206.526 252.557 206.1 252.885C204.841 253.917 203.671 255.054 202.604 256.284C200.787 258.191 199.281 260.372 198.141 262.747L198.08 262.82V262.941V262.978C198.07 262.991 198.064 263.007 198.064 263.023C198.064 263.04 198.07 263.056 198.08 263.069L198.166 262.972C198.378 262.71 198.597 262.461 198.822 262.212L198.938 262.09C200.58 260.441 202.326 258.9 204.167 257.475C205.428 256.459 206.592 255.327 207.644 254.095C207.881 253.785 209.274 252.198 208.787 251.711ZM208.258 252.976C206.836 255.341 204.367 257.068 202.27 258.789C200.825 259.915 199.493 261.179 198.293 262.564C199.404 260.453 200.793 258.501 202.422 256.758C203.314 255.732 204.264 254.757 205.267 253.839C205.805 253.336 206.38 252.875 206.988 252.459C207.353 252.213 207.744 252.009 208.155 251.851C208.951 251.596 208.502 252.575 208.258 252.982V252.976Z" fill="white"/>
<path d="M197.795 268.687C197.782 268.708 197.764 268.725 197.743 268.736C197.721 268.748 197.697 268.754 197.673 268.754L197.704 268.796C197.708 268.8 197.711 268.805 197.713 268.81C197.715 268.815 197.716 268.821 197.716 268.827C197.716 268.832 197.715 268.838 197.713 268.843C197.711 268.848 197.708 268.853 197.704 268.857C197.7 268.861 197.695 268.864 197.69 268.867C197.684 268.869 197.679 268.87 197.673 268.87C197.667 268.87 197.662 268.869 197.657 268.867C197.651 268.864 197.647 268.861 197.643 268.857C195.411 266.583 193.259 263.823 192.171 260.813C191.691 259.544 191.422 258.205 191.374 256.849C191.374 255.925 191.295 254.058 192.092 253.377C193.691 252.022 195.132 257.785 195.357 258.655C195.758 260.236 196.013 261.847 196.378 263.44C196.779 265.179 197.308 266.887 197.831 268.596C197.832 268.613 197.829 268.63 197.823 268.645C197.817 268.661 197.807 268.675 197.795 268.687Z" fill="#455A64"/>
<path d="M197.795 268.687C197.71 268.541 197.624 268.395 197.545 268.243C196.193 265.827 195.223 263.216 194.67 260.503C194.429 259.132 194.073 257.783 193.606 256.472C193.478 256.156 193.077 254.928 192.554 255.548C192.28 255.87 192.505 258.199 192.615 258.795C192.879 260.163 193.314 261.493 193.91 262.753C194.873 264.879 196.098 266.877 197.558 268.699L197.685 268.857C197.689 268.854 197.692 268.849 197.694 268.845C197.697 268.84 197.698 268.835 197.698 268.83C197.698 268.824 197.697 268.819 197.694 268.815C197.692 268.81 197.689 268.806 197.685 268.802C197.679 268.786 197.668 268.771 197.655 268.76C197.683 268.762 197.71 268.756 197.735 268.743C197.76 268.73 197.78 268.711 197.795 268.687ZM194.554 263.738C193.912 262.513 193.398 261.226 193.022 259.895C192.877 259.364 192.765 258.823 192.687 258.278C192.618 257.854 192.581 257.425 192.578 256.995C192.578 255.943 192.669 255.67 192.846 255.633C193.022 255.597 193.107 255.724 193.417 256.35C193.606 256.761 193.755 257.188 193.861 257.627C194.025 258.235 194.171 258.843 194.305 259.506C194.578 260.758 194.834 262.017 195.199 263.251C195.711 265.02 196.455 266.712 197.412 268.286C196.336 266.85 195.381 265.329 194.554 263.738Z" fill="white"/>
<path d="M204.957 263.166C204.695 264.274 204.195 265.311 203.491 266.206C202.166 268.03 200.451 269.562 199.023 271.295C198.81 271.551 198.597 271.812 198.415 272.086C198.415 272.116 198.226 272.499 198.226 272.463C198.226 272.426 198.226 272.311 198.299 272.067C198.536 270.851 199.296 267.203 200.245 265.325C200.814 264.139 201.524 263.026 202.36 262.011C202.774 261.549 203.735 260.546 204.464 260.765C205.194 260.984 205.072 262.583 204.957 263.166Z" fill="#455A64"/>
<path d="M203.777 262.425C203.005 261.938 201.005 265.513 200.737 265.975C199.739 267.692 198.971 269.531 198.451 271.447C198.39 271.66 198.336 271.873 198.281 272.092C198.226 272.311 198.208 272.481 198.208 272.487C198.208 272.493 198.372 272.141 198.396 272.104L198.5 271.97C198.67 271.745 198.846 271.527 199.023 271.32C199.892 270.019 200.786 268.73 201.625 267.41C202.243 266.467 202.784 265.474 203.242 264.443C203.346 264.182 204.118 262.656 203.777 262.425ZM203.558 263.428C202.452 266.535 200.202 268.985 198.482 271.745C198.452 271.788 198.425 271.833 198.403 271.879C198.403 271.8 198.445 271.715 198.469 271.636C198.932 270.07 199.543 268.551 200.293 267.1C200.752 266.216 201.266 265.361 201.832 264.541C202.119 264.076 202.438 263.631 202.786 263.209C202.944 263.033 203.394 262.571 203.558 262.65C203.723 262.729 203.625 263.221 203.558 263.428Z" fill="white"/>
<path d="M212.745 237.521C210.441 242.816 204.391 245.279 201.771 250.386L201.54 250.86C201.533 250.876 201.522 250.89 201.509 250.901C201.496 250.911 201.48 250.918 201.463 250.922C201.446 250.925 201.429 250.923 201.412 250.918C201.396 250.913 201.381 250.903 201.369 250.891C201.36 250.877 201.355 250.861 201.355 250.845C201.355 250.829 201.36 250.813 201.369 250.8L201.424 250.684C201.943 247.435 203.038 244.305 204.659 241.442C205.984 239.01 207.796 236.718 210.307 235.435C210.915 235.113 212.131 234.444 212.83 234.967C213.529 235.49 213.031 236.87 212.745 237.521Z" fill="#455A64"/>
<path d="M210.672 237.728C210.38 237.515 209.936 237.776 209.681 237.904C209.054 238.239 208.468 238.648 207.936 239.12C206.846 240.079 205.905 241.196 205.145 242.434C203.777 244.519 202.672 246.765 201.856 249.122C201.68 249.657 201.528 250.192 201.4 250.739C201.4 250.806 201.37 250.873 201.357 250.939C201.368 250.952 201.382 250.963 201.397 250.97C201.412 250.977 201.429 250.98 201.446 250.98C201.462 250.98 201.479 250.977 201.494 250.97C201.509 250.963 201.523 250.952 201.534 250.939C201.601 250.775 201.674 250.629 201.747 250.477C201.748 250.463 201.748 250.449 201.747 250.435C202.195 249.371 202.745 248.353 203.388 247.395C204.451 245.958 205.604 244.592 206.842 243.303C207.334 242.756 211.687 238.494 210.672 237.728ZM210.301 238.944C209.514 240.144 208.599 241.255 207.571 242.257C206.611 243.327 205.644 244.385 204.707 245.467C203.956 246.325 203.281 247.247 202.689 248.222C202.193 249.032 201.77 249.884 201.424 250.769C201.671 249.868 201.974 248.982 202.33 248.118C202.33 248.118 202.33 248.118 202.33 248.088C202.983 246.559 203.73 245.073 204.568 243.637C204.575 243.618 204.586 243.6 204.598 243.583C205.301 242.299 206.156 241.104 207.146 240.026C207.691 239.442 208.304 238.924 208.97 238.482C209.723 237.989 210.386 237.673 210.575 237.916C210.763 238.159 210.514 238.609 210.301 238.974V238.944Z" fill="white"/>
<path d="M204.695 243.729C204.002 245.218 203.345 246.732 202.689 248.252C202.379 248.964 202.081 249.675 201.771 250.386C201.772 250.401 201.772 250.415 201.771 250.429C201.667 250.684 201.552 250.946 201.442 251.201C200.35 253.51 199.445 255.903 198.737 258.357C198.432 259.665 198.247 260.998 198.184 262.34C198.184 262.48 198.184 262.613 198.184 262.753C198.184 262.826 198.184 262.905 198.184 262.978C198.181 263.021 198.181 263.063 198.184 263.106C198.141 264.267 198.184 265.428 198.184 266.565C198.214 268.146 198.348 269.715 198.494 271.277C198.491 271.324 198.491 271.371 198.494 271.417C198.494 271.484 198.494 271.557 198.494 271.63C198.497 271.666 198.497 271.703 198.494 271.739V271.94C198.542 272.439 198.591 272.943 198.633 273.454H198.153C197.831 271.917 197.628 270.358 197.545 268.791C197.542 268.758 197.542 268.726 197.545 268.693C197.545 268.541 197.545 268.389 197.545 268.237C197.545 268.085 197.545 267.86 197.545 267.672C197.545 267.222 197.515 266.772 197.503 266.328C197.381 263.713 197.569 261.093 198.062 258.521C198.075 258.452 198.091 258.383 198.111 258.315C198.108 258.284 198.108 258.254 198.111 258.224L198.147 258.072L198.208 257.834C198.244 257.695 198.287 257.549 198.329 257.409L198.366 257.287C199.101 255.088 199.985 252.941 201.011 250.861C201.187 250.484 201.363 250.107 201.546 249.73C201.643 249.517 201.746 249.31 201.844 249.122L202.318 248.173C202.318 248.173 202.318 248.173 202.318 248.143C203.06 246.659 203.826 245.188 204.555 243.692C204.61 243.601 204.732 243.656 204.695 243.729Z" fill="#455A64"/>
<path d="M199.734 144.521H105.153V151.282H199.734V144.521Z" fill="#039A38"/>
<path d="M195.058 151.282H109.823V155.52H195.058V151.282Z" fill="#ACDDBE"/>
<path opacity="0.2" d="M195.058 152.936L109.823 153.866V151.282H195.058V152.936Z" fill="#039A38"/>
<path d="M105.148 273.612H199.728V266.851H105.148V273.612Z" fill="#039A38"/>
<path d="M109.823 266.851H195.059V262.613H109.823V266.851Z" fill="#ACDDBE"/>
<path opacity="0.2" d="M109.823 265.197L195.058 264.267V266.851H109.823V265.197Z" fill="#039A38"/>
<g opacity="0.4">
<path d="M184.248 235.697C187.659 240.439 189.185 262.619 189.185 262.619H115.696C115.696 262.619 117.216 240.439 120.633 235.697C126.105 228.121 149.209 211.839 149.209 208.106V206.719C149.033 202.901 126.105 186.716 120.633 179.177C117.222 174.429 115.696 155.514 115.696 155.514H189.185C189.185 155.514 187.665 174.429 184.248 179.177C178.776 186.747 155.672 203.029 155.672 206.762V208.154C155.873 211.966 178.819 228.151 184.248 235.697Z" fill="#EBEBEB"/>
<path d="M189.35 262.771H115.532V262.607C115.593 261.701 117.095 240.336 120.5 235.606C123.071 232.031 129.486 226.583 135.7 221.324C142.254 215.761 149.027 210.015 149.027 208.106V206.72C148.936 204.78 142.509 199.326 135.706 193.556C129.498 188.291 123.078 182.844 120.506 179.262C117.107 174.538 115.599 156.304 115.538 155.55V155.386H189.35V155.55C189.289 156.329 187.787 174.563 184.382 179.262C181.81 182.844 175.396 188.285 169.182 193.544C162.628 199.107 155.855 204.853 155.855 206.762V208.155C155.946 210.094 162.373 215.542 169.176 221.312C175.384 226.583 181.804 232.025 184.376 235.606C187.781 240.336 189.283 261.701 189.343 262.607L189.35 262.771ZM115.891 262.467H189.021C188.875 260.436 187.325 240.227 184.157 235.782C181.555 232.256 175.165 226.784 168.969 221.543C161.819 215.463 155.642 210.24 155.545 208.167V206.768C155.545 204.719 161.771 199.436 168.982 193.319C175.171 188.072 181.573 182.637 184.127 179.092C187.313 174.666 188.863 157.545 188.991 155.672H115.891C116.049 157.545 117.605 174.666 120.785 179.092C123.339 182.643 129.747 188.078 135.943 193.332C143.093 199.412 149.27 204.64 149.367 206.708V208.106C149.367 210.155 143.142 215.438 135.931 221.555C129.711 226.784 123.309 232.256 120.755 235.782C117.557 240.227 116.006 260.436 115.891 262.467Z" fill="#C7C7C7"/>
</g>
<path opacity="0.8" d="M180.509 234.123C183.719 238.591 185.154 262.613 185.154 262.613H120.195C120.195 262.613 121.624 238.591 124.84 234.123C129.972 226.997 151.708 211.675 151.708 208.161V206.854C151.544 203.267 129.948 188.006 124.84 180.941C121.63 176.472 120.195 155.405 120.195 155.405H185.154C185.154 155.405 183.725 176.466 180.509 180.941C175.377 188.067 153.635 203.388 153.635 206.902V208.21C153.806 211.797 175.402 227.027 180.509 234.123Z" fill="#EBEBEB"/>
<path d="M184.382 262.619H120.5C120.5 262.619 146.552 230.937 152.438 230.937C158.323 230.937 184.382 262.619 184.382 262.619Z" fill="#0A9C3D"/>
<path opacity="0.1" d="M184.382 262.619H120.5C120.5 262.619 146.552 230.937 152.438 230.937C158.323 230.937 184.382 262.619 184.382 262.619Z" fill="black"/>
<g opacity="0.1">
<path d="M167.699 257.293C167.699 257.382 167.672 257.469 167.623 257.543C167.573 257.617 167.503 257.675 167.421 257.709C167.339 257.743 167.248 257.752 167.161 257.734C167.074 257.717 166.994 257.674 166.931 257.611C166.868 257.548 166.825 257.468 166.807 257.381C166.79 257.294 166.799 257.203 166.833 257.121C166.867 257.039 166.925 256.969 166.999 256.919C167.073 256.87 167.16 256.843 167.249 256.843C167.308 256.843 167.366 256.855 167.421 256.878C167.476 256.9 167.525 256.933 167.567 256.975C167.609 257.017 167.642 257.066 167.664 257.121C167.687 257.176 167.699 257.234 167.699 257.293Z" fill="black"/>
<path d="M135.505 251.596C135.503 251.716 135.455 251.831 135.369 251.915C135.284 251.999 135.169 252.046 135.049 252.046C134.93 252.046 134.815 251.999 134.731 251.915C134.647 251.83 134.599 251.716 134.599 251.596C134.599 251.477 134.647 251.363 134.731 251.278C134.815 251.194 134.93 251.146 135.049 251.146C135.169 251.146 135.284 251.194 135.369 251.278C135.455 251.362 135.503 251.477 135.505 251.596Z" fill="black"/>
<path d="M168.751 255.457C168.752 255.525 168.733 255.591 168.696 255.648C168.66 255.705 168.607 255.749 168.545 255.776C168.483 255.803 168.414 255.81 168.348 255.798C168.281 255.785 168.22 255.753 168.172 255.706C168.124 255.659 168.09 255.598 168.077 255.532C168.063 255.466 168.07 255.397 168.095 255.334C168.121 255.272 168.164 255.218 168.22 255.18C168.277 255.143 168.343 255.123 168.41 255.123C168.5 255.123 168.585 255.158 168.649 255.22C168.713 255.283 168.749 255.368 168.751 255.457Z" fill="black"/>
<path d="M164.458 243.26C164.458 243.35 164.423 243.435 164.361 243.499C164.298 243.563 164.213 243.599 164.124 243.601C164.056 243.602 163.99 243.583 163.933 243.546C163.876 243.51 163.832 243.457 163.805 243.395C163.778 243.333 163.771 243.264 163.783 243.198C163.796 243.131 163.828 243.07 163.875 243.022C163.922 242.974 163.983 242.941 164.049 242.927C164.115 242.913 164.184 242.92 164.247 242.945C164.309 242.971 164.363 243.014 164.4 243.071C164.438 243.127 164.458 243.193 164.458 243.26Z" fill="black"/>
<path d="M128.373 258.649C128.374 258.716 128.356 258.783 128.319 258.84C128.282 258.896 128.229 258.941 128.167 258.968C128.105 258.994 128.037 259.002 127.97 258.99C127.904 258.977 127.843 258.945 127.794 258.898C127.746 258.85 127.713 258.79 127.699 258.724C127.686 258.657 127.692 258.589 127.718 258.526C127.743 258.464 127.787 258.41 127.843 258.372C127.899 258.335 127.965 258.314 128.033 258.314C128.122 258.314 128.208 258.349 128.271 258.412C128.335 258.475 128.372 258.56 128.373 258.649Z" fill="black"/>
<path d="M147.945 240.938C147.945 240.982 147.936 241.025 147.919 241.066C147.902 241.107 147.878 241.143 147.847 241.174C147.816 241.205 147.779 241.23 147.738 241.247C147.698 241.264 147.654 241.272 147.61 241.272C147.566 241.272 147.523 241.264 147.482 241.247C147.442 241.23 147.405 241.205 147.374 241.174C147.343 241.143 147.318 241.107 147.301 241.066C147.285 241.025 147.276 240.982 147.276 240.938C147.275 240.894 147.283 240.85 147.3 240.809C147.316 240.768 147.341 240.731 147.372 240.7C147.403 240.668 147.44 240.644 147.481 240.627C147.522 240.611 147.566 240.603 147.61 240.604C147.699 240.604 147.784 240.639 147.847 240.702C147.91 240.764 147.945 240.849 147.945 240.938Z" fill="black"/>
<path d="M147.276 238.585C147.274 238.647 147.249 238.706 147.204 238.749C147.16 238.792 147.101 238.816 147.039 238.816C146.977 238.816 146.919 238.792 146.875 238.748C146.832 238.705 146.808 238.646 146.808 238.585C146.808 238.524 146.832 238.465 146.875 238.422C146.919 238.378 146.977 238.354 147.039 238.354C147.101 238.354 147.16 238.378 147.204 238.421C147.249 238.464 147.274 238.523 147.276 238.585Z" fill="black"/>
<path d="M152.134 254.892C152.135 254.939 152.122 254.985 152.097 255.025C152.072 255.065 152.035 255.096 151.992 255.115C151.949 255.134 151.901 255.14 151.854 255.131C151.808 255.123 151.765 255.101 151.731 255.068C151.698 255.035 151.674 254.993 151.665 254.946C151.655 254.9 151.659 254.852 151.677 254.809C151.695 254.765 151.725 254.727 151.764 254.701C151.803 254.675 151.85 254.661 151.897 254.661C151.928 254.66 151.958 254.665 151.987 254.677C152.016 254.688 152.042 254.705 152.064 254.726C152.086 254.748 152.104 254.773 152.116 254.802C152.128 254.83 152.134 254.861 152.134 254.892Z" fill="black"/>
<path d="M137.688 256.442C137.689 256.489 137.676 256.536 137.651 256.575C137.626 256.615 137.589 256.647 137.546 256.665C137.503 256.684 137.455 256.69 137.408 256.681C137.362 256.673 137.319 256.651 137.286 256.618C137.252 256.585 137.229 256.543 137.219 256.497C137.209 256.451 137.214 256.403 137.231 256.359C137.249 256.315 137.279 256.278 137.319 256.251C137.358 256.225 137.404 256.211 137.451 256.211C137.482 256.21 137.512 256.216 137.541 256.227C137.57 256.238 137.596 256.255 137.618 256.276C137.64 256.298 137.658 256.324 137.67 256.352C137.682 256.381 137.688 256.411 137.688 256.442Z" fill="black"/>
<path d="M167.03 246.775C167.03 246.821 167.016 246.865 166.991 246.903C166.966 246.941 166.93 246.971 166.887 246.988C166.845 247.006 166.799 247.01 166.754 247.002C166.709 246.993 166.668 246.971 166.636 246.938C166.603 246.906 166.581 246.865 166.572 246.82C166.563 246.775 166.568 246.729 166.585 246.687C166.603 246.644 166.633 246.608 166.671 246.583C166.709 246.558 166.753 246.544 166.799 246.544C166.86 246.544 166.919 246.568 166.962 246.612C167.006 246.655 167.03 246.714 167.03 246.775Z" fill="black"/>
<path d="M173.14 258.649C173.268 258.649 173.371 258.546 173.371 258.418C173.371 258.29 173.268 258.187 173.14 258.187C173.013 258.187 172.909 258.29 172.909 258.418C172.909 258.546 173.013 258.649 173.14 258.649Z" fill="black"/>
</g>
<path d="M152.979 228.383C152.979 229.666 154.377 232.177 154.377 232.177H150.966C150.966 232.177 152.365 229.666 152.365 228.383V213.092C152.365 204.969 151.702 203.844 151.064 202.871C149.404 201.868 147.057 199.74 144.546 197.199H160.798C158.281 199.746 155.934 201.88 154.274 202.877C153.666 203.844 152.985 204.999 152.985 213.086L152.979 228.383Z" fill="#0A9C3D"/>
<path opacity="0.1" d="M152.979 228.383C152.979 229.666 154.377 232.177 154.377 232.177H150.966C150.966 232.177 152.365 229.666 152.365 228.383V213.092C152.365 204.969 151.702 203.844 151.064 202.871C149.404 201.868 147.057 199.74 144.546 197.199H160.798C158.281 199.746 155.934 201.88 154.274 202.877C153.666 203.844 152.985 204.999 152.985 213.086L152.979 228.383Z" fill="black"/>
<g opacity="0.1">
<path d="M150.547 199.175C150.546 199.107 150.565 199.04 150.602 198.983C150.639 198.926 150.692 198.882 150.754 198.855C150.817 198.829 150.886 198.821 150.952 198.834C151.019 198.847 151.08 198.88 151.128 198.928C151.176 198.976 151.209 199.037 151.222 199.104C151.235 199.17 151.227 199.239 151.201 199.302C151.174 199.364 151.13 199.417 151.073 199.454C151.016 199.491 150.949 199.51 150.881 199.509C150.793 199.509 150.708 199.474 150.645 199.411C150.582 199.348 150.547 199.263 150.547 199.175Z" fill="black"/>
<path d="M148.984 200.342C148.993 200.286 149.022 200.236 149.065 200.199C149.108 200.163 149.162 200.143 149.219 200.143C149.275 200.143 149.329 200.163 149.372 200.199C149.415 200.236 149.444 200.286 149.453 200.342C149.458 200.376 149.456 200.41 149.447 200.444C149.438 200.477 149.421 200.507 149.399 200.533C149.377 200.56 149.349 200.581 149.318 200.595C149.287 200.609 149.253 200.617 149.219 200.617C149.184 200.617 149.15 200.609 149.119 200.595C149.088 200.581 149.06 200.56 149.038 200.533C149.016 200.507 148.999 200.477 148.99 200.444C148.981 200.41 148.979 200.376 148.984 200.342Z" fill="black"/>
<path d="M157.648 198.609C157.648 198.547 157.673 198.488 157.716 198.444C157.759 198.399 157.818 198.374 157.879 198.372C157.942 198.374 158.001 198.399 158.045 198.443C158.09 198.487 158.115 198.547 158.117 198.609C158.115 198.671 158.089 198.73 158.045 198.773C158.001 198.816 157.941 198.84 157.879 198.84C157.818 198.84 157.759 198.816 157.716 198.773C157.673 198.729 157.648 198.67 157.648 198.609Z" fill="black"/>
</g>
<path d="M123.327 259.239C123.069 255.039 123.122 250.827 123.485 246.635C123.655 244.537 123.892 242.452 124.269 240.324C124.385 239.771 124.47 239.26 124.634 238.682L124.756 238.251L124.81 238.038C124.81 237.959 124.883 237.856 124.92 237.764C125.05 237.431 125.208 237.11 125.394 236.804C126.004 235.843 126.689 234.932 127.443 234.08C130.247 230.917 133.296 227.982 136.563 225.3C139.783 222.593 143.199 220.128 146.784 217.925C144.163 221.245 141.354 224.334 138.533 227.386C135.712 230.438 132.812 233.405 130.179 236.433C129.549 237.135 128.97 237.88 128.446 238.664C128.357 238.801 128.276 238.943 128.203 239.09C128.185 239.118 128.171 239.149 128.16 239.181L128.106 239.339L128.008 239.655C127.863 240.075 127.759 240.585 127.619 241.048C127.145 242.999 126.726 245.03 126.288 247.048C125.431 251.104 124.537 255.184 123.327 259.239Z" fill="white"/>
<path d="M146.807 197.94C143.414 195.547 140.156 192.967 137.049 190.212C133.936 187.493 130.92 184.678 128.002 181.767L127.455 181.22L127.181 180.947L126.859 180.612C126.413 180.091 126.042 179.51 125.758 178.885C125.296 177.861 124.916 176.802 124.621 175.718C124.067 173.677 123.643 171.604 123.351 169.51C122.736 165.38 122.512 161.2 122.682 157.028C124.007 160.998 125.065 164.987 126.178 168.908C126.743 170.866 127.285 172.824 127.941 174.684C128.232 175.577 128.585 176.449 128.999 177.292C129.142 177.605 129.326 177.898 129.546 178.162L130.586 179.196C133.496 182.106 136.319 185.109 139.055 188.206C141.819 191.303 144.407 194.553 146.807 197.94Z" fill="white"/>
<path d="M26.188 273.612L57.7675 273.46L89.3409 273.411L152.5 273.308L215.659 273.411L247.232 273.46L278.812 273.612L247.232 273.758L215.659 273.813L152.5 273.916L89.3409 273.813L57.7675 273.758L26.188 273.612Z" fill="#263238"/>
</svg>
